<svg xmlns="http://www.w3.org/2000/svg" viewBox="0 0 720.17 674.64"><defs><style>.cls-1{fill:#efefef;stroke:#b8860b;stroke-miterlimit:10;stroke-width:1px;}</style></defs><title>Asset 3</title><g id="Layer_2" data-name="Layer 2"><g id="Layer_5" data-name="Layer 5"><path class="cls-1" d="M179.61,673.64a20,20,0,0,1-19.87-22.25l0-.2a20,20,0,0,1,19.87-17.75l483.37.2c.11,0,.16,0,.25-.14a.23.23,0,0,0,0-.29l-27.12-49.07-1.49-2.58L21,580.24A20,20,0,0,1,3.58,550.48L248.52,112.81a20,20,0,0,1,30.79-5.14,15.21,15.21,0,0,1,3.15,18.77L137.67,389.6,230.19,544l382.8.52L376.29,139.81,242.56,376.61l0,0,44.63,74.27,172.63-.33-85.3-137.84a19,19,0,1,1,32.35-20c2.22,3.48,77.89,122.21,103,164.81a20,20,0,0,1-17.23,30.15l-26.49-.12L275.7,488a20.07,20.07,0,0,1-17.36-10l-52.75-91.33a20.1,20.1,0,0,1-.15-19.74L398.94,16.5a30,30,0,0,1,52-.95L716.3,457.31l.18.31a17.12,17.12,0,0,1-12.22,26.3,19.88,19.88,0,0,1-20.5-9.6L427.45,46.83a.52.52,0,0,0-.49-.24.55.55,0,0,0-.57.34L398,101.33,709.81,636.74a19.63,19.63,0,0,1,1.89,14.71,30,30,0,0,1-29,22.18ZM117.13,425.37,46.73,544.56,187.21,544l-70-118.61Z"/></g></g></svg>
