<?xml version="1.0" encoding="utf-8"?>
<!-- Generator: Adobe Illustrator 18.0.0, SVG Export Plug-In . SVG Version: 6.00 Build 0)  -->
<!DOCTYPE svg PUBLIC "-//W3C//DTD SVG 1.1//EN" "http://www.w3.org/Graphics/SVG/1.1/DTD/svg11.dtd">
<svg version="1.1" id="Layer_1" xmlns="http://www.w3.org/2000/svg" xmlns:xlink="http://www.w3.org/1999/xlink" x="0px" y="0px"
	 viewBox="0 0 1200 1200" enable-background="new 0 0 1200 1200" xml:space="preserve">
<path id="XMLID_484_" fill="#EE3D3A" d="M693.4,818c-2.3,8.7-4.6,17.4-6.9,26.1c0.6,2.5-1.4,4.6-0.8,7.1c-0.1,0.5-0.2,0.9-0.3,1.4
	c-0.9,1.8-2.2,2.7-4.2,2c-2-2.1-1.3-4.8-1.6-7.2c0-1.6,0.4-3.1,0.8-4.6c2.3-8.9,4.7-17.7,7-26.6c0.5-2.2,1.2-4.2,2.6-5.9
	c2.9-2.4,3.3-5.9,4.2-9.2c8.8-33.4,17.6-66.7,26.5-100.1c0.9-3.2,1-7,4.3-9.1c4.9,2.9,5.8,6.9,2.5,12.3c-0.9-0.4-2.1-1.8-2.6,0.2
	c-3.7,14.9-9.2,29.3-10.8,44.6c1.2,1.8,1.3,3.8,0.8,5.9c-2.8,10.6-5.3,21.3-8.4,31.8c-0.6,2.1-1.7,3.7-3.6,4.8
	c-1.8,4.8-3.6,9.7-5.4,14.5C695.3,809.7,695.7,814.3,693.4,818z"/>
<path id="XMLID_483_" fill="#EE3D3A" d="M638.5,689c-0.4-0.1-0.7-0.3-1-0.5c0.1-2.1-0.3-4.1-1.3-6c-3.7-5.9-1.1-11.7,0.3-17.5
	c1-4.8,2-9.7,3.8-14.3c1.5-3.9,1.1-8.5,4.5-11.6c3.2-4.3,5.5-8.8,5.4-14.3c1.1-2.2,0.3-5.2,3-6.7c0.8-0.1,1.5,0,2.2,0.4
	c4.5,9.3,1.7,17.3-4.6,24.5c-0.3,1.3-4-2.4-2.7,2.2c1,3.4-1.1,7.1-2.6,10.5c-2.3,5.3-4,10.8-2.6,16.7c0.2,2.2-0.2,4.4-0.2,6.6
	c-0.1,0.6-0.2,1.2-0.4,1.8c-1.2,2.2-0.2,4.7-0.8,7C640.7,688.9,640.1,690.1,638.5,689z"/>
<path id="XMLID_482_" fill="#EE3D3A" d="M637.6,740c1.7-5.6,3.4-11.3,5.2-16.9c0.6-0.5,1.1-0.4,1.6,0.1c1.1,2.1,0.1,4.7,1.8,6.5
	c0.6,1,0.9,2.1,1.1,3.2c-2.3,13.6-5.5,26.9-10.6,39.7c-0.7,1-1.6,1.7-2.6,2.3c-3.6,1.7-2.1,7.2-6.2,8.5c1.1-12.4,5.3-24.1,8.1-36.2
	C636.5,744.9,637.1,742.5,637.6,740z"/>
<path id="XMLID_481_" fill="#EE3D3A" d="M727.5,704.1c1.5-4.2-1.1-8-1-12c-0.6-0.9-0.4-1.8,0.2-2.6c0.6-0.3,1.2-0.4,1.8-0.2
	c1,0.8,1.4,2,1.7,3.2c0.5,2.4,1.6,4.4,2.7,6.5c1.2,3.8,3,7.1,6,9.7c0.3,0.5,0.5,1.1,0.5,1.7c0.2-0.6,0.5-1.1,0.9-1.6
	c2.7-2.3,2-6.7,5-8.9c1.8-0.6,2.3,0.6,2.6,2c0,0.5,0,0.9-0.1,1.4c-1.7,5.3-1.7,13-8.7,13.3C732.1,717,729.7,710,727.5,704.1z"/>
<path id="XMLID_10611_" fill="#EE3D3A" d="M698.7,853.3c1.1-0.7,2.3-1.3,3.4-2l0.5,0.2c-0.2,9.4-0.5,18.9-2,28.2
	c-0.3,0.3-0.4,0.7-0.1,1c0.7,3.1,1,6.1-0.5,9c-1.5,0.8-2.9,0.6-4.3-0.4c-2.7-2.9,0.3-7.1-2.2-10c-1.5-5.9-1.1-11.7,0.7-17.4
	C695.4,858.8,695.3,855.2,698.7,853.3z"/>
<path id="XMLID_480_" fill="#EE3D3A" d="M743.2,645c6.7,8.1,6.6,18.3,8.2,27.9c1,1.9,1,3.6-0.4,5.3c-0.8,1.1-0.7,3-2.7,2.8
	c-1.5-1.3-1.3-3.1-1.1-4.8c0.5-2.9-0.9-5.3-2.2-7.7c-0.9-2.2,0.4-4.7-0.7-6.9c-0.4-0.4-0.7-0.9-1-1.4c-0.3-0.5-0.5-1.1-0.7-1.6
	c-0.3-1.8-0.9-3.4-2.1-4.8c-0.9-1.4-1.5-2.9-1.3-4.7C739.7,647,740.6,645.2,743.2,645z"/>
<path id="XMLID_479_" fill="#EE3D3A" d="M653.1,618.5c-0.9,2.2-0.5,4.9-3,6.3c-0.4-2.5-0.7-4.9-1.1-7.4c1.2-7.4,2-14.9,6.8-21.1
	c0.8-0.7,1.6-1.5,2.4-2.2c0.7-0.2,1.3,0,1.6,0.6c1.3,3.6-0.5,6.8-1.8,9.8C656.2,609.1,656,614.3,653.1,618.5z"/>
<path id="XMLID_10471_" fill="#EE3D3A" d="M638.3,793.9c0.7-3.9,1.4-7.7,2.1-11.6c0.5-1.2,0.9-2.4,1.4-3.6c2.2-3.4,0.9-8.4,4.7-11.2
	c1.1,2,1.1,4.1,0.5,6.2c-1.1,5.7-3.8,11.1-3.4,17.2c-0.8,9.4-4.7,18.1-6.8,27.2c-0.6,2.5-1.2,5.3-4.5,5.8c-0.8-0.6-1-1.3-0.7-2.2
	c1.7-6.6,3.4-13.1,5.2-19.6C637.1,799.4,638.5,796.8,638.3,793.9z"/>
<path id="XMLID_478_" fill="#EE3D3A" d="M726.6,632.1l0.1,0.4l0.4,0c2.9,2.3,7.6,2.3,8.9,6.7c-0.1,0.4-0.1,0.7-0.1,1.1
	c-0.2,0.2-0.4,0.4-0.7,0.6c-2.8,0.6-5.6,1.7-8.5,2c-2.3-0.7-5.6-0.1-5.8-3.9c0.1-0.8,0.2-1.6,0.2-2.4c-1.1-2.2-3.5-4.2-0.7-6.8
	c0.5-0.4,1.1-0.6,1.7-0.7C724.2,629.2,725.6,630.4,726.6,632.1z"/>
<path id="XMLID_477_" fill="#EE3D3A" d="M747.9,670.8c0.9-0.9,1.7-1.8,2.6-2.8c0.6-0.1,0.9,0.2,0.9,0.8c-1.5,8.1-0.7,16.5-3.6,24.3
	c-0.8-0.7-1.5-1.4-2.3-2.1c-1.7-2.5-1-5.2,0.5-7.3c2-2.9-1.3-1-1.4-1.8c-0.4-0.6-0.6-1.3-0.7-2C744.2,676.5,744.3,672.9,747.9,670.8
	z"/>
<path id="XMLID_476_" fill="#EE3D3A" d="M716.1,564.1c0.6-0.5,1.1-1,1.7-1.4c0.9,0.3,1.8,0.5,2.7,0.8c3.9-0.1,6.7,1.4,7.5,5.5
	c-0.6,1.4-1.9,1.7-3.3,1.9c-2.1-0.2-4.2-0.4-5.5,1.7c-1.2,1-2.5,1.9-4.2,1.1C713.5,570.3,715,567.3,716.1,564.1z"/>
<path id="XMLID_475_" fill="#EE3D3A" d="M743.2,645c-1.4,1.5-2.5,3.1-2.9,5.2c-1.1,0.7-2.2,0.5-3.4,0.1c-3.6-2.8-5.1-6-1.4-9.8
	l0.4-0.2C739.1,640.8,741.3,642.7,743.2,645z"/>
<path id="XMLID_474_" fill="#EE3D3A" d="M727.3,569.4c-0.4-4-4.9-3.5-6.8-5.9c0.7-0.5,1.3-1,2-1.5c2-1.6,2.7,0.5,3.7,1.4
	c0.2,0.3,0.6,0.5,1,0.6c1,2.1,2,4.2,3,6.3C729,570.7,728,570.5,727.3,569.4z"/>
<path id="XMLID_10144_" fill="#EE3D3A" d="M710.5,815c1.3-4.3,1.1-9.1,4.4-12.7C713.9,806.6,713,811.1,710.5,815z"/>
<path id="XMLID_10081_" fill="#EE3D3A" d="M702.4,849.7c-1.4-2.7,0.2-5,0.9-7.4C703.8,844.9,703.2,847.3,702.4,849.7z"/>
<path id="XMLID_9913_" fill="#EE3D3A" d="M583.7,863.6c7.5-4.9,14.6-0.7,21.8,0.9c3,0.7,6.1,2.2,7.3-2.4c1.4-0.2,2.4,0.4,3.3,1.5
	c1.3,0.4-1.3,3.2,1.7,2.6c1.2,0.1,2.3,0.2,3.5,0.2c2.4-0.5,4.5-0.4,5.1,2.5c1.8,0.3-3.6,3.1,0.9,2.5c1.8-0.2,3.5-1.2,5.3-1.2
	c3.4,0,6.6,0.7,9.3,3c1.3,0.5-1.4,4.1,2.5,3c2.1-0.6,4.5,0.7,6.6,1.7c1.1,0.7,1.9,1.5,2,2.9c-0.4,0.9-1,1.4-1.9,1.6
	c-8.1-0.2-15.5-3.5-23.2-5.2c-11.5-2.6-22.7-6.6-34.4-8.5c-3.1,0.1-6.4,2.4-9.4-0.7C582.7,866.7,583.3,865.1,583.7,863.6z"/>
<path id="XMLID_473_" fill="#EE3D3A" d="M690.7,811.3c-0.5,1.7-1,3.4-1.5,5c-3.4,9.2-5.8,18.7-7.5,28.4c-0.2,1.3-0.5,2.7-0.7,4
	c0.4,1.8-0.5,3.4-0.9,5.1c-1.8,2.2-2.9,4.8-4.1,7.3c-3.1,4.4-1.9,10.5-6,14.4c-0.7,0.4-1.5,0.3-2.1-0.2c-1.8-3.7,0.4-7.1,0.9-10.6
	c0.5-2.4-1.5-3.7-2.6-5.5c-0.3-1-0.1-1.9,0.4-2.7c1.2-1.6,2.7-2.8,4.2-4.1c1.1-0.9,2.1-1.8,2.9-3c3-6.4,4.1-13.5,5.9-20.2
	c2.3-9,5.1-17.8,8.4-26.5c7-29.5,15.2-58.7,22.9-88.1c1-3.7,1.5-7.7,4.7-10.5c1.4-0.8,2.6-0.6,3.7,0.6c0.8,2.1,0,4.1-0.6,6
	c-7,24.6-11.6,49.9-19.1,74.4C696.9,793.7,695.9,803.3,690.7,811.3z"/>
<path id="XMLID_472_" fill="#EE3D3A" d="M690.7,811.3c3.6-12.1,7.6-24,10.8-36.2c6-23.5,11.6-47.2,17.4-70.7c-1.1-2-0.8-4.1-0.2-6.2
	c2.9-4.5,1-9.5,1.5-14.3c0.2-0.6,0.5-1.2,0.9-1.7c1.4-1.3,2.7-2.6,4.3-3.6c0.9-0.2,1.8-0.1,2.6,0.4c1.2,1.5,0.1,3.4,0.7,5
	c0,1.8,0.5,3.7-1.3,5.1c-0.3,1-0.6,2-1,3c-2.8,1.6-2.6,4.7-3.3,7.3c-9.3,35.1-18.6,70.3-27.9,105.4
	C694.5,807.3,695.2,811.2,690.7,811.3z"/>
<path id="XMLID_9779_" fill="#EE3D3A" d="M698.3,842.9c0.8-10.4,3.5-20.3,7.8-29.7C703.5,823,700.9,832.9,698.3,842.9z"/>
<path id="XMLID_9778_" fill="#EE3D3A" d="M695.9,852.5c0.5-1.8,1.1-3.6,1.6-5.5c1.6,1.8-0.7,4.4,1.1,6.2c-0.9,3.3-1.9,6.7-2.8,10
	C692.2,859.7,693.4,856.1,695.9,852.5z"/>
<path id="XMLID_471_" fill="#EE3D3A" d="M643.6,730.2c-1.7-2.6,0.4-5,0.3-7.5c0.8-8.6,5-16.5,5.5-25.2c0.6-0.7,1.2-1.4,1.8-2.2
	c0.7-3.4-1.5-1-2.4-1.2c-0.5,0.1-0.9,0.2-1.4,0.3c-1.1-0.9-1.4-2.1-1.5-3.3c0-0.7,0.1-1.3,0.3-1.9c0.6-1.3,1.5-2.1,2.7-2.8
	c1.3-0.6,2.6-0.9,4-0.6c1,0.3,1.9,0.9,2.4,1.8c0.7,1.7,0.4,3.4,0.2,5.1c-0.1,1.8,0.9,3.4,0.9,5.1c-0.6,4.2-0.8,8.4-4,11.7
	c-0.7,0.4-1.4,0.3-2.1-0.2c-0.4-2.9,1.3-5.5,1.5-8.3c0.1-0.9-1.5,0.2-0.6-0.1c0.9,3.2-1.8,6-1.1,9.2
	C649.1,717.1,648.7,724.4,643.6,730.2z"/>
<path id="XMLID_470_" fill="#EE3D3A" d="M646.4,690.6c1.2,1,1.3,2.3,1.1,3.7c-6.7,4.4-6.8-2.2-8.9-5.4c1.3-0.3,1.9-1.2,2.3-2.3
	c0.6-0.3,1.2-0.4,1.8-0.2C644.5,687.3,645.4,689,646.4,690.6z"/>
<path id="XMLID_469_" fill="#EE3D3A" d="M648.8,694.1c1-1.1,2-2.2,3.8-4.2c-0.7,2.6-1.1,4-1.4,5.4
	C650.4,695,649.6,694.5,648.8,694.1z"/>
<path id="XMLID_468_" fill="#EE3D3A" d="M659.4,594.5c-0.4-0.1-0.8-0.2-1.2-0.3c3.2-5.1,6.9-9,13.4-4.9c2.1,1.4,3.9,3,3.2,5.9
	c-0.2,1-0.5,1.9-1.2,2.7c-2.4,2-3.7-1.6-5.8-1.1c-1.7,0.4-3.2,1.3-4.6,2.2c-0.8,0.4-1.7,0.7-2.7,0.5
	C658.1,598.3,660.6,596,659.4,594.5z"/>
<path id="XMLID_467_" fill="#EE3D3A" d="M673.2,611c0.4,1,0.8,2.1,1.2,3.1c1,3.1-2.9,6.1-0.4,9.2c0.6,0.4,0.9,1,1.1,1.6
	c0.1,2.4-1.1,3.9-3.2,4.8c-1.1,0.2-2.1,0.1-3.1-0.3c-1.6-0.9-2.3-2.4-2.5-4.2c0-0.7,0.1-1.3,0.3-1.9c2.6-4,1.3-9.3,4.2-13.3
	C671.9,609.7,672.7,610,673.2,611z"/>
<path id="XMLID_466_" fill="#EE3D3A" d="M673.2,611c-0.8-0.2-1.5-0.4-2.3-0.6c-4.6-4.9-1.4-8.6,1.8-12.3c0.3-0.9,0.5-1.8,0.8-2.8
	c3,1,0.9,2.9,0.7,4.5C673.9,603.5,673.6,607.2,673.2,611z"/>
<path id="XMLID_465_" fill="#EE3D3A" d="M686.5,621.5c1.9,1.2,3.8,0,5.7-0.1c0.4,0.6,0.5,1.3,0.4,2c-0.2,0.7-0.6,1.3-1.2,1.7
	c-2.9,1.6-5.6,1.2-8-1c-0.5-0.7-0.4-1.3,0.2-1.9C684.5,622.1,685.5,621.8,686.5,621.5z"/>
<path id="XMLID_464_" fill="#EE3D3A" d="M683.5,622.4c-0.1,0.4-0.2,0.8-0.3,1.2c0.5,1.3,0.1,2.4-1.1,3.1c-3.1,0.9-5.7,0.1-7.6-2.5
	l-0.1-0.4c-0.3-0.5-0.3-0.8-0.1-0.9c0.2-0.1,0.4-0.1,0.6-0.1C677.7,622.7,680.6,622.6,683.5,622.4z"/>
<path id="XMLID_463_" fill="#EE3D3A" d="M722.1,628c-0.2,0.4-0.3,0.8-0.4,1.2c-0.2,0.5-0.4,1-0.5,1.5c-2.8,0.9-4.4-0.2-5-3
	c0-4.3,2.1-7.1,5.9-8.8c2.6,0.8,2.9,2.2,1.3,4.2C721.8,624.5,720.6,625.9,722.1,628z"/>
<path id="XMLID_462_" fill="#EE3D3A" d="M723.4,623.2c0.3-1.8-0.1-3.2-2-3.8c-0.1-0.6,0-1.1,0.5-1.6c1.7-1,3.4-1,5.2-0.2
	c0.2,0.3,0.3,0.5,0.5,0.8c-0.1,2.1-2,3.1-2.9,4.7C724.2,623.1,723.8,623.2,723.4,623.2z"/>
<path id="XMLID_461_" fill="#EE3D3A" d="M649.2,687.4c-0.9,0.6-1.8,1.2-2.7,1.8c-1.6-1.2-2.1-3.6-4.3-4.1c-1.4-1.2-1.7-2.6-1.1-4.3
	c0.2-0.4,0.4-0.9,0.6-1.3c0.5-1.4,0.2-3.1,2-3.9c3.4,0.3,3.6-1.8,3.3-4.3c-0.4-3,0.2-5.8,1.3-8.5c0.4-0.9,1-1.6,1.8-2.2
	c3,0.5,5.9,0.5,8-2.3c0.8-0.2,1.4,0,1.9,0.7c1.7,6.6-1.8,12.2-3.4,18.1C654.3,680.7,652.9,684.9,649.2,687.4z"/>
<path id="XMLID_460_" fill="#EE3D3A" d="M643.7,675.9c-0.5,1.3-0.6,2.9-2,3.7c-1.4-2.3,0-4.7-0.2-7.1c-1.2-9.6,3.5-17.8,6.5-26.3
	c1-1,2.1-0.8,3.3-0.1c0.9,0.9,1.1,2,1.1,3.2c-1.4,3.7,2.6,8.2-1.9,11.4c-0.3,0.9-0.5,1.8-0.8,2.7c-2.5,1.7-2.6,4.5-3.1,7
	C646.2,672.6,646.1,674.8,643.7,675.9z"/>
<path id="XMLID_459_" fill="#EE3D3A" d="M651.4,646.6c-0.8-0.2-1.7-0.4-2.5-0.6c-0.8-1.1-0.5-2,0.4-2.8c4.8-7.5,7.8-15.3,5.2-24.4
	c-0.4-0.5-0.5-1.1,0-1.6c0.7-1,1.3-2.2,2.8-2.3c1.4,0.3,2.2,1.2,2.7,2.5c0.2,0.9,0.3,1.9,0.2,2.8c-0.8,2.7,0.7,4.5,2.6,6.2
	c0.3,0.6,0.4,1.2,0.5,1.9c0,1-0.3,1.9-0.7,2.8c-1.6,2.5-2.2,5.2-2.1,8.1c-0.2,1.3-0.6,2.5-1.8,3.3c-0.6,0.2-1.5,0.3-1.7-0.2
	c-1.5-3.4-1.9-1.4-2.4,0.4C653.8,644.3,653.1,645.9,651.4,646.6z"/>
<path id="XMLID_458_" fill="#EE3D3A" d="M649.3,643.1c-0.1,0.9-0.3,1.9-0.4,2.8c-3.6,8.5-6.2,17.3-7.4,26.5
	c-2.3-4.2-0.9-8.3,0.3-12.4c1.8-5.7,4.5-11,5-17.2C647.2,639,648.5,642.7,649.3,643.1z"/>
<path id="XMLID_457_" fill="#EE3D3A" d="M655.3,617.5c-0.3,0.4-0.5,0.8-0.8,1.2c-0.5-0.1-1-0.2-1.4-0.3c-0.8-8.8,4.9-15.8,6.4-24
	c0.5,1.5,1,3,1.4,4.6c1.6,2.9-1,5.1-1.2,7.7C659.1,610.7,656.9,614,655.3,617.5z"/>
<path id="XMLID_456_" fill="#EE3D3A" d="M637.4,666.4c-0.2-5.8,1.6-11,4.3-16C640.3,655.7,638.8,661.1,637.4,666.4z"/>
<path id="XMLID_455_" fill="#EE3D3A" d="M641.1,680.9c0.7,1.2,1.3,2.3,2,3.5c0.3,0.9,0.2,1.8-0.4,2.5c-0.6-0.1-1.3-0.2-1.9-0.3
	C639.9,684.7,637.9,682.6,641.1,680.9z"/>
<path id="XMLID_454_" fill="#EE3D3A" d="M634.9,773.6c3.8-14.3,7.5-28.5,11.3-42.8c0.2-0.3,0.3-0.6,0.5-1c0.4-0.6,0.8-1.2,1.1-1.9
	c2.5-9.8,6-19.4,8.5-29.2c0.5-3.2,1.6-6.3,0.7-9.6c-0.2-0.7-0.3-1.5-0.4-2.2c0.4-6.4,2.6-12.5,4.6-18.5c0.4-0.6,0.8-1.1,1.3-1.5
	c0.4-1.3,2.4,2,2.3-0.9c-0.1-3.3,0-6.6,0.1-9.9c-0.6-1.1,2.7-3.3-1-3.5c-1.2-2.4-0.6-4.8,0-7.2c0.8-2.1,1.1-4.5,3-6
	c1.1-0.6,2.1-0.5,3.1,0.1c0.9,1,0.6,2,0.3,3.2c-0.2,0.6-0.3,0.8-0.7,0.8c1.3-0.9,1.6-3.2,3.6-3.4c2.7-0.5,4.9,0.6,7,2.1
	c1.3,1,2.8,2.2,4.3,1.8c8.3-2,13.2,3.1,18.3,8.2c1.6,0.4,3.4,1,3.4-1.6c-0.1-7,3.8-12.2,7.8-17.4c0.7-0.7,1.6-1.2,2.7-1.2
	c1.7,0.5,2.7,1.9,4,3c0.6,1.4,0.2,2.6-0.3,3.9c-2.4,3.4-8.7,4.9-5.6,11.1c0.9,3.7,3,7.1,3,11.1c-0.9,2.8,0.8,5.6-0.1,8.3
	c-1.8,3.1-2.2,6.1,1.2,8.5c0.6,0.3,1.1,0.6,1.5,1.1c0.3,0.6,0.4,1.2,0.5,1.8c-2.7,4.7,1.6,9.8-1,14.5c-0.3,0.6-0.7,1.1-1.1,1.5
	c-2.6,1.6-2.3,5.4-5.1,6.8c-1,0.2-1.9,0-2.7-0.7c-2.6-2.3,2.1-6.9-2.7-8.5c-3.7,1.7-2.6,5.6-3.6,8.4c-4,10.4-2.5,21.8-5.9,32.3
	c-0.8,2.6-1.2,5.4-2.6,7.8c-3.9,3.3-4.5,8.2-5.8,12.7c-1.3,4.7-1.7,10.3-9,9.7c-1.2-0.1-0.8,1.9-1.5,2.8c-3.7,1.7-8.1,2.4-10.2,6.6
	c-2,1.3-4,2.8-6.6,1.3c-0.6-0.7-0.9-1.6-0.8-2.5c0-0.5-0.3-0.3-0.2,0.4c0.7,6.5-4.7,8.7-8.5,12c-0.4,0.5-0.8,0.9-1.3,1.3
	c-5,2.8-2.1,7.5-2.7,11.4c-0.2,1-0.7,2-1.3,2.9c-2.8,4.1-3.3,9-4.8,13.5c-1,3-1.8,6.4-6.1,6.3c-1.6-0.3-2.9-1.1-3.2-2.9
	c2.8-6.3,6.1-12.5,4-19.8c0.2-3.8,1.7-7.1,3.8-10.2c1.8-2.6,3.4-5.4,2.1-9.1c-3.2,0.7-3.2,3.2-3.9,5.3c-0.7,1.9-1,4-1.9,5.9
	c-0.9,1.8-1.9,4.1-4.5,3.2c-2-0.7-1.9-2.9-1.7-4.8c0.6-4.8,2.9-9.2,2.8-14.1C634.8,774.3,634.8,774,634.9,773.6z"/>
<path id="XMLID_453_" fill="#EE3D3A" d="M650.6,709.2c0.4,0.1,0.8,0.2,1.2,0.3c0.7,7.8-1.7,14.8-5.4,21.5l-0.2-0.2
	c-0.8-0.2-1.7-0.4-2.5-0.6c1.9-7.1,3.8-14.2,5.7-21.4C649.9,708.3,650.3,708.4,650.6,709.2z"/>
<path id="XMLID_9595_" fill="#EE3D3A" d="M645,773.2c0.5-1.9,1-3.7,1.4-5.6c0.9,0.2,1.8,0.5,2.7,0.7l0.6,0.1c0.3,1.1,0.3,2.2,0,3.3
	c-0.3,1.1-0.9,2.1-1.9,2.7C646.7,774.6,645.7,774.3,645,773.2z"/>
<path id="XMLID_452_" fill="#EE3D3A" d="M727.2,683.7c-0.7-1.5-0.6-2.7,0.8-3.8c-1.6-3.8-5.2-7.9,1.5-10.5c2.1,0.3,1.4,3.4,3.5,3.8
	c1.1,0.5,2,1.2,2.7,2.2c0.7,1.1,1,2.3,1,3.5c0.1,5.6,1.3,11.6-5.6,14.3c-0.6,0.2-1.2,0.1-1.7-0.3c-1-1-0.9-2.2-0.9-3.5
	c-0.3-1.6-0.3-3.2,0.7-4.6c0.7-0.5,1.4-0.9,2.1-1.4c-0.6,0.2-1,0.9-1.7,1.1C728.4,684.9,727.7,684.6,727.2,683.7z"/>
<path id="XMLID_451_" fill="#EE3D3A" d="M744.7,682.1c0.9,0.4,3.2-3,2.8,0.8c-0.3,2.8-1.3,5.5-2,8.2c-2.1,3.4,0.4,9.2-5.7,10.5
	C738.2,694.3,740.1,687.9,744.7,682.1z"/>
<path id="XMLID_450_" fill="#EE3D3A" d="M739,709.7c-5.8-1-5.8-6.3-7.4-10.3c-0.2-0.5-0.2-0.9-0.1-1.3c0.2-0.4,0.3-0.6,0.4-0.5
	c1-0.4,1.9-0.3,2.8,0.1c1.6,2.4,4.4,2.8,6.6,4.3C741,704.7,740.8,707.5,739,709.7z"/>
<path id="XMLID_449_" fill="#EE3D3A" d="M739,709.7c0.4-2.8,2.5-5.4,0.9-8.4c-1.6-2.2-0.7-4.4,0-6.5c0.3-0.6,0.6-1.1,0.9-1.7
	c0.8-1,1.6-1.9,2.8-2.5c0.7-0.1,1.2,0.1,1.5,0.7c0,0,0,0,0,0.1c-1.5,6.2-3.1,12.4-4.6,18.6C739.8,710.4,739.3,710.7,739,709.7z"/>
<path id="XMLID_448_" fill="#EE3D3A" d="M732.2,697.8c-0.2,0.5-0.4,1.1-0.6,1.6c-1.5-1.9-2.8-3.8-2.2-6.4c0.4-0.1,0.7,0,1.1,0
	C734.7,693.3,734,695.3,732.2,697.8z"/>
<path id="XMLID_447_" fill="#EE3D3A" d="M727.2,683.7c0.9,0.3,1.7,0.6,2.6,0.9l0,0c-0.5,1.7-0.9,3.4-1.4,5.1c-0.3-0.1-0.7-0.3-1-0.5
	C727.4,687.3,727.3,685.5,727.2,683.7z"/>
<path id="XMLID_9474_" fill="#EE3D3A" d="M695.9,852.5c0,3.6,0,7.2,0,10.7c-1.8,5.7-1.2,11.6-1.1,17.4c-0.3,0.1-0.7,0.2-1,0.3
	c-2.3-0.3-4.1-1.4-5.2-3.5c-0.4-1-0.4-2.1-0.3-3.2c0.6-3.1,1.6-6.2,0.7-9.4c0.7-2,0.5-4.4,2.2-6.1
	C692.5,856.5,691.3,852.4,695.9,852.5z"/>
<path id="XMLID_9473_" fill="#EE3D3A" d="M699.9,889.4c5.5,1.5,11,3.1,16.5,4.6c-0.6,1.5,3.5,2.7,0.3,4.5c-0.7,0.3-1.5,0.4-2.3,0.2
	c-5.5-2-11.4-2.8-16.7-5.5c-1.7-1.2-3.3-2.4-2.3-4.9C697,888.7,698.4,889.1,699.9,889.4z"/>
<path id="XMLID_9472_" fill="#EE3D3A" d="M695.5,888.4c0.7,1.2,1.4,2.3,2,3.5c-5.8,1.4-10.8-1.6-16.1-3.1c-2-2.9,0.5-3.3,2.2-4.2
	c1.8-0.5,3.6-0.2,5.5,0.1c2.5,0.8,3-1.2,3.7-2.8c0.3-0.6,0.8-1,1.4-1.3c0,0,0.5,0.2,0.5,0.2C700.4,882.8,694.4,885.9,695.5,888.4z"
	/>
<path id="XMLID_446_" fill="#EE3D3A" d="M716.1,564.1c1.4,3.3,0.1,6.3-1.2,9.2c-3.4,4.1-5.8,3.7-7.2-1.5c1.1-3.4,3.9-5.3,6.6-7.2
	C714.9,564.5,715.5,564.3,716.1,564.1z"/>
<path id="XMLID_445_" fill="#EE3D3A" d="M736.2,605.6c-2.9,4.3-5.7,8.5-8.6,12.8l-0.2-0.3c-1.7-2.6-1-5.5-1-8.4
	c0.5-2.9,1.8-5.6,3-8.3c2.1-4.5,2.6-9.1-0.2-13.7c-0.6-0.8-0.9-1.8-1.1-2.8c-0.1-0.6,0-1.3,0-2c1.4-1.5-1.3-5.4,3-5.4
	c1.1,0.9,2.2,1.7,3.3,2.6C739,588.4,739.8,596.8,736.2,605.6z"/>
<path id="XMLID_9449_" fill="#EE3D3A" d="M715.2,897.9c0.5,0.2,1,0.4,1.5,0.6c-0.1,0.4-0.2,0.8-0.4,1.3c-6.5,2.2-11.6-1.4-16.9-4.2
	c-10.2-2.7-20.5-5.4-30.7-8.1c-2,1-4.1,0.9-6.3,0.3c-3.6-1.1-7.5-1.5-11.1-2.8c-3.7-1-7.4-1.9-11-2.9c-2.9-0.5-5.8-1.2-8.6-2.3
	c-2.9-0.9-6-1.2-7.8-4.1c-10.7-2.9-21.5-5.8-32.2-8.8c2.7-1.6,5.1,0,7.6,0.6c17.7,4.5,35.3,9.2,52.9,13.8c6.3-2,11.8,1.4,17.6,2.6
	C684.5,890.4,700.4,892.5,715.2,897.9z"/>
<path id="XMLID_444_" fill="#EE3D3A" d="M745.1,691.4c-0.4-0.2-0.7-0.4-1-0.7c-1.8-2,0.5-3.7,0.4-5c-2.1,2.6-4.3,1.4-6.5-0.3
	c-1.3-2-2.9-4-2.8-6.6c-0.1-1-0.1-1.9-0.2-2.9c-0.8-1.8-0.8-3.5,0.5-5.1c1.4-1.3,2.5-0.5,3.6,0.4c1.2,1.4,2.3,2.9,3.6,4.2
	c0.7,0.6,0.9,1.9,2.3,1.6c0.4-0.4,0.7-0.7,1.1-1c1.1-0.7,2-2,3.4-0.8c-0.4,1.8-0.9,3.5-1.3,5.3C747.1,684.2,746.1,687.8,745.1,691.4
	z"/>
<path id="XMLID_443_" fill="#EE3D3A" d="M743.5,659.7c0.3,0,0.7,0.1,1,0.2c2.3,2.1,0.3,4.6,0.6,6.9c-1,2.2-1.7,4.8-5,4
	c-1.6-0.8-2.4-2.4-3.6-3.5c-0.9-1-1.8-2.1-2.1-3.5c-0.4-2.1,0.1-4.1,0.8-6.1c0.4-1,0.9-1.8,1.6-2.5c2.4-1.3,3.6,0,4.4,2.1
	C741.6,658.4,741.6,660,743.5,659.7z"/>
<path id="XMLID_442_" fill="#EE3D3A" d="M743.5,659.7c-0.8,5.1-3.4,0.9-3.8,0.3c-0.8-1.5,0.8-4-2-4.8c-2.3-1.8-2.3-3.9-0.4-6
	c1,0.3,2,0.6,3,1c0.6,1.1,1.2,2.3,1.8,3.4c1.6,1.6,0.7,4,1.7,5.9L743.5,659.7z"/>
<path id="XMLID_441_" fill="#EE3D3A" d="M749.2,665.3c-1.2,0.6-2.4,1.3-3.6,1.9c-2.8-2.6-2.7-5.5-1.1-8.6c0.3-0.1,0.6-0.3,1-0.4
	C748.8,659.4,748.7,662.5,749.2,665.3z"/>
<path id="XMLID_440_" fill="#EE3D3A" d="M744,656.4c0-2.4,0.1-4.9,0.1-7.3c5.6,2.2,0.6,6.1,1.4,9.1c0,0-0.4,0-0.4,0
	C743.8,658.1,743.3,657.6,744,656.4z"/>
<path id="XMLID_439_" fill="#EE3D3A" d="M743.4,648.5c-1.5-1.8-1.6-4-1.8-6.1C744.2,643.8,744,646.1,743.4,648.5z"/>
<path id="XMLID_9419_" fill="#EE3D3A" d="M615,864.1c-0.7-0.7-1.5-1.4-2.2-2.1c0-0.5,0.1-1,0.1-1.5c0.9-1.2,1.9-2.5,2.8-3.7
	c0.9-0.1,1.5,0.2,1.8,1.1C618,860.6,617.4,862.7,615,864.1z"/>
<path id="XMLID_9409_" fill="#EE3D3A" d="M616.8,857.1l-0.5-0.1l-0.5-0.1c2-4.5,4-8.9,6-13.4c0.3-0.8,0.7-1.7,1-2.5
	c2-1.9,1.1-5,3.1-6.9c0.3-0.8,0.6-1.6,0.9-2.4c1.8-2,1.2-5,2.9-7.1c0.4-0.9,0.8-1.7,1.2-2.6c0.3-0.6,0.7-0.6,1.1-0.2
	c-0.1,0.6-0.2,1.2-0.3,1.8c1.7,2.5,0.8,5,0.2,7.6c-0.9,8.6-6.8,15-9.4,22.9C621.6,856.5,619.7,857.8,616.8,857.1z"/>
<path id="XMLID_9408_" fill="#EE3D3A" d="M632,821.8c-0.4,0.1-0.7,0.2-1.1,0.2c1.9-7.1,3.8-14.2,5.7-21.3c0.6-0.3,0.9-0.2,1,0.5
	C635.7,808.1,633.8,815,632,821.8z"/>
<path id="XMLID_9406_" fill="#EE3D3A" d="M637.5,801.3c-0.3-0.2-0.6-0.4-1-0.5c0.6-2.3,1.2-4.6,1.8-6.8
	C639.6,796.5,638,798.8,637.5,801.3z"/>
<path id="XMLID_9389_" fill="#EE3D3A" d="M629.9,830.7c0.6-2.4,1.2-4.7,1.8-7.1c5.2-7.7,5.4-17.1,8.6-25.5c0.9-2.4,1.1-5.1,1.6-7.7
	c1.1-2.4,0.4-5.8,3.8-6.8c2.3,2.4-0.1,5.4,0.9,7.9c-1,6.3-3.8,12.2-4.1,18.7c0,1.2-0.1,2.3-0.3,3.5c-0.4,1.8-0.9,3.6-1.7,5.4
	c-0.3,0.7-0.6,1.3-1,2c-2.3,3.7-2.1,8.4-4.5,12.1c-0.8,1.3-1.9,2.3-3.3,2.8C627.9,835.3,631.1,832.2,629.9,830.7z"/>
<path id="XMLID_9388_" fill="#EE3D3A" d="M645.3,783.6c-1.1,2.3-0.5,5.3-3.4,6.8c-1.4-6.2,2.2-11.4,3.1-17.2
	c0.9,0.3,1.9,0.5,2.8,0.8c1.5,2.4,0.1,4.6-0.4,6.9C647,782,646.4,783,645.3,783.6z"/>
<path id="XMLID_438_" fill="#EE3D3A" d="M737.3,649.2c0.1,2,0.3,4,0.4,6c-0.3,0.8-0.7,1.6-1,2.4c-3.9,2.2-0.9,8.3-5.6,10.1
	c-5.4-3.9-1.1-8.9-1.5-13.4c-0.1-3.9,0.7-8.1-2.7-11.3c-0.1-0.3-0.1-0.6-0.2-0.9c2.8-1.4,5.4-3.6,8.8-1.7
	C734.7,643.6,734.8,646.6,737.3,649.2z"/>
<path id="XMLID_437_" fill="#EE3D3A" d="M719.9,634.9c-1-0.9-2.1-1.9-3.1-2.8c-6-2.9-12.2-4.9-18.9-5c-0.5,0.4-1.1,0.6-1.7,0.9
	c-1.7,0.5-3.3,0.7-4.9-0.2c-1.1-1.2-1.3-2.3,0.1-3.4c0.1-0.5,0.3-0.9,0.4-1.4c4-3.4,7.7-5.9,13.2-1.7c3.6,2.7,9.5,1.5,12.8,5.7
	c-0.5,2.7,1.4,3.2,3.3,3.7c-2.6,3.4,3.7,3.6,2.4,6.6C721.5,637.9,720.8,636.3,719.9,634.9z"/>
<path id="XMLID_436_" fill="#EE3D3A" d="M713,650.2c-3.2-6.7,1.1-9.1,6.2-11.3c0.9-0.7,1.7-2.2,2.9-0.4c0,3.1,3.9,1.4,4.6,3.6
	c0,0,0.2,0.5,0.2,0.5c-2.3,3.4-6.5,4.5-9.1,7.5c-0.6,0.1-1.2-0.1-1.7-0.4c-0.5-0.8-0.8-1.6-0.3-2.5c-0.7,0.6-0.6,1.6-1.2,2.2
	C714.1,649.8,713.6,650.1,713,650.2z"/>
<path id="XMLID_435_" fill="#EE3D3A" d="M722.1,638.5c-1,0.1-2,0.3-2.9,0.4c0.3-1.3,0.5-2.6,0.8-4c1.2,0.8,2.4,1.6,3.7,2.4
	C723.1,637.7,722.6,638.1,722.1,638.5z"/>
<path id="XMLID_434_" fill="#EE3D3A" d="M717.9,627c-5.7-2.6-12.5-1.6-17.7-6.4c-1.4-1.3-5.1,2.6-8.3,2.4c0.1-0.5,0.2-1,0.3-1.5
	c4.9-3.4,1.6-6.8,0.1-10.3c-1.7-3.6-3.3-7.3-0.3-11c0.9-7.9,1.2-16.1,7.5-22.3c1-1,1.8-2.1,3.3-2.2c2-0.2,3.3,0.7,4.1,2.5
	c0.1,3-2.4,4.8-3.7,7.1c-2.3,3.7-3.2,7.8-3.3,12.1c-0.1,6.2-1.7,12.6,2.9,18c0.7,1,1.5,1.8,2.6,2.4c2.7,2.2,5.7,2.7,9,1.5
	c2.3-0.4,4.3-2,6.7-1.9c0.2,0.2,0.4,0.4,0.6,0.7c-0.1,0.4-0.2,0.8-0.3,1.2C721.8,622.6,717.6,623.8,717.9,627z"/>
<path id="XMLID_433_" fill="#EE3D3A" d="M706.6,578.4c-1.3-0.9-2.6-1.7-3.8-2.6c0.8-1.1,1.7-2.3,2.5-3.4c1.2,0.1,2.4,0.4,3.3-0.7
	c0.8,5.2,3.9,2.2,6.3,1.7c1.5-0.1,2.7-0.9,3.6-2.1c0.7,0,1.3,0.3,1.6,0.9c0.4,1.4,0.1,2.7-0.8,3.9c-0.7,0.8-1.6,1.3-2.6,1.6
	C713.3,577.2,710.2,581.2,706.6,578.4z"/>
<path id="XMLID_432_" fill="#EE3D3A" d="M718.5,575.9c0.4-1.4,0.8-2.9,1.1-4.3c0.6-3.7,3.7,0.2,5-1.7c0.7-1,1.7-0.7,2.7-0.5
	c1,0.3,1.9,0.5,2.9,0.8c1.7,2.3,0.9,4.9,1,7.4c-2.4,1.2,1.2,4.1-1.5,5.2c-3.4,1.6-4.9-1.4-7-2.9
	C721.5,578.4,719.3,577.9,718.5,575.9z"/>
<path id="XMLID_431_" fill="#EE3D3A" d="M724.6,569.9c1.4,1.6,1,2.5-1.1,2c-1.3-0.3-2.5-1.2-3.9-0.3l-0.5-0.2c0,0-0.6-0.1-0.6-0.1
	C719.6,566.4,722.3,569,724.6,569.9z"/>
<path id="XMLID_9113_" fill="#EE3D3A" d="M669.4,885.8c-5.7-1.5-11.4-3-17.1-4.5c0.1-0.4,0.3-0.8,0.4-1.2c1.6-1.5,4.1-0.9,5.8-2.2
	c2.1-0.9,2.8-3.1,4.4-4.5c4.1-4.3,9.5-1.7,14.2-2.6c0.5-0.3,1.1-0.6,1.6-1c3.4-2,2.9-8.4,8.7-7.5c-1,4-2,8.1-3,12.1
	c0.2,2.2,2,3.7,2.2,5.9c0.1,1.5-0.3,2.8-1.5,3.8c-5.4-0.6-8.8-6.6-16.1-5.2c5,3.3,11,2,14.7,5.8c0.2,0.3,0.4,0.5,0.6,0.8
	c-1.2,0.7-2.4,1.4-3.6,2C676.8,888.4,673.4,885.2,669.4,885.8z"/>
<path id="XMLID_9112_" fill="#EE3D3A" d="M629.9,830.7c0.5,1.6,1.1,3.2,1.6,4.8c2.8,5.9-2.2,9.9-3.8,14.6c-1.4,4.2-3.7,8.2-5.9,12.2
	c-1.3,2-2.5,4.1-4.7,5.3c-2.7,0-1-2.5-2.1-3.5c0.6-2.3,1.2-4.7,1.8-7c6-4.9,7.1-12.8,10.9-19C629,836,629.2,833.2,629.9,830.7z"/>
<path id="XMLID_9110_" fill="#EE3D3A" d="M625.8,868.5c-1.6-2.1-3.3,0.1-5-0.1c-0.6-1.3-0.2-2.6,0.4-3.8c0.7-1.2,1.6-2.1,2.6-2.9
	c1.1-0.7,2.3-1.1,3.5-1.5c1.8-0.6,3.6-1.3,5.6-0.9c0.6,0.3,1,0.7,1.3,1.3c0.3,2.9-2.1,3.7-3.9,4.8c-1.5,0.5-2.9,1.2-3.7,2.6
	C626.3,868.2,626.1,868.3,625.8,868.5z"/>
<path id="XMLID_9109_" fill="#EE3D3A" d="M642.2,874.5c1.3,0.2,2.5,0.4,3.8,0.6c0.7,0,1.3-0.2,1.9-0.6c3.3-2.3,4.3-0.9,4.1,2.5
	c-0.3,1-1,1.8-1.9,2.4c-2.9-0.8-6-1.1-8.7-2.4C638.7,875.7,641.9,875.3,642.2,874.5z"/>
<path id="XMLID_9108_" fill="#EE3D3A" d="M622.3,864.8c-0.5,1.2-1,2.3-1.5,3.5c-1.3-0.2-2.5-0.5-3.8-0.7c0.4-2,0.9-4,2.7-5.2
	C621.7,862,623.2,862.2,622.3,864.8z"/>
<path id="XMLID_9107_" fill="#EE3D3A" d="M650,879.3c0.2-0.9,0.4-1.8,0.7-2.8c0.6-0.3,1.1-0.6,1.8-0.8c0.7-0.1,1.3-0.1,2,0
	c1.6,0.3,3.2,0.9,4.4,2.1c0.1,0.3,0.2,0.6,0.4,0.9c-1.6,3.3-4.1,1.6-6.4,1.2C651.8,879.8,650.9,879.6,650,879.3z"/>
<path id="XMLID_9106_" fill="#EE3D3A" d="M627.1,868.8c0.3,2.3,2.7,1.7,3.9,2.7c-2.1,3.7-5.1,1.9-7.1,0.5c-1.4-1,2-1.9,1.8-3.6
	c0,0,0,0,0,0C626.4,867.9,626.9,868,627.1,868.8z"/>
<path id="XMLID_430_" fill="#EE3D3A" d="M710.9,702.3c0.9,0.2,1.8,0.5,2.7,0.7c0.8-0.6,1.5-0.5,2.3,0c0.1,0.2,0.3,0.5,0.4,0.7
	c-8.8,33.3-17.7,66.7-26.5,100c-6.5-3.7-5-9.8-3.9-15.2c2.7-12.3,6.2-24.5,9.5-36.6c0.7-2.7,1.2-5.3,0.5-8.1
	c1.8-13.1,8.1-24.8,11.7-37.4C708.1,704.7,709.1,703.1,710.9,702.3z"/>
<path id="XMLID_429_" fill="#EE3D3A" d="M697,744.3c3.4,1.7,1.7,4.3,1.1,6.6c-3.3,12.9-6.7,25.8-10.2,38.6
	c-1.4,5.1-0.2,9.7,1.9,14.3c-6.1,14.4-9,29.8-13.2,44.8c-0.4,1.6-0.8,3.1-2.3,4.1c-2.2-3-0.9-6.1-0.1-9.2c2.2-9,4.8-18,7-27
	c0.6-2.4,1.5-4.8,0.6-7.3c-0.2-0.9-0.4-1.7-0.1-2.6c0.3-0.9,1.6-0.8,1.5-0.8c-5.5-0.6-3.9-5.2-4.9-8.4c2.4-16.7,9-32.3,13.3-48.4
	C692.7,746.4,694.7,745.2,697,744.3z"/>
<path id="XMLID_8981_" fill="#EE3D3A" d="M698.4,803.8c4.6,1,3.6,4.1,2.8,7.2c-3.6,13.4-7.1,26.8-10.7,40.2c-1,0.2-2,0.4-3,0.6
	c-2-0.4-3.3-1.5-3.8-3.6c1.9-13.6,6.5-26.6,9.9-39.8C694.2,806.1,695.5,804.1,698.4,803.8z"/>
<path id="XMLID_8980_" fill="#EE3D3A" d="M683.3,855.2c-0.2,1.1-0.4,2.2-0.5,3.2c1.4,5.3-1.2,9.4-4,13.5l0.1-0.1
	c-1,0.7-2,0.4-2.9-0.1c-1.6-5.7-1-11.5-0.9-17.3c1.5-3.1,0.5-6.2,0.1-9.4c2.2-9,3.4-18.2,7.7-26.6c7.1-0.6,4,5.8,6,8.7
	c-1.1,6.8-3.4,13.3-4.9,19.9C683.1,849.7,683.3,852.5,683.3,855.2z"/>
<path id="XMLID_8979_" fill="#EE3D3A" d="M678.7,871.9c1.3-4.5,2.7-9,4-13.5c2.5,0.1,5.6-0.5,4.7,3.8
	C682.7,863.9,683.5,870.4,678.7,871.9z"/>
<path id="XMLID_8978_" fill="#EE3D3A" d="M689.9,875.2c-0.2,0.8-0.3,1.7-0.5,2.5c0.2,0.4,0.2,0.9,0.1,1.2c-0.2,0.4-0.3,0.5-0.4,0.5
	c-1.6,0.3-2.5-0.6-3.3-1.8c-0.5-0.9-0.5-1.9-0.2-2.9c2.3-5.1,1.5-11.4,5.7-15.8c-0.6,2.4-1.1,4.7-1.7,7.1
	C691.2,869,688.1,872.1,689.9,875.2z"/>
<path id="XMLID_8977_" fill="#EE3D3A" d="M683.3,855.2c-5.4-1.1-0.6-4.3-1.3-6.4c1.2-0.6,2.2-0.3,3.1,0.7c0.8,0.8,1.6,1.5,2.5,2.3
	C686.5,853.6,686,855.8,683.3,855.2z"/>
<path id="XMLID_428_" fill="#EE3D3A" d="M720.7,697.8c-0.6,2.2-1.3,4.4-1.9,6.6c-0.8-0.2-1.7-0.4-2.5-0.6l-0.1-0.1
	c-1-3.1-0.4-5.8,2.1-8l0.1,0C720.2,695.3,720.2,696.8,720.7,697.8z"/>
<path id="XMLID_8975_" fill="#EE3D3A" d="M685.5,874.7c0.4,0.7,0.7,1.4,1.1,2.1c0.5,1.2,0.3,2.3-1,3c-2.9-1.2-2-3.3-1.2-5.4
	C684.8,874.6,685.2,874.7,685.5,874.7z"/>
<path id="XMLID_427_" fill="#EE3D3A" d="M731.1,653.2c2,4.8-3.4,9.8,0.3,14.6c0.1,0.2,0.3,0.5,0.4,0.7c0,0.6-0.1,1.1-0.4,1.6
	c-0.2,0.1-0.5,0.3-0.7,0.4c-7.5,1.3-0.3,6.7-2.6,9.5c-0.7-0.4-1.4-0.8-2.2-1.1c-0.5-0.3-0.9-0.8-1.2-1.3c-0.9-1.9-0.7-4.1-1.4-6.1
	c-0.7-2.1-1.7-4.2-1.1-6.5c0.3-1,0.7-1.9,1.4-2.7c2.9-2.5,2.7-6.9,5.7-9.4C730,652.5,730.6,652.6,731.1,653.2z"/>
<path id="XMLID_426_" fill="#EE3D3A" d="M720.7,697.8c-0.8-0.7-1.5-1.4-2.3-2.1c1.7-5.5-1.9-11.4,1.6-16.7c3.5,0.6,0.5,3.3,1.5,4.7
	C721.6,688.4,723.9,693.2,720.7,697.8z"/>
<path id="XMLID_425_" fill="#EE3D3A" d="M725.8,677.6c0.2,0.4,0.2,0.7,0.1,1.1c-0.7,1.8-0.9,4.2-3.9,3.5c-0.8-1.5-0.3-3,0.1-4.5
	c0.3-0.5,0.8-1,1.4-1.2C724.5,676.3,725.2,676.7,725.8,677.6z"/>
<path id="XMLID_424_" fill="#EE3D3A" d="M723.3,677c-0.4,1.8-0.9,3.5-1.3,5.3c-0.2,0.5-0.3,0.9-0.5,1.4c-0.5-1.6-1-3.2-1.5-4.7
	c0,0,0,0,0,0c-0.4-0.6-0.4-1.3-0.1-2C721,675.7,722.2,675.6,723.3,677z"/>
<path id="XMLID_423_" fill="#EE3D3A" d="M663,666.7c-1.7,7.1-3.5,14.3-5.2,21.4c-0.2,0.1-0.5,0.3-0.7,0.4c-0.9,0.1-1.7-0.2-2.1-1.1
	c-0.9-0.3-1.8-0.5-2.7-0.8c-0.9-1.5-0.1-2.8,0.6-4.1c2.3-4.2,5.2-8.1,6.4-12.8C659.6,668.1,660.5,666.2,663,666.7z"/>
<path id="XMLID_422_" fill="#EE3D3A" d="M646.3,731c1.8-7.2,3.6-14.4,5.4-21.5c1.1-4.4,2.3-8.8,3.5-13.2c-0.6-1.5-0.5-2.9,0-4.4
	c0.4-1.5,0.9-2.8,2.2-3.8c0,0,0.4,0.1,0.4,0.1c0.4,0.2,0.7,0.4,1.1,0.5c0.5,3.5-1.4,6.6-2,10c-2.3,8.8-4.6,17.6-7,26.4
	c-0.6,2.1-0.3,4.6-2.5,6.1C647,731.1,646.7,731,646.3,731z"/>
<path id="XMLID_421_" fill="#EE3D3A" d="M642.7,686.9c0.1-0.8,0.3-1.7,0.4-2.5c2.9,0.4,4.9,1.4,3.4,4.9c-0.1,0.5-0.1,0.9-0.2,1.4
	C644.2,690.3,643.3,688.8,642.7,686.9z"/>
<path id="XMLID_420_" fill="#EE3D3A" d="M653.3,682.8c-0.4,1.3-0.7,2.6-1.1,4c-1,0.2-2,0.5-3,0.7c1.8-3.4,3.5-6.8,5.3-10.3
	C655.5,679.4,654.6,681.1,653.3,682.8z"/>
<path id="XMLID_419_" fill="#EE3D3A" d="M650.6,709.2l-0.6-0.2l-0.6-0.2c0.8-3,1.6-6,2.4-9c0.4,0.1,0.9,0.2,1.3,0.3
	C652.2,703.1,651.4,706.2,650.6,709.2z"/>
<path id="XMLID_418_" fill="#EE3D3A" d="M657.3,688.1c-0.3,1.4-0.7,2.7-1,4.1c-0.9,0.6-1.6,1.9-2.9,0.6c0.5-1.8,1-3.5,1.4-5.3
	C655.7,687.7,656.5,687.9,657.3,688.1z"/>
<path id="XMLID_417_" fill="#EE3D3A" d="M653.5,692.8c1-0.2,1.9-0.4,2.9-0.6c-0.4,1.4-0.8,2.7-1.2,4.1
	C653.7,695.5,653,694.5,653.5,692.8z"/>
<path id="XMLID_416_" fill="#EE3D3A" d="M672.7,598c-0.5,4.1-3.4,7.9-1.8,12.3c-0.5,4.7,0.6,9.7-3.6,13.4c-1.3-0.2-1.8-1.1-2-2.2
	c1-6.9-0.7-13.9,1.4-20.7c-0.1-0.7-0.1-1.4-0.2-2c0.1-1.4,0.3-2.7,1.3-3.7C672.9,590.3,669.9,599,672.7,598z"/>
<path id="XMLID_415_" fill="#EE3D3A" d="M667.8,595.1c0.1,1.1,0.2,2.2,0.4,3.3c-1.1,1.4-0.4,3.4-1.5,4.8c-0.9,1.6-1.1,3.5-2.3,4.8
	c-2.8,3-3.6,1-4-1.7c0-3,2.2-5.5,2.3-8.5C663.5,595.1,665.9,595.5,667.8,595.1z"/>
<path id="XMLID_414_" fill="#EE3D3A" d="M662.7,597.8c1.9,3.1-0.3,5.9-0.7,8.8c-0.8,0.5-1.7,0.6-2.6,0.3c-0.5-0.3-0.9-0.7-1.3-1.3
	c-0.4-2.7,2.4-4.1,2.8-6.5C661.5,598.6,662.1,598.2,662.7,597.8z"/>
<path id="XMLID_413_" fill="#EE3D3A" d="M653.3,682.8c0.4-1.9,0.8-3.7,1.3-5.6c1.3-6.4,4.7-12.4,4-19.2c-1.2-1.3-1-2.9-0.9-4.4
	c0.1-0.9,0-1.8,0-2.7c0.2-2.4-0.1-4.9,0.4-7.3c0.1-0.3,0.2-0.6,0.4-0.9c0.2-1.3,0.5-2.7,0.7-4c-0.1-2.9,0.7-5.6,2.1-8.1
	c0.4-0.9,0.7-1.7,1.1-2.6c1.2-1.7,2.5-3.4,4.9-3c0.7,1.3,1.5,2.5,2.2,3.8c-0.1,1.3-0.8,2.2-1.5,3.2c-1.8,2.2-1.9,4.8-1.9,7.4
	c-0.6,2.4-1,4.8-0.5,7.3c-0.4,2.2-1.3,4.4-0.1,6.6c0.3,2.2,0.1,4.4,0.3,6.6c-0.5,2.5,0.1,5.4-2.3,7.3l-0.4-0.3
	C659.4,671.9,659,679,653.3,682.8z"/>
<path id="XMLID_412_" fill="#EE3D3A" d="M665.5,646.6c-2.1-2.5-0.8-5.3-0.7-7.9c-0.2-2.9,0.5-5.6,2.2-8c0.8-0.6,1.6-1.3,2.4-1.9
	c0.7,0.1,1.5,0.2,2.2,0.3c4.3-1.5,8.7-2.4,13.2-1.2c0.6,1,0.5,2,0,3c-0.8,1.2-2,1.7-3.4,2.1c-3.6,1.2-7.9-0.6-10.9,2.9
	c-0.6,1.5-1.5,2.7-2.9,3.6C666.9,641.8,666.2,644.2,665.5,646.6z"/>
<path id="XMLID_411_" fill="#EE3D3A" d="M684.6,628.5c-4.3,0-8.6,1.4-13,0.6c1.4-1.3,2.5-2.9,2.9-4.9c2.7,0.6,5.4,1.3,8,1.9
	c1.5-0.6,2.8-0.5,4,0.8C686.7,628.4,685.9,628.8,684.6,628.5z"/>
<path id="XMLID_410_" fill="#EE3D3A" d="M667.1,625c-1.6,1-3.3,2-4.9,3c0-0.5,0-1,0-1.5c-0.8-1.6-0.7-3.1,0.3-4.6
	c0.4-0.5,0.9-0.9,1.5-1.1c1-0.1,1.9,0.2,2.4,1.2c0.3,0.6,0.6,1.1,0.9,1.7C667.2,624.1,667.1,624.6,667.1,625z"/>
<path id="XMLID_409_" fill="#EE3D3A" d="M686.8,627.5c-1.4-0.5-2.9-0.9-4.3-1.4c0.2-0.8,0.5-1.7,0.7-2.5c2.7,0.6,5.4,1.6,8.3,0.8
	c-0.2,1.1-0.2,2.1,0.6,3C690.5,630.6,688.6,629.3,686.8,627.5z"/>
<path id="XMLID_408_" fill="#EE3D3A" d="M728.1,609.4c-0.2,2.9,0.6,5.9-0.8,8.6c-1.9,0.1-3.7,0.1-5.6,0.2l-0.1-0.3
	c-0.5-2.1,0.8-3.5,1.7-5.1c0.9-1.3,1.7-2.6,3-3.5C727,609,727.5,609,728.1,609.4z"/>
<path id="XMLID_407_" fill="#EE3D3A" d="M650.5,660.6c2.1-3.8-2-7.7,0.2-11.4c0.8-0.5,1.7-0.4,2.5,0c1.2,0.9,1.9,2.1,2.9,3.1
	c1,1.1,1.4,2.4,1.5,3.9c0.3,1-0.5,2.1,0.1,3.2c-0.4,2-0.8,4-3.1,4.6C651.9,664.7,651.7,662,650.5,660.6z"/>
<path id="XMLID_406_" fill="#EE3D3A" d="M643.7,675.9c2.4-4-0.5-10.6,6.1-12.5c-0.6,3-2.2,5.8-0.5,9.1c1.1,2.1-0.3,3.6-2.2,4.9
	C644.8,678.9,644.6,676.9,643.7,675.9z"/>
<path id="XMLID_405_" fill="#EE3D3A" d="M657.8,659.4c-1.1-0.7-0.8-1.7-0.6-2.7c-0.2-1.6-0.8-3.5,1.8-3.7c-0.2,1.6-0.4,3.3-0.6,4.9
	C658.3,658.4,658,658.9,657.8,659.4z"/>
<path id="XMLID_404_" fill="#EE3D3A" d="M653.3,649.9c-0.9-0.2-1.7-0.5-2.6-0.7c0.2-0.9,0.4-1.8,0.6-2.6c0.5-1.7,1.1-3.5,1.6-5.2
	C657.4,643.7,657.5,644.9,653.3,649.9z"/>
<path id="XMLID_403_" fill="#EE3D3A" d="M659.1,605.9c0.9,0.2,1.9,0.4,2.8,0.7c0.2,0.5-0.2,2.3,0.9,1c1.4-1.5,0.6-4.4,3-5.6
	c1.4,1.7,0.5,3.4,0.2,5.1c-0.4,1.7-0.9,3.3-1.3,5c-1.3,2.4-1.3,6.2-5.7,5.2c-0.7-0.7-1.4-1.4-2.2-2.1
	C656.3,611.7,657.7,608.8,659.1,605.9z"/>
<path id="XMLID_402_" fill="#EE3D3A" d="M653.3,649.9c-0.1-2.9,3.6-5.9-0.4-8.6c0.3-1.6,1.1-2.9,2.6-3.8c0.9,1.7,1.8,3.3,2.7,5l0,0
	c0.3,2.8,0,5.4-0.9,8.1c-0.3,1.2-1,2.1-2.1,2.7C653.6,652.8,653,651.6,653.3,649.9z"/>
<path id="XMLID_401_" fill="#EE3D3A" d="M659.1,617.2c2.4-0.7,2.9-3,4.1-4.7c4.2,2.2,4.3,2.8,0.6,8.9l-0.1-0.1
	c-2.1,0.9-3.9,0.5-5.4-1.4C658.6,619,658.9,618.1,659.1,617.2z"/>
<path id="XMLID_400_" fill="#EE3D3A" d="M658.4,619.9c1.8,0.5,3.6,0.9,5.4,1.4c-0.5,1.7-1,3.5-1.5,5.2
	C656.3,627,657.4,623.5,658.4,619.9z"/>
<path id="XMLID_399_" fill="#EE3D3A" d="M659.1,605.9c-0.7,3.1-1.4,6.2-2.2,9.3c-0.5,0.8-1.1,1.6-1.6,2.4c0.1-4.2,1.2-8.1,2.8-11.9
	C658.5,605.6,658.8,605.7,659.1,605.9z"/>
<path id="XMLID_398_" fill="#EE3D3A" d="M661.1,630.6c-0.7,2.7-1.4,5.4-2.1,8.1C658,635.5,658.7,632.8,661.1,630.6z"/>
<path id="XMLID_8815_" fill="#EE3D3A" d="M627.7,861c-1.1,0.5-2.1,1-3.2,1.5c-2.5-6.1,1.5-10.9,3.9-15.6c2-3.8,3.6-7.6,4.8-11.7
	c2.9-4.9,2.5-11,5.5-15.9l0,0c2.5-1.4,2.8-3.3,1.5-5.7c0.2-0.9,0.4-1.8,0.6-2.8c0.7-6.5,3-12.6,4.6-18.9c5.7-1,5.8-0.8,4,6.7
	c-0.6,2.7-1.8,5.3-1.7,8.2c0.1,1.5-0.1,3,0.4,4.5c0.4,1.1,0.9,2.1,1,3.3c0.8,0.7,1.6,1.4,2.4,2.1c1.9,5.1,8.7,4.9,10.7,9.9
	c-0.1,3.5-0.2,7-5,7.3c-2.8-1.1-2.2-4.6-4.7-6.2c-0.2,2.3,0.1,4.8-1.9,6.5c-0.9,0.7-1.8,0.8-2.8,0.5c-0.9-0.3-1.7-0.8-2.4-1.4
	c-0.9-0.6-1.9-1-3-0.4c-1.5,1.2-1.9,3.1-3.1,4.5c-2.2,4.8-2.7,10-4,15C634.1,856.9,632.1,859.9,627.7,861z"/>
<path id="XMLID_397_" fill="#EE3D3A" d="M681,631.6c1-0.2,2-0.5,3-0.7c1.9-1.2,4-1.9,6.3-1.2c2.8,0.9,4.6-0.7,6-2.9l0,0.1
	c1.4-0.8,2.7-2,4.4-1c3.6,2.2,7.6,3,11.7,3.5c2.2,0.3,3.2,1.5,2.5,3.8c-0.6,1.6,0.4,3.7-1.6,4.9c-4.9,2.8-5.5,8-5,12.5
	c0.6,5-1.9,4.3-4.8,3.9c-0.3-0.6-0.7-1.2-0.9-1.8c-3.7-9.6-3.7-9.6,2.2-17.5c-1.5-1.5-2.8-0.2-3.3,0.8c-4.1,6.8-10.7,6-17.1,6
	c-3.4,0-5.7-2-6.9-4.9C675.9,633.7,679.3,633.1,681,631.6z"/>
<path id="XMLID_396_" fill="#EE3D3A" d="M681,631.6c1,2.2-4.1,2.8-1.2,6.1c2.5,2.9,4.9,1.6,7.5,2.1c6.9,1.3,10.4-1.7,13.6-6.8
	c1.9-2.9,4.5-1.7,6.5,0.1c2.1,1.9,1.1,4-1,5c-6,2.7-6.5,6.3-2.7,11.2c1.2,1.6,0.2,3.5-0.2,5.3c-6.6-4.7-12.3-11.2-22.1-9.2
	c-2,0.4-4.8-4.4-8.5-4.6c-1.4-1.2-0.9-3.4-2.4-4.5c-0.6-0.7-1-1.4-1.5-2.2C672.5,630.6,677,632.3,681,631.6z"/>
<path id="XMLID_395_" fill="#EE3D3A" d="M697,744.3c-0.5,1.9-1,3.8-3.7,3.3c-0.8-1.6-0.4-2.9,1-4c5.6-13.9,3-29.5,8.6-43.4
	c3.1-1.4,1.6-5.9,4.8-7.3c5.1-1.7,6.4,0,4.5,4.9c-0.6,1.5-0.8,3-1.2,4.6C708.8,717.1,699.1,729.4,697,744.3z"/>
<path id="XMLID_394_" fill="#EE3D3A" d="M694.3,743.6c-0.3,1.3-0.7,2.7-1,4c-4.6,17.3-9.2,34.7-13.7,52c-0.8,2.3-2.3,3.3-4.7,2.4
	c-2-0.8-2.4-2.7-2.3-4.5c0.3-4.3,1.5-8.4,2.9-12.5c1-3.3,1.8-6.6,2.7-10c0.7-2.3,1.1-4.6,1-7c0.9-3.1-3.2-2.8-3.5-5.1
	c0.4-0.3,0.8-0.8,1.1-0.8c9.3,1.3,9,1.2,11.9-8.1C690,750.4,688.3,744.8,694.3,743.6z"/>
<path id="XMLID_8810_" fill="#EE3D3A" d="M647.1,799.3c-1.1-2.5,5.5-6-1-7.8c-0.6,0.6-1,0.5-1.2-0.3c0-2.5,1.9-4.9,0.3-7.5
	c0.5-0.9,0.9-1.9,1.4-2.8c0.9-3.1,1.9-6.1,2.4-9.3c0.2-1,0.5-2.1,0.7-3.1c3.3,2.4,0.8,5.2,0.4,7.8c-0.6,3.9-2.7,7.5-2.2,13
	c3.9-4.1,3.6-8.6,5-12.3c1.1-2.8,0.4-7.3,5.9-6c5.9,1.5,2.9,5.4,2.4,8.6c-1,5.9-7.2,9.5-7.3,15.9c-0.8,0.6-1.7,1.3-2.5,1.9
	c-1,0.9-1.7,2.2-3,2.8C647.9,800.1,647.4,799.9,647.1,799.3z"/>
<path id="XMLID_8809_" fill="#EE3D3A" d="M661.1,825.4c-4.6-1.3-10.3-1.3-9.7-8.6c6.5-1.8,3.9-8.3,6.3-12.2c1.8-2.9-0.3-8.2,5.4-8.7
	c1.4-0.6,2.4-0.2,3.2,1c1.4,4.2-0.5,8-1.4,11.9c-1.1,4.4-2.3,8.8-2,13.4C662.8,823.6,662.3,824.7,661.1,825.4z"/>
<path id="XMLID_8808_" fill="#EE3D3A" d="M667,780.5c6.6-4.3,10.3-10.7,11.6-18.7c2.4,3.2,0.4,5.7,0.2,8.3c1.1,2,1.3,4.2,1.5,6.5
	c0.3,2.8,0.3,5.5-1.2,8.1c-3.8,11.8-7.4,23.6-9.2,35.9c-0.1,1.7-0.4,3.3-1.2,4.9c-0.4,0.7-1,1.3-1.8,1.8c-1.3,0.3-2.5,0-3.3-1.1
	c-0.5-1.1-0.4-2.3-0.3-3.5c1.3-10.8,5.3-20.9,7.5-31.4c0.5-2.5,2.8-5.5-1-7.5C668.2,783.2,667.4,782.1,667,780.5z"/>
<path id="XMLID_8807_" fill="#EE3D3A" d="M650.9,795.8c0.9-0.9,2-0.8,3.1-0.5c2.3,7.5,0.5,14-5,19.4c-0.8-0.8-1.6-1.6-2.4-2.3
	C646.3,806.5,647.8,800.9,650.9,795.8z"/>
<path id="XMLID_8806_" fill="#EE3D3A" d="M695.7,762.5c3.4,1.5,1.8,4.1,1.3,6.4c-0.6,0.3-1.2,0.4-1.8,0.2c-2.6-1.4-4-0.1-5.1,2.1
	c-1.7,2.3-1.6,5.9-4.8,7.1c-1.3,0.1-2.4-0.4-3-1.6c-1-3.3,0.3-5.9,2.8-8C686.4,763,690,760.9,695.7,762.5z"/>
<path id="XMLID_393_" fill="#EE3D3A" d="M714.9,633.3c-5.5-4.2-12.3-4.5-18.6-6.4c0.4-0.8,0.8-1.7,1.3-2.4c1.1-1.3,2.8-1.4,3.6-0.3
	c3.8,5.4,13.5-0.8,15.6,7.8C716.2,632.5,715.5,632.9,714.9,633.3z"/>
<path id="XMLID_392_" fill="#EE3D3A" d="M716.3,649.4c0.6,0.1,1.2,0.2,1.8,0.3c2.2,0.3,3,2,3.8,3.7c0.6,2,1.6,4,0.7,6.2
	c-1.4,1.4-3.1,1.9-5,2.1c-0.7-0.1-1.1-0.4-1.3-1.1c-1.1-3.5-2.2-7-3.3-10.5c0,0,0.4-0.2,0.4-0.2
	C714.3,649.3,715.1,648.1,716.3,649.4z"/>
<path id="XMLID_391_" fill="#EE3D3A" d="M647.4,731.1c3-11.1,6-22.1,9.1-33.2c0.6-0.6,1-0.5,1.3,0.3c-2.4,9.1-4.7,18.2-7.2,27.3
	C649.9,727.5,650.1,730.2,647.4,731.1z"/>
<path id="XMLID_390_" fill="#EE3D3A" d="M716.3,660.7c0.3,0.2,0.6,0.5,1,0.7c1.8,1.1,2.4,3,3.1,4.8c1,3.8,0.9,7.6,0.1,11.4
	c-0.1,0.5-0.2,0.9-0.4,1.4c-0.5-0.1-0.9-0.2-1.4-0.3c-3.5-2.4-3.8-5.5-1.9-9.1C716.8,666.6,714.2,663.7,716.3,660.7z"/>
<path id="XMLID_8801_" fill="#EE3D3A" d="M667,780.5c0.8,0.7,1.6,1.4,2.4,2.2c2,5.5,0.8,10.2-3.7,14c-0.9-0.3-1.8-0.5-2.7-0.8
	c0.2-0.9,0.4-1.9,0.6-2.8c-0.4-4.1-0.5-8.1,2.9-11.2C666.7,781.4,666.9,781,667,780.5z"/>
<path id="XMLID_8800_" fill="#EE3D3A" d="M685.1,768.8c-0.7,2.8-1.4,5.6-2.1,8.4c-1.8,0.9-3.2,0.4-4.4-1.1c-1.5-2-0.2-4,0.2-6
	C680.9,769.7,683,769.3,685.1,768.8z"/>
<path id="XMLID_389_" fill="#EE3D3A" d="M707.7,692.8c-1.6,2.5,0.3,7.2-4.8,7.3c0.8-2.8,1.1-6,2.5-8.4
	C707,689,707.7,690.9,707.7,692.8z"/>
<path id="XMLID_8798_" fill="#EE3D3A" d="M666.6,781.9c-1,3.7-1.9,7.5-2.9,11.2C662.4,788.8,659.3,784,666.6,781.9z"/>
<path id="XMLID_388_" fill="#EE3D3A" d="M716.7,669.6c-0.1,3.2,0.3,6.2,1.9,9.1c-0.1,0.2-0.1,0.6-0.3,0.6c-4.2,1.1-3.1-2.7-3.5-4.4
	C714.5,673.1,711.5,669.7,716.7,669.6z"/>
<path id="XMLID_387_" fill="#EE3D3A" d="M663.4,667c0.6-2.7,1.2-5.3,1.7-8c-0.3-1.2-0.2-2.2,1-2.9c0.8,3.8,1,7.7-0.4,11.3
	C664.6,670.6,664.2,667.3,663.4,667z"/>
<path id="XMLID_386_" fill="#EE3D3A" d="M671.6,634.8c3.4,1.4,1.6,3.9,1.3,6c-1,1.2-1.9,2.3-3,3.6c-1-1.6,0.2-2.9,0.3-4.3
	C669.2,638,669.7,636.2,671.6,634.8z"/>
<path id="XMLID_385_" fill="#EE3D3A" d="M718.3,695.7c-0.7,2.7-1.4,5.3-2.1,8c-0.9-0.2-1.8-0.5-2.6-0.7
	C715.1,700.5,713.3,695.9,718.3,695.7z"/>
<path id="XMLID_384_" fill="#EE3D3A" d="M671.6,634.8c-0.5,1.8-0.9,3.6-1.4,5.3c-0.9-0.2-1.7-0.5-2.6-0.7c0.5-1.8,0.9-3.5,1.4-5.3
	C669.9,634.3,670.7,634.6,671.6,634.8z"/>
<path id="XMLID_383_" fill="#EE3D3A" d="M657.7,698.2c-0.4-0.1-0.8-0.2-1.3-0.3c0.8-3.1,1.6-6.2,2.4-9.2
	C660.6,692.1,658.1,695,657.7,698.2z"/>
<path id="XMLID_382_" fill="#EE3D3A" d="M666.1,656.2c-0.3,1-0.7,1.9-1,2.9c-0.8-2-0.3-3.9,0.3-5.9c0.2-0.4,0.4-0.7,0.6-1.1
	C667.8,653.4,665.8,654.9,666.1,656.2z"/>
<path id="XMLID_8790_" fill="#EE3D3A" d="M649,771.5c0.5,3.4-0.4,6.5-2.4,9.3c0.4-2.3,0.8-4.6,1.2-6.8
	C648.2,773.1,648.6,772.3,649,771.5z"/>
<path id="XMLID_381_" fill="#EE3D3A" d="M735.2,678.8c1.2,1.7,2.3,3.5,3.5,5.2c1.3,3,8.1,4,3.3,9.2l-0.2,0.1c-2.9,1-4.5,3.8-7,5.2
	c-0.8-0.3-1.7-0.5-2.5-0.8c0.5-2,0.7-3.9-1.7-4.8C735.5,689.5,735.2,684.1,735.2,678.8z"/>
<path id="XMLID_380_" fill="#EE3D3A" d="M736.8,670.1c-0.6,1.9-1.2,3.9-1.8,5.8c-0.8-0.7-1.7-1.4-2.5-2.1c-0.3-0.7-0.4-1.3-0.4-2.1
	c0.5-2.3,1.2-4.3,4.2-3.4C736.9,668.8,737.1,669.4,736.8,670.1z"/>
<path id="XMLID_379_" fill="#EE3D3A" d="M729.8,684.5c0.5-1.4,0.9-2.7,1.8-5.3C732.7,682.6,733.7,684.7,729.8,684.5
	C729.8,684.5,729.8,684.5,729.8,684.5z"/>
<path id="XMLID_378_" fill="#EE3D3A" d="M733,672.5c-0.2,0.5-0.4,0.9-0.6,1.4c-0.7,0.3-1.5,0.5-2.2,0.8c0.1-1.4,0.3-2.8,0.4-4.2
	c0,0,0.5-0.3,0.5-0.3C732.6,670.3,732.6,671.5,733,672.5z"/>
<path id="XMLID_377_" fill="#EE3D3A" d="M734.7,698.6c0.8-3.8,1.6-7.7,7-5.2c-0.6,2.7-1.3,5.3-1.9,8
	C736.4,704.3,736.3,704.2,734.7,698.6z"/>
<path id="XMLID_376_" fill="#EE3D3A" d="M741.9,693.2c3-4.5-3.4-5.7-3.3-9.2c1.4,2.5,9.1,0,5.4,6.6
	C743.3,691.6,742.6,692.4,741.9,693.2z"/>
<path id="XMLID_8707_" fill="#EE3D3A" d="M689.9,875.2c-4.5-2.9-0.4-6.1-0.3-9.2C693.9,868.9,689.9,872.1,689.9,875.2z"/>
<path id="XMLID_8706_" fill="#EE3D3A" d="M688.8,879.2c0.2-0.5,0.4-1,0.7-1.5c1.9,0.5,3.5,1.3,4.8,2.8c-0.1,0.5-0.2,1-0.2,1.5
	c-1.4,0.8-2.8,0.8-4.2,0C688.8,881.3,688.2,880.4,688.8,879.2z"/>
<path id="XMLID_8704_" fill="#EE3D3A" d="M688.8,879.2c0.3,0.6,0.7,1.3,1,1.9c2.2,1.8,2.6,3.7,0.5,5.8c-2-0.5-3.9-1-5.9-1.4
	c0,0-0.3-0.3-0.3-0.3c0.1-0.3,0.2-0.5,0.3-0.8c0.4-1.5,0.8-3,1.2-4.5c0.3-1,0.6-2,1-3C687.3,877.6,688.1,878.4,688.8,879.2z"/>
<path id="XMLID_8703_" fill="#EE3D3A" d="M690.3,886.8c-0.2-1.9-0.3-3.9-0.5-5.8c1.4,0.3,2.8,0.6,4.2,0.9
	C693.4,884.1,695.9,888.6,690.3,886.8z"/>
<path id="XMLID_375_" fill="#EE3D3A" d="M744.4,666.9c0.4,0.6,0.7,1.1,1.1,1.7c0.2,2.9,0.3,5.8,0.5,8.6c-0.3,0-0.5-0.1-0.8,0
	c-1.3,0.8-2.3,0.1-3.3-0.6c-1.4-1.1-3.7-1.3-3.2-3.9c-0.4-1.2-0.3-2.2,1-2.8C742.4,670.7,742.6,667.5,744.4,666.9z"/>
<path id="XMLID_374_" fill="#EE3D3A" d="M739.6,669.8c-0.3,0.9-0.6,1.9-1,2.8c-0.6-0.8-1.3-1.7-1.9-2.5c0.1-0.3,0.1-0.6,0-0.8
	c-0.4-1.1-2.5-2.3,0.3-3C738.8,666.8,739.8,667.9,739.6,669.8z"/>
<path id="XMLID_373_" fill="#EE3D3A" d="M741.4,666.5c1.1,0.2,2.3,0.4,3.4,0.6c0.5,1.6,0.6,3.1-0.7,4.6
	C741.8,670.7,742.3,668.2,741.4,666.5z"/>
<path id="XMLID_372_" fill="#EE3D3A" d="M731.3,667.8c1-3.6,1.7-7.4,3.1-10.9c1.1-2.7,1.5,0.4,2.3,0.7c-0.5,2.2-1,4.5-1.5,6.7
	C734.9,666.7,734.4,668.7,731.3,667.8L731.3,667.8z"/>
<path id="XMLID_371_" fill="#EE3D3A" d="M731.3,667.8c1.3-1.1,2.6-2.3,3.9-3.4c0.6,0.6,1.3,1.3,1.9,1.9c-1.4,0.9,0.2,2.1-0.3,3
	c-2.9-0.9-3.1,1.4-3.8,3.2c-0.6-0.8-1.2-1.5-1.8-2.3C731.2,669.4,731.3,668.6,731.3,667.8z"/>
<path id="XMLID_8659_" fill="#EE3D3A" d="M634.3,836.3c-0.2,7.8-7.2,12.6-8.6,20c-0.4,2.1-0.8,4.2-1.2,6.2c-0.7,0.8-1.4,1.5-2.2,2.3
	c-0.2-1.5-1.3-2.1-2.6-2.4c3.3-9.2,9.2-17.3,11.7-26.9c0.7-1,1.4-1.9,2.1-2.9C634.7,833.7,633.5,835.2,634.3,836.3z"/>
<path id="XMLID_8658_" fill="#EE3D3A" d="M644.9,791.1c0.4,0.1,0.8,0.2,1.2,0.3c-1.8,6.5-3.6,13-5.4,19.5
	C640.8,804.1,643.2,797.7,644.9,791.1z"/>
<path id="XMLID_8657_" fill="#EE3D3A" d="M634.3,836.3c-1.1-1-0.8-2.3-0.7-3.6c1.6-4.5,2.1-9.4,5.1-13.3
	C637.2,825,635.8,830.6,634.3,836.3z"/>
<path id="XMLID_8656_" fill="#EE3D3A" d="M640.2,813.7c1.7,0.8,2.6,2,1.9,4c-0.6,1.7-1.9,2-3.4,1.7
	C639.2,817.5,639.7,815.6,640.2,813.7z"/>
<path id="XMLID_370_" fill="#EE3D3A" d="M720.7,654c-0.9-1.4-1.7-2.8-2.6-4.2c0-6,5.4-5.4,8.8-7.2c7.2,1.3,4,6.6,4.2,10.6
	c-0.5-0.1-0.9-0.2-1.4-0.3c-1.4-0.9-1.8-2.8-3.3-3.6c-2.8-1-2.5,1.8-3.6,2.9C722.3,653.1,721.7,653.7,720.7,654z"/>
<path id="XMLID_369_" fill="#EE3D3A" d="M696.3,626.8c1.1,3.9,1.8,7.2-4.4,4.9c-2.4-0.9-5.3-0.6-7.9-0.8c0.2-0.8,0.4-1.6,0.6-2.3
	c0.7-0.3,1.5-0.7,2.2-1c1.8,0.1,3.6,1.2,5.4-0.2C693.5,627.2,694.9,627,696.3,626.8z"/>
<path id="XMLID_368_" fill="#EE3D3A" d="M716.3,649.4c-1,0.2-1.9,0.4-2.9,0.6c0.6-2.2,1.2-4.5,1.9-7.1
	C718.3,645.3,716.5,647.4,716.3,649.4z"/>
<path id="XMLID_8346_" fill="#EE3D3A" d="M676.1,870.9c0.9,0.3,1.8,0.6,2.7,0.9c-4.7,3.8-10.7-1.5-15.4,2.1c-0.4-0.6-0.5-1.3-0.4-2
	c0.2-0.7,0.6-1.3,1.1-1.8c1.8-1.3,3.9-1.9,6.2-1.9C672.6,868.3,674.6,869,676.1,870.9z"/>
<path id="XMLID_8345_" fill="#EE3D3A" d="M663.6,872.1c-0.1,0.6-0.1,1.2-0.2,1.8c-0.9,2.1-0.7,5.2-4.3,4.9c0,0-0.3-0.5-0.3-0.5
	c-1-2-0.6-3.9,0.6-5.7C660.7,871.4,662,870.9,663.6,872.1z"/>
<path id="XMLID_8344_" fill="#EE3D3A" d="M629.7,865c1.4-1.6,2.8-3.2,4.2-4.8c0.3-0.2,0.5-0.3,0.8-0.5c0.9-0.3,1.8-0.3,2.8-0.2
	c0.6,0.1,1.2,0.2,1.8,0.3c0.6,0.1,1.2,0.3,1.9,0.4c1.6,0.4,3.1,0.8,4.7,1.4c0.9,0.4,1.7,1,2.4,1.8c0.3,0.6,0.4,1.2,0.3,1.9
	c-4.1,1.4,0.7,2.9-0.1,4.4c-0.5,1-1.3,1.4-2.3,1.4c-4.4-3.9-9.7-4.7-15.4-4.5C630.2,866.1,629.8,865.7,629.7,865z"/>
<path id="XMLID_8343_" fill="#EE3D3A" d="M629.7,865c0.4,0.5,0.7,1,1.1,1.5c-1.2,0.8-2.4,1.6-3.6,2.3c-0.4-0.1-0.9-0.2-1.3-0.3
	C626.3,866.4,627,864.5,629.7,865z"/>
<path id="XMLID_8342_" fill="#EE3D3A" d="M646.1,871c0.6-0.4,1.2-0.8,1.8-1.2c3.5,2,1.1,4,0,6c-0.7-0.2-1.3-0.5-2-0.7
	C646,873.7,646.1,872.3,646.1,871z"/>
<path id="XMLID_8341_" fill="#EE3D3A" d="M627.7,861c6.4-5.1,6.3-12.8,7.9-19.8c0.5-2.4,0.2-4.7,3.2-5.4c1.4,8.9-1.2,16.7-6,24.1
	C631.1,860.3,629.4,860.7,627.7,861z"/>
<path id="XMLID_8340_" fill="#EE3D3A" d="M632.8,859.9c2-8,4-16,6-24.1c0.8-1.8,0.6-4.2,2.9-5c1.8,2.6,0.8,5.3,0.1,7.9
	c-2.8,7.1-2,15.5-7.8,21.4c0,0-0.1-0.1-0.1-0.1C633.6,860.1,633.2,860,632.8,859.9z"/>
<path id="XMLID_8339_" fill="#EE3D3A" d="M648,875.8c0.3-2,1.6-4,0-6c-0.2-1.5-4.4-2.8-0.3-4.6c1-0.5,2.1-0.4,3.1,0.1
	c0.9,0.6,1.6,1.5,2.1,2.5c1.2,3.1,2.6,6.2-0.4,9.1c-0.6-0.1-1.2-0.2-1.7-0.3C651,872,648.7,876.6,648,875.8z"/>
<path id="XMLID_8338_" fill="#EE3D3A" d="M660.5,873.2c-0.6,1.7-1.1,3.5-1.7,5.2c-1.8-0.5-3.5-1.1-5.3-1.6c-0.4-2.1-0.2-4.1,1.5-5.7
	C657.4,870.5,659.2,871.1,660.5,873.2z"/>
<path id="XMLID_8337_" fill="#EE3D3A" d="M654.9,871.7c-0.5,1.7-0.9,3.4-1.4,5.1c-0.4,0.1-0.8,0.1-1.1,0c0.7-3.1-0.4-6-0.9-9
	c1.6-0.9,3.1-0.6,4.3,0.7C656.3,869.8,656,870.9,654.9,871.7z"/>
<path id="XMLID_8144_" fill="#EE3D3A" d="M694,780.1c-1,3.9-2.1,7.8-3,11.7c-0.4,1.7-1.7,3.8,0.5,5.2c1.8,1.1,2.9-1,4.5-1.4
	c2.9,1.2,1.3,6.5,5.7,6.3c-1.1,0.6-2.2,1.2-3.2,1.8c-3.6,3.6-3.6,8.7-4.8,13.2c-3,10.8-5.7,21.7-8.5,32.5c-1-0.2-2-0.5-3.1-0.7
	c2-7.5,3.9-14.9,5.9-22.4c-1.3-4.8,0.1-9.4,1.6-13.7c1.3-3.8-1.2-3-3.1-3.2c-1.5-0.4-2.7-1.3-3.1-2.7c-2.2-6.4-2.6-13.2-2.1-19.8
	c0.3-4,2.2-8,7.1-9c1.5-0.4,3-0.2,4.4,0.5C693.1,778.9,693.6,779.5,694,780.1z"/>
<path id="XMLID_8143_" fill="#EE3D3A" d="M686.7,808.2c3.2,1,3.1-3.2,7.1-4c-2.1,7.9-4,15.1-5.9,22.3c-4.2-1.5-0.1-6.7-3.7-8.5
	c-0.5-0.6-0.8-1.3-0.9-2c-0.1-1.9,0.3-3.7,1.1-5.4C684.9,809.5,685.7,808.8,686.7,808.2z"/>
<path id="XMLID_8142_" fill="#EE3D3A" d="M676.1,870.9c-2.3-0.4-4.6-0.8-6.9-1.3c-3.9-1.3-2.4-4.1-1.2-6.1c1.9-3,3-6.5,5.6-9
	c0.8-0.5,1.5-0.5,2.2,0.2C677.2,860.1,677.9,865.5,676.1,870.9z"/>
<path id="XMLID_8141_" fill="#EE3D3A" d="M684.3,816.7c-0.1,0.4-0.2,0.8-0.2,1.3c-2.6,9.8-5.2,19.6-7.7,29.4c1,2.3,0.6,4.3-1.5,5.8
	c-2.3-0.5-2.3-2.4-2.5-4.1c1.6-10,4.6-19.6,7.4-29.3c0.5-1.2,1.2-2.3,2.2-3.2C682.9,815.9,683.6,816,684.3,816.7z"/>
<path id="XMLID_8140_" fill="#EE3D3A" d="M674.8,852.8c0.5-1.8,1.1-3.6,1.6-5.4c4.5,2.8,1,5-0.5,7.4c-0.4-0.1-0.9-0.3-1.3-0.4
	c-0.3-0.4-0.3-0.8-0.2-1.1C674.5,852.9,674.7,852.7,674.8,852.8z"/>
<path id="XMLID_367_" fill="#EE3D3A" d="M720.7,654c0.3-1,0.7-2.1,1-3.1c2.3-0.5,4.1-2.1,6.4-2.7c1.5,1.2,2.1,2.8,1.7,4.7
	c-2.2,3.2,0.6,9.3-5.8,10c-1.4,0.1-2.1-0.7-2.5-1.9c-0.1-0.6,0.2-1.1,0.6-1.5C721.5,657.7,721.1,655.8,720.7,654z"/>
<path id="XMLID_366_" fill="#EE3D3A" d="M720.3,677.5c-0.5-3.7-1-7.5-1.6-11.2c-0.4-1.5,0.6-2,1.8-2.3c1.2,0,2.2,0.6,2.8,1.6
	c0.5,1.9,0.9,3.9,1.4,5.8c0.4,2.1,0,3.9-1.5,5.5l0,0C722.2,676.7,721.2,676.7,720.3,677.5z"/>
<path id="XMLID_365_" fill="#EE3D3A" d="M723.3,677c0.5-1.8,1-3.7,1.5-5.5c0.3,2,0.7,4.1,1,6.1C725,677.4,724.1,677.2,723.3,677z"/>
<path id="XMLID_364_" fill="#EE3D3A" d="M723.4,665.7c-0.9-0.3-1.8-0.5-2.7-0.8c-0.8-1.9-0.4-3.3,1.4-4.3c0.6,0.8,1.1,1.5,1.7,2.3
	C723.7,663.8,723.6,664.7,723.4,665.7z"/>
<path id="XMLID_363_" fill="#EE3D3A" d="M663.9,621.4c-0.3-3,3.6-6.2-0.6-8.9c0.5-1.8,1-3.6,1.5-5.4c2.2-2.1,1.1-5.6,3.4-7.6
	c-1.7,7.4,1.3,15.2-1.7,22.5C665.6,621.8,664.7,621.6,663.9,621.4z"/>
<path id="XMLID_362_" fill="#EE3D3A" d="M668.1,599.5c-1.1,2.5-0.4,5.9-3.4,7.6c0.4-1.7,0.8-3.5,1.2-5.2c0.6-1.3,0.6-3,2.3-3.5
	C668.3,598.8,668.2,599.1,668.1,599.5z"/>
<path id="XMLID_361_" fill="#EE3D3A" d="M656.2,650.6c0.7-2.7,1.4-5.3,2.1-8c1.5,2.9,1.2,5.8,0.4,8.8
	C657.6,651.9,656.8,651.7,656.2,650.6z"/>
<path id="XMLID_360_" fill="#EE3D3A" d="M656.2,650.6c0.8,0.3,1.7,0.5,2.5,0.8c0.1,0.5,0.2,1.1,0.3,1.6c-0.6,1.2-1.2,2.4-1.8,3.7
	c-0.6-1.1-1.3-2.3-1.9-3.4C655.6,652.4,655.9,651.5,656.2,650.6z"/>
<path id="XMLID_359_" fill="#EE3D3A" d="M667,630.7c-0.7,2.7-1.4,5.3-2.2,8C663.7,635.5,664.3,632.8,667,630.7z"/>
<path id="XMLID_8011_" fill="#EE3D3A" d="M664.7,823.3c-0.2,1-0.5,1.9-0.7,2.9c2.3,3.8-1.2,8,0.8,11.8c0.2,1.9-0.1,3.7-1.3,5.2
	c-0.5,0.5-1.1,0.8-1.8,1c-2.6-0.1-4.4-2.7-7.1-2.4c-1.3-0.1-2.6-0.1-3.5-1.1c-0.4-0.9-0.4-1.8,0-2.7c0.9-1.2,2.2-2,2.9-3.3
	c0.6-0.7,1.2-1.3,2.1-1.6c5.3-0.2,3.4-5,4.9-7.7c0.2-0.7,0.5-1.5,0.7-2.2C662.8,821.9,663.7,822.2,664.7,823.3z"/>
<path id="XMLID_8010_" fill="#EE3D3A" d="M640,837.7c0.6-2.3,1.1-4.6,1.7-6.9c1.8-1.3,3.3-1,4.3,1c0.3,10.6-1.9,20.5-7.7,29.4
	c-0.5-0.1-1-0.2-1.5-0.3c-1.6-4.5,1.2-8.4,1.8-12.6C639.2,844.8,641.4,841.5,640,837.7z"/>
<path id="XMLID_8009_" fill="#EE3D3A" d="M656.2,833.1c-0.3,0.9-0.5,1.8-0.8,2.7c-2.2-1-2.1,1.7-3.5,2.2c-0.2,0.9-0.5,1.8-0.7,2.8
	c-0.4,0.1-0.7,0.2-1.1,0.4c-1.2-0.1-2.1-0.6-2.5-1.9c-0.4-2.1,0.4-3.7,2.2-4.8c0.3-1.1,0.2-2.8,1-3.3c2.2-1.3-3-5.2,1.7-4.9
	C657,826.4,657.5,829.4,656.2,833.1z"/>
<path id="XMLID_8008_" fill="#EE3D3A" d="M638.3,861.2c2.6-9.8,5.2-19.6,7.7-29.4c0.3,0.6,0.7,1.2,1,1.9c1,2.1,0.2,4.2-0.1,6.3
	c0,5.7-2.3,10.8-3.8,16.2c-0.5,2.2-1.3,4.2-3.3,5.4C639.4,861.4,638.9,861.3,638.3,861.2z"/>
<path id="XMLID_8007_" fill="#EE3D3A" d="M650.9,795.8c-1.5,5.5-2.9,11.1-4.4,16.6c-1.2-1.4-0.6-3-0.4-4.6c-0.1-3,0.6-5.7,2.1-8.2
	C648.9,798.2,649.2,796.5,650.9,795.8z"/>
<path id="XMLID_8006_" fill="#EE3D3A" d="M645.7,839.3c0.5-1.9,0.9-3.8,1.4-5.6c0.9,0.2,1.8,0.5,2.7,0.7c-0.5,1.9-1,3.7-1.4,5.6
	C647.3,840.5,646.4,840.4,645.7,839.3z"/>
<path id="XMLID_8005_" fill="#EE3D3A" d="M648.3,799.6c-0.7,2.7-1.4,5.5-2.1,8.2c-1.6-3.1,0.5-5.7,1-8.5
	C647.5,799.4,647.9,799.5,648.3,799.6z"/>
<path id="XMLID_8004_" fill="#EE3D3A" d="M694,780.1c-0.6-0.2-1.1-0.5-1.7-0.7c-1.4-4.3-0.6-8,3.3-10.7c0.5,0,0.9,0.1,1.4,0.2
	C696,772.7,695,776.4,694,780.1z"/>
<path id="XMLID_8003_" fill="#EE3D3A" d="M664.7,823.3c-1,0-1.9-0.1-2.9-0.1c-2.6-3-1.2-6.2-0.4-9.4c1.5-5.7,2.9-11.4,4.4-17.1
	c1.2-4.7,2.4-9.3,3.7-14c1.3-1.6,2.9-2.8,4.9-1.5c1.8,1.2,1,3.1,0.6,4.6C671.5,798.3,668.1,810.8,664.7,823.3z"/>
<path id="XMLID_8002_" fill="#EE3D3A" d="M686.7,808.2c-0.3,0.9-0.5,1.9-0.8,2.8c-2,2.1-5.9-0.8-7.3,2.8c-1.7,4.3-2.3,9.3-7.2,11.7
	c-1.4,0.7-2.9,1.2-4.3,0c0.3-1.5,0.7-2.9,1-4.4c0.9-8.7,4.2-16.9,6.1-25.4c2.8-3.2,4.4-6.9,4.1-11.3c-0.1-0.3-0.1-0.6-0.1-0.9
	c0.1-2.5,0.3-4.9,0.4-7.4c1.5,0.4,2.9,0.7,4.4,1.1c0.9,0.2,1.9,0.4,2.8,0.7c0.5-0.3,1.1-0.4,1.6-0.2c0.5,0.3,0.8,0.8,0.9,1.4
	c-4.4,3.5-7.1,7.3-5.1,13.5C684.9,797.5,682.1,803.7,686.7,808.2z"/>
<path id="XMLID_8001_" fill="#EE3D3A" d="M667.1,825.5c1-0.2,2.1-0.4,3.1-0.7c2.7,6.3-1.8,11.7-2.3,17.6c-1,4.4,1.6,9-0.8,13.4
	c-4.2,5.3-4.8,5.2-8.7-1.3c-0.2-4.1,0.2-8,3.8-10.8c0.5-1.9,1-3.7,1.6-5.6c-1-4.3,0-8,3-11.3C666.9,826.4,667,825.9,667.1,825.5z"/>
<path id="XMLID_8000_" fill="#EE3D3A" d="M675.7,793.4c-2.5,9.2-5,18.4-7.5,27.7c1.3-13.1,4.3-25.7,10-37.6l0,0
	C679.4,787.3,678.4,790.6,675.7,793.4z"/>
<path id="XMLID_7999_" fill="#EE3D3A" d="M666.7,826.8c-1,3.8-2,7.5-3,11.3c-4.8-4,0.2-7.9,0.2-11.9
	C664.9,826.4,665.8,826.6,666.7,826.8z"/>
<path id="XMLID_7998_" fill="#EE3D3A" d="M649.5,808.7c0.7-2.6,1.4-5.3,2.1-7.9c0.2,0,0.4,0.1,0.6,0.1c-0.7,2.6-1.4,5.3-2.1,7.9
	C649.9,808.8,649.7,808.7,649.5,808.7z"/>
<path id="XMLID_7997_" fill="#EE3D3A" d="M688.4,779c-0.4-0.3-0.8-0.6-1.2-0.8c-0.8-3,0.8-5.5,1.5-8.2c1-1.7,0.8-4.5,3.5-4.8
	c2.5-0.3,3,1.8,3.5,3.6c-1.1,3.6-2.2,7.1-3.3,10.7C691,779.3,689.7,779.1,688.4,779z"/>
<path id="XMLID_7996_" fill="#EE3D3A" d="M688.7,770c-0.5,2.7-1,5.5-1.5,8.2c0,0-0.7-0.1-0.7-0.1s-0.7-0.2-0.7-0.2
	C686.6,775.2,686.6,772.2,688.7,770z"/>
<path id="XMLID_358_" fill="#EE3D3A" d="M722.2,660.6c-0.5,1.4-1,2.9-1.4,4.3c-0.7,0.5-1.3,0.9-2,1.4c-0.9-1.5-2-3-1.6-4.9
	c1.3-1.5,2.7-2.3,4.8-1.8C722.2,659.9,722.3,660.2,722.2,660.6z"/>
<path id="XMLID_357_" fill="#EE3D3A" d="M728,648.2c-1.4,2.5-2.4,6.1-6.4,2.7C722.5,646.9,723.7,643.8,728,648.2z"/>
<path id="XMLID_7669_" fill="#EE3D3A" d="M665.4,854.9c2.5-4-1-8,0.1-11.9c1.6-0.4,2.4,0.6,3.3,1.6c1.2,2.3,3.3,3.5,5.4,4.9
	c-0.2,1.1-0.4,2.3,0.5,3.3c-0.1,0.5-0.2,1-0.2,1.6c-1.4,3.6-1,7.9-5.1,10.4c-1.6,1-1.7,3.2-0.2,5c-1.7,0.4-3.4,0.9-5.2,1.3
	c-2.5-2-4.2-4.7-5.9-7.3c0.3-2.3,2-2.9,3.9-3C666,860.3,666.7,858.2,665.4,854.9z"/>
<path id="XMLID_7668_" fill="#EE3D3A" d="M658.6,863.6c3.8,1,5.2,3.7,5.5,7.3c-0.2,0.4-0.4,0.8-0.5,1.2c-1,0.3-2.1,0.7-3.1,1
	c-1.9-0.5-3.7-1-5.6-1.5c0.2-0.9,0.5-1.9,0.7-2.8c-0.9-1.5-1.7-3-0.7-4.8C656.1,863.1,657.2,862.5,658.6,863.6z"/>
<path id="XMLID_7667_" fill="#EE3D3A" d="M640,837.7c3.1,1.5,1.8,3.9,1.2,6.1c-1.4,5.7-3,11.4-4.5,17.1c-0.9-0.2-1.8-0.5-2.8-0.7
	C636,852.7,638,845.2,640,837.7z"/>
<path id="XMLID_7666_" fill="#EE3D3A" d="M639.9,861.5c0.5-1.8,1-3.6,1.5-5.4c1.8-1.4,3.4-3.8,6.2-1.8c0.4,0.6,0.7,1.3,0.8,2
	c0.1,2.8-0.6,5.2-3.2,6.7C643.5,862.5,641.7,862,639.9,861.5z"/>
<path id="XMLID_7665_" fill="#EE3D3A" d="M645.2,863c0.7-2.7,1.5-5.5,2.2-8.2c1.3-0.6,2.4-0.3,3.3,0.8c0.4,0.8,0.5,1.6,0.5,2.4
	c-0.4,2.5-0.8,5.1-3.6,6.1C646.8,863.7,646,863.4,645.2,863z"/>
<path id="XMLID_7664_" fill="#EE3D3A" d="M647.6,864.1c0.8-2.5,1.6-4.9,2.4-7.4c1.7,0.1,2.6,1.2,3.1,2.6c0.2,1.1,0.2,2.2-0.1,3.3
	c-0.5,1.5-1.1,2.7-2.7,3.3c-0.9-0.3-1.8-0.5-2.7-0.8C647.6,864.8,647.6,864.5,647.6,864.1z"/>
<path id="XMLID_7663_" fill="#EE3D3A" d="M650.4,866c0.4-1.4,0.8-2.8,1.2-4.1c1.5-0.8,2.9-0.7,4.2,0.5c0.5,0.8,0.4,1.4-0.4,1.9
	c0.1,1.5,0.2,3,0.2,4.6c-1.4-0.4-2.7-0.7-4.1-1.1C651.1,867.2,650.7,866.6,650.4,866z"/>
<path id="XMLID_7463_" fill="#EE3D3A" d="M676.8,811.6c2.7-4.7,6-0.5,9.1-0.7c-0.5,1.9-1.1,3.8-1.6,5.7c-0.4-0.2-0.8-0.3-1.2-0.4
	C679.9,816.1,678.5,813.7,676.8,811.6z"/>
<path id="XMLID_7462_" fill="#EE3D3A" d="M674.3,849.5c-4.4,2-5.9-0.2-6.2-4.2c-1-10.4,4.3-19.1,8.3-27.9c1.8-3.9,4.6-1.6,5.8,1.8
	C679.6,829.3,676.9,839.4,674.3,849.5z"/>
<path id="XMLID_7461_" fill="#EE3D3A" d="M682.2,819.2c-3.4-4.2-5.3-2.9-6.7,1.6c-2.4,8.2-5,16.3-7.5,24.5c-0.9-0.8-1.7-1.5-2.6-2.3
	c1.6-6.1,3.1-12.1,4.7-18.2c4.6-3.2,5.2-8.4,6.6-13.2c3.1,0.2,5.1,1.9,6.2,4.6C682.8,817.2,682.5,818.2,682.2,819.2z"/>
<path id="XMLID_7442_" fill="#EE3D3A" d="M652.2,859.1c-0.7-0.8-1.4-1.6-2.1-2.4c0.1-0.4,0.1-0.8,0.1-1.3c-1.5-6-0.2-11.1,4.4-15.3
	c3.7-1.9,5.5-0.2,6.2,3.4c0.6,4.8-2.2,8.9-2.3,13.6C656.9,859.4,655.2,861.4,652.2,859.1z"/>
<path id="XMLID_7441_" fill="#EE3D3A" d="M654.5,840.2c-1.5,5.1-2.9,10.2-4.4,15.3c-0.9-0.2-1.8-0.5-2.7-0.7c0,0-0.1-0.1-0.1-0.1
	c-2-5.5-0.7-10.2,3.7-14l0,0C652.3,840.5,653.4,840.3,654.5,840.2z"/>
<path id="XMLID_7440_" fill="#EE3D3A" d="M657.2,857c1.2-4.5,2.4-9,3.5-13.5c0.5,0.1,1,0.1,1.4,0.2c-0.9,3.7-1.8,7.5-2.7,11.2
	c0.7,2.2,0.6,4.2-1.4,5.7C655.5,860,655.9,858.6,657.2,857z"/>
<path id="XMLID_7439_" fill="#EE3D3A" d="M651.9,837.9c0.7-1.3,0-3.3,1.8-4c0.3-0.1,1.1,1.2,1.7,1.9
	C654.9,837.6,653.7,838.3,651.9,837.9z"/>
<path id="XMLID_7438_" fill="#EE3D3A" d="M651.1,840.7c-1.2,4.7-2.5,9.3-3.7,14c-2,0.5-4,0.9-6,1.4c1.4-5.6,2.9-11.2,4.3-16.8
	c0.9,0.2,1.8,0.5,2.7,0.7C649.3,840.2,650.2,840.5,651.1,840.7z"/>
<path id="XMLID_7437_" fill="#EE3D3A" d="M675.7,793.4c0.8-3.3,1.7-6.6,2.5-9.9c5.4,3.8,0,7.6-0.3,11.3
	C677.8,796.1,676.6,793.7,675.7,793.4z"/>
<path id="XMLID_7436_" fill="#EE3D3A" d="M657.9,860.3c0.6-1.8,1.1-3.6,1.7-5.4c2,0.1,3.9,7.2,5.9,0c4,4.1,2.2,6.6-2.6,7.4
	c-1.6,0.3-3.2-0.3-4.3,1.3c-1.1,0.2-2.1,0.5-3.2,0.7c0.1-0.5,0.2-1,0.3-1.4C655.4,861.1,656.6,860.7,657.9,860.3z"/>
<path id="XMLID_7376_" fill="#EE3D3A" d="M657.9,860.3c-0.7,0.9-1.4,1.7-2.1,2.6c-1.4-0.3-2.8-0.7-4.2-1c0.2-0.9,0.4-1.8,0.6-2.7
	c2.2,0.5,3.5-1,5-2.1C657.4,858.1,657.6,859.2,657.9,860.3z"/>
<path id="XMLID_356_" fill="#EE3D3A" d="M651.2,695.4c0,0-41,132.5-70.9,160.1c-30,27.6,156.2,25.9,156.2,25.9s-34.6,4.7-17.7-177"
	/>
<path id="XMLID_355_" fill="#EE3D3A" d="M714.9,573.4c0,0-11.9,4.4-14.2,8.7s-4.6,21-4.6,21l4.1,17.5l11.3,1.8l8.9-0.7l8.3-10.1
	c0,0,10.3-18,6.9-24.1c-3.4-6.1-10.1-11.2-10.1-11.2l-12.6-2.9H714.9z"/>
<path id="XMLID_354_" fill="#F38385" d="M710.3,589.1c2.7,2.1,6.2,3.8,3.5,8.2c-3.5,0.8-5.2-5.6-9.4-2.4c-5.1-1.1-4.6-3.3-1.1-6
	c1.5-0.2,2.9-0.4,4.4-0.5C708.5,588.7,709.4,588.9,710.3,589.1z"/>
<path id="XMLID_353_" fill="#F38385" d="M722.1,598.1c-1.8,1.4-3.6,1-5.4-0.2c-0.3-4,2.8-4.6,5.6-5.5c2.2,0.9,5,0.5,6.7,2.9
	c0.2,2.7-1.7,2.4-3.2,2C724.2,596.8,723,596.7,722.1,598.1z"/>
<path id="XMLID_132_" fill="#F38385" d="M722.1,598.1c-1.9-2.7-0.4-3.4,2.1-3.2c1.6,0.1,3,2.4,4.7,0.3c1,0.5,2.1,1,2.2,2.4
	c-1.1,2-2.9,2.1-4.9,1.8C724.8,598.9,723.4,598.5,722.1,598.1z"/>
<path id="XMLID_131_" fill="#F38385" d="M726.1,599.3c1.4-1.4,3.2-1.3,4.9-1.8c1.2,3.5,0.4,4.3-4,3.5
	C726.8,600.5,726.4,599.9,726.1,599.3z"/>
<g id="XMLID_31_">
	<path id="XMLID_966_" fill="#F38385" d="M693.2,818.1c0,0-0.5-1.7-1.3-4.8c-0.4-1.5-0.9-3.4-1.4-5.5c-0.5-2.1-1.1-4.5-1.6-7.1
		c-0.3-1.3-0.6-2.7-0.9-4.1c-0.3-1.4-0.6-2.9-0.9-4.4c-0.6-3-1.2-6.2-1.7-9.5c-0.5-3.3-1-6.7-1.5-10.2c-0.5-3.5-1-7-1.4-10.6
		c-1-7.1-2-14.2-2.9-20.8c-1-6.6-1.8-12.8-2.5-18.1c-1.4-10.6-2.4-17.7-2.4-17.7l0.4-0.1c0,0,1.4,7,3.4,17.6c1,5.3,2.2,11.4,3.4,18
		c1.2,6.6,2.5,13.6,3.8,20.6c0.7,3.5,1.3,7,2,10.5c0.7,3.5,1.3,6.9,1.9,10.2c0.5,3.3,1,6.5,1.4,9.6c0.2,1.5,0.4,3,0.6,4.4
		c0.2,1.4,0.3,2.8,0.5,4.2c0.3,2.7,0.5,5.1,0.8,7.3c0.2,2.2,0.4,4.1,0.5,5.6c0.2,3.1,0.3,4.9,0.3,4.9L693.2,818.1z"/>
</g>
<g id="XMLID_38_">
	<path id="XMLID_962_" fill="#F38385" d="M704.9,808.8c0,0-0.1-0.5-0.2-1.4c-0.1-0.9-0.3-2.3-0.5-4c-0.2-1.7-0.4-3.8-0.7-6.3
		c-0.3-2.4-0.5-5.1-0.8-8.1c-0.3-3-0.6-6.2-1-9.6c-0.4-3.4-0.7-7-1-10.7c-0.3-3.7-0.6-7.6-1-11.5c-0.2-2-0.3-3.9-0.5-5.9
		c-0.2-2-0.4-4-0.6-5.9c-0.4-4-0.9-7.9-1.4-11.8c-0.4-3.9-1.1-7.7-1.6-11.4c-0.5-3.7-1.2-7.2-1.7-10.6c-0.6-3.4-1.2-6.5-1.8-9.5
		c-0.3-1.5-0.6-2.9-0.9-4.2c-0.3-1.3-0.6-2.6-0.9-3.8c-0.3-1.2-0.5-2.3-0.8-3.3c-0.3-1-0.6-1.9-0.8-2.8c-1-3.3-1.5-5.3-1.5-5.3
		l0.3-0.1c0,0,0.6,1.9,1.7,5.2c0.3,0.8,0.6,1.7,0.9,2.8c0.3,1,0.6,2.1,0.9,3.3c0.3,1.2,0.7,2.4,1,3.7c0.4,1.3,0.8,2.7,1.1,4.2
		c0.7,2.9,1.5,6.1,2.2,9.4c0.7,3.4,1.4,6.9,2.1,10.6c0.6,3.7,1.3,7.5,1.9,11.4c0.6,3.9,1.2,7.8,1.7,11.8c0.3,2,0.5,4,0.8,5.9
		c0.2,2,0.5,3.9,0.7,5.9c0.5,3.9,0.9,7.8,1.3,11.5c0.4,3.7,0.6,7.3,0.8,10.8c0.2,3.4,0.4,6.7,0.5,9.7c0.1,3,0.2,5.7,0.2,8.2
		c0,2.4,0,4.6,0,6.3c0,3.5-0.1,5.5-0.1,5.5L704.9,808.8z"/>
</g>
<g id="XMLID_39_">
	<path id="XMLID_960_" fill="#F38385" d="M711.4,731.1c0,0-2.1-3.9-4.5-10c-0.6-1.5-1.3-3.2-2-4.9c-0.7-1.7-1.4-3.6-2-5.5
		c-0.7-1.9-1.3-4-1.9-6c-0.6-2.1-1.3-4.1-1.9-6.2c-2.6-8.3-5.3-16.6-7.2-22.9c-1.9-6.3-3.2-10.4-3.2-10.4l0.3-0.1
		c0,0,1.6,4.1,3.9,10.2c2.4,6.1,5.4,14.3,8.5,22.4c0.8,2,1.6,4.1,2.3,6.1c0.8,2,1.5,4,2.2,5.9c0.7,1.9,1.3,3.8,1.8,5.6
		c0.6,1.8,1,3.5,1.5,5.1c1.8,6.3,2.6,10.6,2.6,10.6L711.4,731.1z"/>
</g>
<g id="XMLID_40_">
	<path id="XMLID_958_" fill="#F38385" d="M728,570l-2.6-0.3l-2.6-0.3c-0.9-0.1-1.7-0.2-2.6-0.2c-0.9-0.1-1.7-0.1-2.6-0.1
		c-0.8,0-1.7,0-2.5,0.1c-0.4,0-0.8,0.1-1.2,0.2c-0.4,0.1-0.7,0.2-1,0.4c-0.3,0.2-0.4,0.4-0.4,0.7c0,0.3,0.1,0.6,0.3,1
		c0.4,0.7,1,1.3,1.6,1.8l-0.4-0.1c0.3-0.1,0.6-0.1,0.9-0.1c0.3,0,0.6,0,0.8,0c0.5,0,1.1,0.1,1.6,0.2c1.1,0.2,2.1,0.4,3.1,0.7
		c1,0.3,2,0.7,3,1.1c1,0.4,1.9,0.9,2.9,1.4c-1-0.3-2-0.7-3-1c-1-0.3-2-0.6-3-0.8c-1-0.2-2-0.4-3.1-0.5c-0.5-0.1-1-0.1-1.5-0.1
		c-0.3,0-0.5,0-0.8,0c-0.2,0-0.5,0.1-0.7,0.1l-0.2,0.1l-0.2-0.2c-0.7-0.6-1.3-1.2-1.9-2c-0.2-0.4-0.5-0.9-0.5-1.5
		c0-0.6,0.4-1.2,0.8-1.5c0.4-0.3,0.9-0.5,1.4-0.6c0.5-0.1,0.9-0.2,1.3-0.2c0.9-0.1,1.8-0.1,2.7,0c0.9,0,1.7,0.1,2.6,0.2
		c0.9,0.1,1.7,0.2,2.6,0.4c0.9,0.1,1.7,0.3,2.6,0.5C726.3,569.5,727.1,569.7,728,570z"/>
</g>
<path id="XMLID_6_" fill="none" stroke="#F38385" stroke-miterlimit="10" d="M726.2,563.3"/>
<path id="XMLID_43_" fill="none" stroke="#F38385" stroke-miterlimit="10" d="M726.2,563.3c0,0-22.7,3-1.5,7.6"/>
<g id="XMLID_45_">
	<path id="XMLID_954_" fill="#F38385" d="M666,591.2c0,0-0.6,0.9-1.3,2.2c-0.4,0.7-0.8,1.5-1.2,2.3c-0.4,0.9-0.8,1.8-1.1,2.7
		c-0.4,0.9-0.6,1.9-0.9,2.8c-0.3,0.9-0.7,1.7-1,2.4c-0.2,0.3-0.3,0.7-0.5,0.9c-0.1,0.3-0.3,0.5-0.4,0.7c-0.2,0.4-0.4,0.6-0.4,0.6
		l-0.2,0c0,0-0.1-0.3-0.1-0.7c0-0.5-0.1-1.1,0-1.9c0-0.4,0.1-0.8,0.2-1.3c0.1-0.4,0.2-0.9,0.4-1.4c0.2-0.5,0.4-0.9,0.6-1.4
		c0.3-0.5,0.5-0.9,0.8-1.4c0.5-0.9,1-1.8,1.6-2.6c0.5-0.8,1.1-1.5,1.6-2.2c1-1.2,1.7-1.9,1.7-1.9L666,591.2z"/>
</g>
<g id="XMLID_46_">
	<path id="XMLID_952_" fill="#F38385" d="M669.6,592.9c0,0-0.2,0.9-0.5,2.2c-0.3,1.3-0.7,3.1-1,4.9c-0.2,0.9-0.2,1.8-0.3,2.6
		c-0.1,0.4-0.2,0.8-0.3,1.2c-0.1,0.4-0.2,0.7-0.3,1c-0.2,0.6-0.4,1.2-0.6,1.6c-0.2,0.4-0.3,0.6-0.3,0.6l-0.2,0c0,0-0.1-0.2-0.2-0.6
		c-0.1-0.4-0.2-1-0.3-1.7c0-0.7,0-1.5,0.2-2.4c0.2-0.9,0.5-1.7,0.8-2.6c0.6-1.8,1.3-3.5,1.9-4.7c0.6-1.3,1-2.1,1-2.1L669.6,592.9z"
		/>
</g>
<g id="XMLID_74_">
	<path id="XMLID_687_" fill="#F38385" d="M672.8,598c0,0-0.7,3.1-1.3,6.2c-0.1,0.8-0.1,1.6-0.2,2.2c-0.1,0.7-0.3,1.3-0.4,1.8
		c-0.1,0.3-0.1,0.5-0.1,0.7c0,0.2,0,0.4,0,0.5c0,0.3,0.2,0.5,0.2,0.5l-0.1,0.2c0,0-0.1,0-0.2,0c-0.1,0-0.3-0.1-0.5-0.2
		c-0.2-0.1-0.4-0.4-0.5-0.6c-0.1-0.3-0.2-0.6-0.3-0.9c-0.2-0.7-0.2-1.4,0-2.2c0.1-0.8,0.5-1.5,0.8-2.3c1.1-3.1,2.6-5.9,2.6-5.9
		L672.8,598z"/>
</g>
<g id="XMLID_77_">
	<path id="XMLID_684_" fill="#F38385" d="M732,671.8c1,1.4,5.9,13.7,5.9,13.7"/>
	<path id="XMLID_683_" fill="#F38385" d="M732.1,671.7c0,0,0.2,0.2,0.5,0.5c0.3,0.3,0.6,0.8,1,1.4c0.4,0.6,0.8,1.3,1.2,2.1
		c0.2,0.4,0.4,0.8,0.6,1.2c0.2,0.4,0.4,0.8,0.6,1.3c0.3,0.9,0.7,1.7,1,2.6c0.3,0.8,0.5,1.6,0.7,2.3c0.3,1.4,0.4,2.3,0.4,2.3l-0.1,0
		c0,0-1.4-3.4-2.9-6.9c-0.7-1.7-1.4-3.4-2-4.7c-0.3-0.6-0.5-1.2-0.7-1.5C732.1,672,732,671.8,732.1,671.7L732.1,671.7z"/>
</g>
<g id="XMLID_78_">
	<line id="XMLID_681_" fill="#F38385" x1="736.2" y1="668.3" x2="743.9" y2="680"/>
	<path id="XMLID_680_" fill="#F38385" d="M736.3,668.3c0,0,0.7,0.6,1.6,1.6c0.5,0.5,0.9,1.1,1.4,1.7c0.2,0.3,0.5,0.7,0.8,1
		c0.2,0.4,0.5,0.7,0.7,1.1c0.5,0.7,0.9,1.5,1.3,2.2c0.4,0.7,0.7,1.4,1,2c0.5,1.2,0.8,2.1,0.8,2.1l-0.1,0.1c0,0-1.9-2.9-3.9-5.8
		C738.1,671.3,736.2,668.4,736.3,668.3L736.3,668.3z"/>
</g>
<path id="XMLID_41_" fill="#EE3D3A" d="M733.5,637c0,0,29.2,14.3,12.8,73.4c0,0-23.1-6.4-14.8-11c8.3-4.6,14.8-9.9,14.8-9.9
	l-0.4-23.8L733.5,637z"/>
<path id="XMLID_80_" fill="#F38385" d="M631.9,828.7c0,0,34.1-4.4,71.6-0.6"/>
</svg>
