<?xml version="1.0" encoding="utf-8"?>
<!-- Generator: Adobe Illustrator 18.0.0, SVG Export Plug-In . SVG Version: 6.00 Build 0)  -->
<!DOCTYPE svg PUBLIC "-//W3C//DTD SVG 1.1//EN" "http://www.w3.org/Graphics/SVG/1.1/DTD/svg11.dtd">
<svg version="1.1" id="Layer_1" xmlns="http://www.w3.org/2000/svg" xmlns:xlink="http://www.w3.org/1999/xlink" x="0px" y="0px"
	 viewBox="0 0 1200 1200" enable-background="new 0 0 1200 1200" xml:space="preserve">
<path id="XMLID_319_" fill="#EE3D3A" d="M752.1,672c6.6-1.4,13.3-1.5,20-1.3c-2.3,3.9-3.1,8.1-3.2,12.7c-0.1,4.6,0.9,9.1,1.1,13.7
	c-4.3,0-8.7-0.1-13,0.1c-4,0.2-5.5,2-4.8,6.5c3.1,18.3,5.9,36.7,8.7,55c2.7,17.9,5.5,35.7,8.1,53.6c0.4,2.9,1.7,4.1,4.6,3.7
	c3.8-0.4,7.6-0.8,11.4-1c2.5-0.1,3-1.1,2.7-3.5c-2.9-17.7-5.7-35.4-8.4-53.1c-3.2-20.5-6.2-41-9.4-61.5c4.7,0.4,9.4,0.7,14.1,1.1
	c3.6,21.6,7.3,43.2,10.9,64.8c2.6,15.4,5.3,30.8,7.6,46.3c0.5,3.6,1.9,4.2,5.1,3.9c16.9-1.6,33.8-3,50.7-4.5c4.5-0.4,8.9-1,13.4-1.3
	c5.6-0.4,9.8,3,10.1,8c0.3,4.8-3.2,8.4-8.7,8.9c-11.8,1-23.5,2.1-35.3,3.1c-3,0.2-5.2,0.3-4.7,4.7c0.5,4.8-2.7,7.8-8,8.3
	c-15.1,1.4-30.2,2.7-45.2,4c-3.1,0.3-6,0-6.4,4.8c-0.3,3.7-4.1,5.5-7.8,5.9c-20.5,2.1-41.1,4.1-61.6,6.2c-24.3,2.5-48.7,5-73,7.5
	c-16,1.7-32,4.1-48.1,5c-7.5,0.4-15.1-1.9-22.7-2.9c-29.7-3.9-59.4-7.8-89.1-11.7c-29.2-3.9-58.4-7.8-87.6-11.6
	c-4.1-0.5-8.3-0.9-12.4-1.5c-6-0.8-9.1-4.3-8.7-9.5c0.4-5.1,4.2-8.1,10.4-7.4c16.7,2,33.3,4.3,50,6.5c6.3,0.8,12.5,1.7,18.8,2.5
	c4.7,0.5,4.7,0.5,6-4.8c-11.5-1.4-23-2.8-34.4-4.1c-24.1-2.8-48.3-5.5-72.4-8.3c-6.1-0.7-9.4-4.5-8.9-9.3c0.5-5.2,4.4-8.1,10.9-7.4
	c18.4,1.9,36.7,4.1,55.1,6.2c2.4,1.7,5.2,0.4,7.8,0.9c3.4,0.7,4.8-0.9,5.2-4.2c0.6-5.6,1.4-11.2,2.1-16.8
	c2.8-20.2,5.9-40.4,8.5-60.6c1.6-12.2,4.3-24.2,4.5-36.5c6.9-0.3,13.8-0.8,20.8-0.1c3.6,0.3,7.1,1.8,10.9,1.1
	c-2.1,14.9-4,29.9-6.2,44.8c-3.4,23.8-6.9,47.7-10.5,71.5c-0.5,3.2,0.2,5,3.8,5.3c4,0.3,7.9,0.9,11.9,1.4c2.3,0.3,3.2-0.5,3.5-2.9
	c2.5-20.9,6.1-41.8,6.9-62.9c0.5-13.3,4-25.4,11-36.6c8.7-13.9,22-24.1,30.7-38c0.6-1,1.2-1.5,2.2-0.2c6.4,8,15.7,11.6,24.4,16
	c1.8,0.9,3.4,2,4.7,3.6c5.4,6.7,7,25.2,2.7,33c-10.4,4.8-13.5,14.5-14.7,24.4c-2.6,20.1-3,40.4-4.1,60.7
	c-0.7,11.9-0.5,11.9,11.8,11.9c15.2,1.8,30.4,3.4,45.5,5.4c3,0.4,3.8-0.2,3.8-3.1c0.1-7.1,0.6-14.3,0.7-21.4
	c0.4-31.3,0.9-62.6,1.1-93.9c0.2-28.6,1.6-57.3,1-85.9l0.1,0c0.6-0.2,1.2-0.5,1.8-0.7c8.1-1.9,16.1-1.7,24.3-0.4
	c3.7,0.6,4.9,2.1,4.8,5.9c-0.4,22.6-0.7,45.3-0.9,67.9c-0.2,16.8-0.1,33.7-0.2,50.5c-0.2,25.1-0.6,50.3-0.9,75.4
	c0,2.8,0.2,4.2,3.7,3.7c4.7-0.7,9.6-1,14.4-1.2c2.5-0.1,3-1.2,3-3.4c0-4.7-0.6-9.3-0.7-13.9c-0.8-34.4-1.3-68.9-2.1-103.3
	c-0.3-14.5,0.2-29-0.8-43.4c-0.7-9.7-0.1-19.4-0.1-29.5c1.5,0.6,2.4,0.9,3.3,1.3c34.2,14.3,68.5,28.5,102.7,42.8
	C750.1,682.6,750.1,682.6,752.1,672z M657.2,727.2c0.2,12.6,0.4,25.3,0.6,37.9c0.2,18.5,0.5,37,0.5,55.5c0,4.2,1,6,5.7,5.1
	c5.9-1,11.9-1.3,17.9-1.9c3.2,0.5,6.2-0.5,9.4-0.8c15.8-1.4,31.7-2.8,47.6-4c2.7-0.2,3.7-1.3,3.1-3.7c-1-3.9-0.6-7.9-1-11.9
	c-2-19.1-3.9-38.2-4.9-57.4c-0.9-17.1-6.9-31.9-19.3-44c-7.3-7.1-13.9-14.8-19.1-23.7c-6.9,4.6-14.5,7.6-21.6,11.4
	C660.9,697.7,657,711.5,657.2,727.2z"/>
<path id="XMLID_318_" fill="#841E1D" d="M752.1,674c-2,10.6-2,10.6-11.8,6.5c-34.2-14.3-68.5-28.5-102.7-42.8
	c-0.9-0.4-1.8-0.7-3.3-1.3c0,10.1-0.6,19.9,0.1,29.5c1,14.5,0.5,29,0.8,43.4c0.8,34.4,1.3,68.9,2.1,103.3c0.1,4.6,0.7,9.3,0.7,13.9
	c0,2.2-0.4,3.3-3,3.4c-4.8,0.2-9.7,0.4-14.4,1.2c-3.5,0.5-3.8-0.9-3.7-3.7c0.4-25.1,0.7-50.3,0.9-75.4c0.2-16.8,0.1-33.7,0.2-50.5
	c0.2-22.6,0.5-45.3,0.9-67.9c0.1-3.8-1.1-5.3-4.8-5.9c-8.1-1.3-16.2-1.4-24.3,0.4c-1.7-1.2-0.9-3-1-4.6c-0.3-5.2,0.8-10.5-0.9-15.7
	c-0.1-1.7-0.1-3.4-0.2-5c0.2-1.1,0.2-2.2-0.8-3.1c0-3.7-1.2-7-2.7-10.2c12.9-3.5,25.9-3.4,38.8-0.3c10,2.4,19.3,6.1,24,16.4
	c1.7,4.1,0.1,7-3.2,9.3c-0.5,0.4-1.1,0.8-1.5,1.3c-3.7,4.6-3.7,4.5,1.6,7c35,16.3,70,32.6,105,48.9C750.1,672.8,751,673.4,752.1,674
	z"/>
<path id="XMLID_317_" fill="#F38385" d="M467.9,645.2c2.2-2.1,0.2-2.7-1.3-3.1c-13.9-4.1-27.9-5.7-42.3-1.8c-0.5-3.2,2.7-6.5,1-10.2
	c0.3,0,0.7,0.1,1-0.1c13.7-7.1,27.6-5.7,41.4-0.3c2.7,1.1,4.7,0.3,7-0.9c16.4-9.2,32.9-18.2,49.2-27.4c13.1-7.4,26.6-14.2,39.4-22.3
	c0.1-8.9,5.5-13.7,13.1-16.8c2.8-1.2,5-4,8.5-3.1c0.1,2.3-0.3,4.6-0.3,6.8c-0.1,4.8-1.7,9.7,0.7,14.3c-7,2-14,3.8-19.8,8.5
	c-4.9,4-6.7,8.8-4.7,14.9c-1.6,4.1-0.2,8,0.6,11.9c-12.5,4.6-24.3,10.7-36.4,16.1c-19.4,8.6-38.7,17.4-58.1,26.1
	c0.2-1.8,0.4-3.6,0.4-5.3C467.3,650,470,647.8,467.9,645.2z"/>
<path id="XMLID_316_" fill="#EE3D3A" d="M643.9,615.1c3.3-2.3,4.9-5.2,3.2-9.3c1.4-4.6-0.6-8.6-2.3-12.6c0.5-4.2,1-8.3,1.5-12.8
	c1.3,0.6,2.2,1,3,1.5c19.3,10.8,38.6,21.4,57.7,32.4c10.6,6.1,21.7,11.4,31.8,18.4c0.1,4.8,0.1,9.7,0.2,14.5
	c-0.2,1.2-0.5,2.4,0.9,3.2c0.2,1.5,0.6,2.8,1.8,3.8c0,2.9,0,5.9,0,8.8C709.2,646.9,676.6,631,643.9,615.1z"/>
<path id="XMLID_315_" fill="#EE3D3A" d="M561.3,615.6c-0.8-4-2.2-7.9-0.6-11.9c0.9-1.5,1.6-3.3,2.9-4.5c5.8-5.6,13.1-7.9,20.7-9.5
	c1.5,3.2,2.8,6.6,2.7,10.2c0,1.1-0.3,2.2,0.8,3.1c0.1,1.7,0.1,3.4,0.2,5c0,7,0,14,0.1,20.9l-0.1,0c-7,0.8-12.4,5.3-18.7,7.8
	c-36.4,14.5-72.8,28.8-109.2,43.3c-1.1-2.9-2.8-5.7-3.2-8.9c0-0.6,0.1-1.2,0.1-1.8c33.9-15.1,67.8-30.3,101.6-45.4
	C564.6,621.3,564.6,621.3,561.3,615.6z"/>
<path id="XMLID_314_" fill="#F38385" d="M585.1,547.9c-7.9,1.1-13.6,6.5-20.3,10c-1.7,0.9-2.7,2.5-0.7,4.3c-0.6,0.7-1.2,1.3-1.9,2
	c-1.7-1.7-2.7,0.2-3.8,0.8c-27.1,15.9-54.1,31.9-81.1,47.9c-1.3,0.8-3.3,1-3.3,3.2l0.1,0c-1.7-1.1-2.8,0.7-4.3,0.8
	c0.8-3.4,1.1-6.8,2.8-9.9c1.7,2.6,3.2,0.5,4.6-0.4c12-8,24-16.1,36-24.2c0.9-0.6,3-0.9,2.1-2.6c-0.8-1.5-2.3-0.6-3.5,0.2
	c-1.1,0.7-2.2,1.5-3.3,2.2c-11.8,7.7-23.6,15.5-35.5,23.2c0.2-4.4,1.9-8.4,2.8-12.6c0.7-3.3,1.7-5.7,5.5-2.5
	c1.5,1.3,2.4-0.4,3.4-1.1c6.3-4.3,12.5-8.8,18.9-13c3.4-2.2,6.2-5.6,10.6-6.1c1.8,1.7,3.5,0.8,5.4,0c6.4-2.9,10.9-9.8,19.1-9.2
	c1.3,0.1,1.6-1.5,1.6-2.7c0.2-5.7,3.5-8.9,8.3-11.5c5.4-2.8,10.5-6.4,15.7-9.7c0.3-0.1,0.6,0,0.9,0.1c1.4,3.9-0.7,7.3-1.2,11
	c-9.9,5-18.9,11.6-28.4,17.3c-0.8,0.5-1.9,1-0.9,2.2c1.1,1.2,2.1,0.4,3.1-0.2c9.1-5.5,18.1-11,27.2-16.5c0.3,0,0.7,0.2,0.8,0.1
	c0.2-0.2,0.2-0.6,0.4-0.9c1.9-4.2-0.6-10.4,5.8-12.6c4.8-1.6,8.5-5.8,14.1-5.4C585.7,537.4,585.4,542.6,585.1,547.9z"/>
<path id="XMLID_313_" fill="#EE3D3A" d="M646.9,548.1c1.4-5.1-0.6-9.8-2.1-15.1c18.1,12.1,35.6,23.8,53.1,35.5
	c7.9,5.3,15.8,10.4,23.7,15.7c1.5,1,2.6,2.2,4.3-0.3c7.8-11.2,19.3-13.8,32.1-12.6c2.1,0.2,4.1,0.9,6.2,1.3c-4.6,3.7-5.1,9.1-6,14.4
	l-0.3,0.3c-7.4-2.6-13.9-0.2-20.1,3.8c-1.1,0.7-2.1,1.3-1.1,3.1c2.3,4.2,2.4,9.1,3.3,13.8c-1.1-0.7-2.2-1.5-3.3-2.2
	c-28.5-17.7-57-35.5-85.5-53.2C649.3,551.4,647,550.8,646.9,548.1z"/>
<path id="XMLID_312_" fill="#841E1D" d="M739,632.6c-10.1-7-21.2-12.3-31.8-18.4c-19.1-11-38.5-21.7-57.7-32.4
	c-0.9-0.5-1.8-0.9-3-1.5c-0.5,4.5-1,8.7-1.5,12.8c-3.6-5-8.6-8.2-14-10.8c0.1-5,0.2-9.9,0.2-14.9c0-5.3-2-7.4-7.4-8.4
	c-11.6-2.1-23.1-3.7-34.8-0.8c-4.5,0.7-3.9-2.5-3.9-5.2c13.4-3.8,26.9-3,40.1,0.5c6.6,1.8,12.3,6.4,17.9,10.4c1.7,1.2,2.1,4.3,3,6.6
	c0.7,3.3,2.6,5.5,5.5,7.2c28.8,16.4,57.6,32.8,86.2,49.3c3.7,2.2,7.1,2.3,11.2,1.6c11.8-2.2,23.7-3.6,35.1,2.2
	c2.7,1.4,0.8,3.5,0.8,5.2c-5.9-4.5-12.6-6.5-20-5.8c-6.7-0.5-13,1.2-19.4,2.8C743.3,633.6,741.1,634.3,739,632.6z"/>
<path id="XMLID_311_" fill="#EE3F3B" d="M583.2,494.5c-6.9-3.3-11.1-13.2-9.5-20.7c2.5-12.1,11.1-17.1,21.9-19.9
	c15.6-4.1,28.5,1.7,40.4,11.1c3.5,2.8,5.9,15,3.5,18.8c-2.7,4.4-3.6,10.3-9.7,12c4.7-6.3,3.7-13.1-1.2-18c-8-8-17.7-12.4-29.6-9.3
	C584.6,472.2,579.5,480.6,583.2,494.5z"/>
<path id="XMLID_310_" fill="#F38385" d="M618,514.9c-10.1-3.7-20.3-1.1-30.4,0.3c-3.9,0.5-5.2-0.5-4.8-4.5
	c0.5-5.2,0.5-10.5,0.7-15.8c1.6-7.4,4.6-13.9,11.9-17c7.2-3.1,14.5-2.6,21.5,0.8c0,10.7-0.1,21.4-0.1,32.1
	C616.9,512.3,617,513.7,618,514.9z"/>
<path id="XMLID_309_" fill="#841E1D" d="M646.9,548.1c0.1,2.7,2.4,3.4,4.2,4.5c28.5,17.8,57,35.5,85.5,53.2c1.1,0.7,2.2,1.5,3.3,2.2
	c-0.4,1.1-0.7,2.1-1.1,3.2c-1.6,0.1-2.8-0.9-4.1-1.6c-22.9-14.1-45.9-28.1-68.8-42.2c-6.7-4.1-13.5-8.2-20.6-12.5
	c-0.2,2.9-0.3,5.1-0.4,7.2c-3.5-4.6-9.1-6.1-13.6-9.3c1-3.2,0.7-6.6,0.7-9.9c0-7.7-2.1-10.5-9.9-11.7c-8.5-1.2-16.9-3.4-25.6-1.3
	c-3.3,0.8-6.9,0.8-10.4,1.1c0-2,0-4,0-5.9c13.4-3.7,26.9-3.3,40.1,0.5c6.4,1.8,12,6.5,16.8,11.2
	C645.5,539.2,645.6,544.2,646.9,548.1z"/>
<path id="XMLID_308_" fill="#EE413E" d="M514.1,570c-4.4,0.5-7.2,3.9-10.6,6.1c-6.4,4.2-12.6,8.7-18.9,13c-1,0.7-1.9,2.3-3.4,1.1
	c-3.7-3.1-4.7-0.8-5.5,2.5c-0.9,4.2-2.5,8.3-2.8,12.6c-0.1,0.5-0.2,1.1-0.3,1.6c-1.7,3.1-2,6.6-2.8,9.9c-2.5,0.3-4.6-1.1-6.8-2
	c1.6-8.8,3.2-17.5,4.8-26.3c0.5-2.7-0.3-4.2-3.3-4.8c-5-1.1-9.8-1.3-14.5,1.1c-1.4,0.7-2.6,1.5-4,0c-0.5-3.5-1.1-7-3-9.9
	c-1.8-2.8-0.8-4.2,1.5-5.6c6.1-3.9,12.7-3.7,19.3-2.3c9.3,2,18.7,4.3,24,13.4c1.6,2.8,2.8,0.4,3.9-0.3c7.8-5.3,15.6-10.8,23.4-16.2
	c1.5-1.1,2.9-2.3,4.8-0.8c-0.3,1-0.6,2-0.8,3l0-0.1c-0.7,0-1.1,0.3-1,1l0,0C515.8,566.8,514.1,567.3,514.1,570L514.1,570z"/>
<path id="XMLID_307_" fill="#841E1D" d="M563.2,579c-12.7,8.1-26.2,14.9-39.4,22.3c-16.4,9.2-32.8,18.2-49.2,27.4
	c-2.2,1.3-4.2,2-7,0.9c-13.8-5.3-27.6-6.8-41.4,0.3c-0.3,0.1-0.7,0-1,0.1c-0.1-2.2-0.7-4.5,1.8-5.8c12.9-3.8,25.8-3.5,38.7,0.3
	c2.1,0.6,3.5-0.1,5.1-1c27.5-15.8,55.1-31.7,82.6-47.5c2.4-1.4,4.8-3.8,7.5-3.5C561.9,572.7,562.5,576.7,563.2,579z"/>
<path id="XMLID_306_" fill="#841E1D" d="M456.9,671.2c0.4,3.2,2.1,5.9,3.2,8.9c-0.8,5.3-1.6,10.6-2.4,15.9
	c-3.7,0.7-7.2-0.8-10.9-1.1c-7-0.7-13.9-0.1-20.8,0.1l0,0c1.2-8.9,0.1-17.4-4.4-25.3c11.1-3.2,22.1-1.6,33.1,0
	C455.5,670.2,456.2,670.7,456.9,671.2z"/>
<path id="XMLID_305_" fill="#EE3F3B" d="M563.2,579c-0.8-2.3-1.3-6.3-2.3-6.4c-2.7-0.3-5,2.1-7.5,3.5
	c-27.5,15.8-55.1,31.7-82.6,47.5c-1.6,0.9-3,1.7-5.1,1c-12.8-3.8-25.7-4.1-38.7-0.3c1-4.7,5.1-5.3,8.8-6.2
	c9.6-2.1,19.1-0.8,28.5,1.1c4.4,0.9,7.2-0.3,9.9-3.2l-0.1,0c1.1,0.4,1.9-0.3,2.7-0.8c27.5-15.8,55.1-31.6,82.6-47.4
	c1.4-0.8,3-1.6,2.8-3.7c0.6-0.7,1.2-1.3,1.9-2c4.5-2.4,9-4.8,13.4-7.4c2.4-1.4,4.8-2.1,7.5-1.8c0,2.7-0.6,5.9,3.9,5.2
	c-1.2,1.3-2.7,0.6-4.1,0.9c-3.6-0.9-5.7,1.9-8.5,3.1C568.7,565.3,563.3,570.1,563.2,579z"/>
<path id="XMLID_304_" fill="#EE3D3A" d="M586,531c3.5-0.3,7-0.3,10.4-1.1c8.7-2.1,17.2,0.1,25.6,1.3c7.8,1.1,9.9,3.9,9.9,11.7
	c0,3.3,0.3,6.7-0.7,9.9c-12.6-5.4-25.6-7.3-39.2-5.3c-2.3,0.3-4.6,0.3-6.9,0.5c0.3-5.2,0.5-10.5,0.8-15.7
	C586,531.8,586,531.4,586,531z"/>
<path id="XMLID_303_" fill="#F38385" d="M426,695c-0.2,12.3-2.9,24.4-4.5,36.5c-2.6,20.2-5.7,40.4-8.5,60.6
	c-0.8,5.6-1.5,11.2-2.1,16.8c-0.3,3.3-1.8,4.9-5.2,4.2c-2.6-0.5-5.3,0.8-7.8-0.9c2.7,0.2,3.9-0.8,4.4-3.8
	c5.4-31.7,11.1-63.4,16.8-95.1c1.1-6.2,1.5-12.5,3.8-18.4C423.8,696.6,425,695.3,426,695L426,695z"/>
<path id="XMLID_302_" fill="#EE3F3B" d="M644.8,562c0.1-2.1,0.3-4.3,0.4-7.2c7.1,4.3,13.9,8.4,20.6,12.5
	c22.9,14.1,45.9,28.1,68.8,42.2c1.3,0.8,2.5,1.7,4.1,1.6c0.4,3,0.8,5.9,1.2,8.9c-11.1-6.6-22.3-13.2-33.4-19.8
	c-18.9-11.4-37.8-22.9-56.7-34.4C648.1,564.8,645.9,564.1,644.8,562z"/>
<path id="XMLID_301_" fill="#EE3F3B" d="M633,395c0.7,3.2,1.7,6.4,2,9.7c0.5,6.2-0.9,12-5.8,16.5c-0.1-0.1-0.2-0.3-0.3-0.4
	c0.3-1.5,0.8-2.9,0.9-4.4c0.4-4.8,0.7-9.8-2.7-13.6c-5.3-6-12.3-7.8-20.1-7.8c-12.5,0.1-23.4,14.3-17,24.7c0,0.7,0,1.4,0.1,2.1
	c-7.5-6.6-9.2-22.8-1.6-30.7c0.1-0.2,0-0.6,0-0.9l-0.1,0c2.2,0.1,3-1.6,4-3.1l0,0c1-0.3,1.7-1,2-2l0,0c12.8-4.2,24.8-3.8,35,6.5
	c0.1,0.2,0.3,0.3,0.4,0.4c0.9,0.3,1.1,2.4,2.6,1L632,393C631,394.3,632,394.7,633,395L633,395z"/>
<path id="XMLID_300_" fill="#EE3F3B" d="M784.1,630.8c-11.4-5.8-23.3-4.3-35.1-2.2c-4.1,0.8-7.5,0.6-11.2-1.6
	c-28.7-16.6-57.4-33-86.2-49.3c-2.9-1.7-4.8-3.9-5.5-7.2c1.1-4,3.1-1,4.3-0.3c16.1,9.5,32.2,19.2,48.3,28.8
	c13.5,8.1,27.1,16.2,40.6,24.3c2.1,1.3,3.9,1.6,6.5,1c11.8-2.9,23.6-3.8,35.1,1.4C783,626.7,785.2,627.6,784.1,630.8z"/>
<path id="XMLID_299_" fill="#F38385" d="M740,620.1c-0.4-3-0.8-5.9-1.2-8.9c0.4-1.1,0.7-2.1,1.1-3.2c-0.9-4.6-0.9-9.5-3.3-13.8
	c-1-1.8,0-2.4,1.1-3.1c6.1-4.1,12.6-6.4,20.1-3.8c1.8,10.6,3.5,21.2,5.3,31.8c-5.7,0.3-11.4,0.9-16.9,2.4
	C743.7,622.1,741.7,622.1,740,620.1z"/>
<path id="XMLID_298_" fill="#F38385" d="M618.1,366.8c-8.9-3.8-17.2-0.5-25.7,2.7c-1.2-6-2-11.9-0.4-18c1.7-6.3,4.8-11.6,11.2-13.6
	c4.2-1.3,6.5-3.2,6.3-7.7c-0.1-1.1,0.6-2.2,0.9-3.5c1.8,3.2,1.6,6.3,1.3,9.5c-0.8,0.6-0.3,0.7,0.3,0.8l0-0.1c0.2,1,0.1,2,0.5,2.9
	C616.9,348.3,618.6,357.4,618.1,366.8z"/>
<path id="XMLID_297_" fill="#F38385" d="M589.8,421.7c0-0.7,0-1.4-0.1-2.1c0.7-15.5,14.5-23.7,28.3-16.8c0,8.4,0,16.7,0,25.1
	c-9.6-4.8-19-1.9-28.8,0.9C589.5,426.2,589.7,424,589.8,421.7z"/>
<path id="XMLID_296_" fill="#F38385" d="M446.2,584.9c1.3,1.5,2.6,0.7,4,0c4.7-2.4,9.5-2.2,14.5-1.1c3,0.7,3.8,2.1,3.3,4.8
	c-1.6,8.8-3.2,17.5-4.8,26.3c-6.5-0.1-12.7-2-19.2-1.8c-2.8,0.1-1.8-2.2-1.5-3.7c1-5.5,2-11.1,3.2-16.6
	C446.2,590.2,445.9,587.5,446.2,584.9z"/>
<path id="XMLID_295_" fill="#F38385" d="M746,499.1c-6,1-12.3,1.1-17.5,4.9c-2.4,1.7-3.5-0.2-3.7-2.1c-0.5-6.6-2.6-13.1-1.6-19.8
	c0.8-5.5,5-7.9,10.3-9.5c-2.4-4.3-2.2-8.6-0.4-13.6c3.1,4.3,3.4,8.8,4.2,13.1c-0.3,1-0.2,1.9,0.6,2.7
	C743.8,481.9,745.2,490.4,746,499.1z"/>
<path id="XMLID_294_" fill="#F38385" d="M617.1,451c-7.6-2.5-15-2.1-22.8-0.2c-5.6,1.4-9.7,4.7-14,7.9c-3,2.2-3.4,1.1-3.1-1.8
	c1.7-1.4,1.6-3.6,2.3-5.3c1.1-2.6,1-5.6,3.1-7.7c7.2-7.4,23.4-14.4,35.4-7.8C617.7,441,617.4,446,617.1,451z"/>
<path id="XMLID_293_" fill="#F38385" d="M457,662.1c-5.8,0-11.4-1.4-17.3-1.3c-6,0.1-11.9,0.3-17.6,2.4c-3.2,1.1-3.4,0-2.6-2.6
	c0.9-3.2,1.7-6.4,2.6-9.6c4.6-2.7,9.5-4,14.9-4.7c4.7-0.5,9.2,0.3,13.8,0.6c9.2,0.6,9.2,0.6,7.5,9.3
	C457.8,658.2,457.4,660.1,457,662.1z"/>
<path id="XMLID_292_" fill="#F38385" d="M484.1,496.9c-5.1-1.1-10-3.7-15.5-2.1c-1.9,0.5-2.5-0.8-2.2-2.3c0.9-5.4-0.1-11,1.7-16.3
	c1.9-5.7,5.5-9,11.6-9.1c2.4,0,3.5-0.5,3.7-3.2c0.2-3.1,1.4-6,3.4-9.8c0,5.5,0,9.8,0,14.2c-1.3-0.1-1.8,0.6-1.6,1.8
	C487.1,479.1,485.9,488,484.1,496.9z"/>
<path id="XMLID_291_" fill="#EE413E" d="M618.1,367.8c0.5-9.5-1.2-18.5-5.5-27.1c-0.4-0.8-0.4-1.9-0.5-2.9
	c8.9,0.6,15.7,8.2,15.9,18.4c0.1,4.8,0.2,9.8-1.2,14.3c-1.1,3.5,0.4,4.6,2.4,6.4c4.5,4,6.3,12.6,3.9,18l0.1,0.1
	c0.1-0.9,0.3-1.9-1.1-2.1l0.1,0.1c-0.5-1.2-1-2.6-2.6-1c-0.2-0.1-0.3-0.3-0.4-0.4c1.1-0.5,0.8-1.3,0.2-1.9
	c-3.2-3.3-6.1-7.1-11.1-7.7c0-3.9,0-7.9,0-11.8c2.4,0.2,4.6,0.8,6.4,2.6c0.5,0.3,0.9,1,1.5,0.3c0.5-0.7-0.3-0.9-0.7-1.2
	C623.6,369.2,621,368.2,618.1,367.8z"/>
<path id="XMLID_290_" fill="#841E1D" d="M617.1,478.7c-7.1-3.3-14.3-3.9-21.5-0.8c-7.4,3.1-10.4,9.7-11.9,17
	c-0.2-0.1-0.3-0.2-0.4-0.4c-3.8-13.9,1.4-22.3,15.8-26c11.9-3.1,21.7,1.3,29.6,9.3c4.9,4.9,5.9,11.7,1.2,18
	c-0.1,0.2-0.3,0.3-0.5,0.3C628.5,488,625.5,481.4,617.1,478.7z"/>
<path id="XMLID_289_" fill="#EE3F3B" d="M556.1,537c-5.2,3.3-10.2,6.8-15.7,9.7c-4.9,2.6-8.2,5.8-8.3,11.5c-1.4-0.4-2.7-0.8-4.1-1.1
	c-0.1-0.5-0.3-1.3-0.3-1.3c-5.7,1.4-3.4-3-3.5-5.2c-0.1-2.1,0.5-4.2,0.8-6.3c0-0.4,0.1-0.8,0.1-1.2c5.9,0.9,11.9,2.8,18.5-1.6
	c-6.2-3.5-11.9-1.8-17.4-2.2l-0.3-0.3c1-1.9,1.7-3.9,3-5.6c3.3-4.2,6-9.8,13-8.3c4.1,1.8,8,4,10,8.2c1.6,3.3,2.9-0.9,4.5,0.4
	C556.4,534.5,556.3,535.8,556.1,537z"/>
<path id="XMLID_288_" fill="#F38385" d="M752,549c-7.2-0.1-14.3,0.7-21.3,5.3c-0.7-6.5-1.3-12.4-1.9-18.2c1.1-4.4,4-7.1,8.3-8.5
	c3.9-1.2,7.9-1.1,11.9-0.4C750,534.5,751,541.7,752,549z"/>
<path id="XMLID_287_" fill="#841E1D" d="M784.1,700.1c-4.7-0.4-9.4-0.7-14.1-1.1l0,0c-0.2-4.6-1.2-9-1.1-13.7
	c0.1-4.6,0.9-8.7,3.2-12.7c7.5,0.4,14.6,1.9,21.1,6.6C787.1,685.1,784.1,692,784.1,700.1z"/>
<path id="XMLID_286_" fill="#F38385" d="M475.9,546.1c-5.6-0.4-10.8-3.1-16.6-2.3c-3.1,0.4-2.2-2.1-2-3.8c0.7-4.7,2.2-9.4,1.8-14.2
	c6.5-6,13.6-6.3,21.1-1.9C478.7,531.2,478.5,538.9,475.9,546.1z"/>
<path id="XMLID_285_" fill="#F38385" d="M473,566c-7.2-1.6-14.4-4.3-21.9-2.1c-2.5,0.7-5,1.7-7.4,2.6c-0.5-11,4.8-17.5,16.6-17.5
	c5.1,0,10.1,0.7,14.8,3C474.4,556.7,473.7,561.4,473,566z"/>
<path id="XMLID_284_" fill="#F38385" d="M741.9,662.9c0-2.9,0-5.9,0-8.8c8.6-2.5,17.2-4.8,26.2-4.1c1,5.3,2.1,10.5,3.1,15.8
	c-5.8,0.2-11.6-0.1-17.3,1.2C749.2,668,745.8,664.7,741.9,662.9z"/>
<path id="XMLID_283_" fill="#F38385" d="M754.1,567.9c-10.5-0.2-19.9,2.7-27.6,10.7c-1-2.8-0.6-5.5-2.5-7.7
	c-1.4-1.7,0.1-3.8,1.1-5.4c4.7-7.6,12.4-9.3,20.4-10.4c2.4-0.3,5-0.1,7.4-0.1C752.7,559.3,753.2,563.6,754.1,567.9z"/>
<path id="XMLID_282_" fill="#EE3D3A" d="M617.1,478.7c8.5,2.7,11.4,9.3,12.3,17.4c0,6.9,0,13.8,0,21c-4.1-0.8-7.7-1.5-11.3-2.2
	c-1.1-1.2-1.1-2.7-1.1-4.2C617,500.1,617,489.4,617.1,478.7z"/>
<path id="XMLID_281_" fill="#F38385" d="M618.1,370.1c0,3.9,0,7.9,0,11.8c-6.7-2.5-13.4-2.1-20.2-0.2c-1.8,0.5-4,0.5-3.8,3.4l0,0
	c-1.6-0.3-2.5,0.2-2,2l0,0c-2.4-0.4-3.6,0.8-4,3.1l0.1,0c-1.5-0.7-2.2,1.3-3.4,1.1c-1.9-9.7,4-15.4,11-19.6
	C602.6,367.6,610.4,366.5,618.1,370.1z"/>
<path id="XMLID_280_" fill="#F38385" d="M739,632.6c2.1,1.6,4.3,0.9,6.5,0.4c6.4-1.6,12.7-3.3,19.4-2.8c0.7,4.2,1.5,8.5,2.2,12.7
	c-9.6-0.5-18.8,1.6-27.9,4.3C739.1,642.3,739.1,637.5,739,632.6z"/>
<path id="XMLID_279_" fill="#EE413E" d="M457,662.1c0.4-1.9,0.8-3.9,1.2-5.8c1.8-8.8,1.8-8.7-7.5-9.3c-4.6-0.3-9.1-1.2-13.8-0.6
	c-5.4,0.6-10.3,2-14.9,4.7c-1.8-2.4-1.7-3.9,1.3-5.8c6-3.8,12.7-3.8,19.2-3.7c8.6,0.1,17.2,0.8,25.4,3.7c2.1,2.6-0.6,4.8-0.6,7.3
	c0,1.8-0.3,3.6-0.4,5.3c-2.9,1.4-5.8,2.8-8.8,4.2C457.7,662,457.3,662,457,662.1L457,662.1z"/>
<path id="XMLID_278_" fill="#EE3F3B" d="M771.2,665.8c-1-5.3-2.1-10.5-3.1-15.8c7.6-0.6,14.1,2.6,20.5,6.1c0.4,4.6,0.9,9.2,1.4,14.4
	C783.7,668.2,777.7,666.1,771.2,665.8z"/>
<path id="XMLID_277_" fill="#841E1D" d="M618,436.1c-12-6.7-28.1,0.4-35.4,7.8c-2.1,2.1-2,5.2-3.1,7.7c-0.8,1.8-0.6,4-2.3,5.3
	c-1.9-5.2,0.6-10.1,2.9-13.9c2.9-4.7,7.5-8.7,13.3-10.5c9.3-2.9,18.3-3.1,27.6,0.4c6.6,2.5,17.8,15.9,18.2,22.8
	c0.1,1.3-0.6,2.2-1.3,3.2c-1.2-2.8-2.5-5.6-3.7-8.5C631.1,443,625.5,438.4,618,436.1z"/>
<path id="XMLID_276_" fill="#EE3F3B" d="M726,534c-3.4-1.4-4.7-5.1-3-9c0.5-1.2,1.4-2.2,2.1-3.3c0.6-1.2,1.3-2.5,1.9-3.7
	c4.7-0.8,9-3,13.8-3.8c5.1-0.8,9.9-0.2,14.7,1.3c5.7,1.9,7,8.8,2.5,12.9c-0.4-4.1-2.8-6.3-6.7-7.6c-6.2-2-11.8,0-17.4,2
	C728.2,525,726.3,527.8,726,534z"/>
<path id="XMLID_275_" fill="#F38385" d="M548.1,526.7c-7.1-1.6-9.7,4-13,8.3c-1.3,1.6-2,3.7-3,5.6c-3.7-0.3-5.6,3.3-8.7,4.3
	c0.1-3.1-0.1-6.2,0.1-9.2c0.4-3.8,3.7-6.1,6.9-7.9c3.4-1.9,8.2-1.6,8.2-7.9c0-2.4,5.6-3.9,5.2-8.4
	C543.5,517.1,551.2,520.3,548.1,526.7z"/>
<path id="XMLID_274_" fill="#EE413E" d="M484.1,496.9c1.8-8.9,3-17.8,1-26.8c-0.3-1.2,0.3-1.9,1.6-1.8c10.1,5.9,12.3,12.3,7.8,23.1
	c-1.1,2.7-1.3,6.2-3.2,8.2c-2.2,2.3-4.4-2.8-7.3-1.5c0,0,0,0,0,0c0.1-0.2,0.2-0.5,0.2-0.7C484.4,497.1,484.2,497,484.1,496.9z"/>
<path id="XMLID_273_" fill="#EE3F3B" d="M490.9,515.9c2.2,2.9,4.3,5.7,2.9,9.7c-0.7,2-1.4,3.6-3.9,3.4c0.6-3.6-0.3-6.8-3.3-8.8
	c-5.2-3.5-10.9-6.3-17.5-6.2c-7.8,0.1-11.1,3.8-10.1,11.2c-2.8-3.6-4.8-8-2.2-11.8c3.4-5,9.4-5.8,15.2-5.3
	C479.2,508.7,485.3,512,490.9,515.9C491,516,490.9,515.9,490.9,515.9z"/>
<path id="XMLID_272_" fill="#EE3F3B" d="M618,436.1c7.5,2.4,13.1,6.9,16.3,14.3c1.2,2.8,2.4,5.7,3.7,8.5c0.1,3.6-0.8,4.5-4,1.9
	c-5.1-4.1-10-8.7-16.9-9.8C617.4,446,617.7,441,618,436.1z"/>
<path id="XMLID_271_" fill="#EE413E" d="M763,619c-1.8-10.6-3.5-21.2-5.3-31.8c0,0,0.3-0.3,0.3-0.3c2.9,1.3,6.3,1.6,8.8,3.8
	c1.2,7.7,2.3,15.4,3.6,23.1c0.9,5.7,1,5.7-4.9,5.2C764.7,619.1,763.9,619.1,763,619z"/>
<path id="XMLID_270_" fill="#F38385" d="M727,518c-0.6,1.2-1.3,2.5-1.9,3.7c-3.9-1.2-5.4-5.6-3.1-9.2c2-3.1,4.3-5.6,8-7
	c5.3-2.1,10.5-3.7,16.2-3.4c0.3,3.3,0.6,6.5,0.9,9.8C739.9,512.2,732.7,512.6,727,518z"/>
<path id="XMLID_269_" fill="#EE3F3B" d="M767.1,642.8c-0.7-4.2-1.5-8.5-2.2-12.7c7.4-0.7,14.1,1.3,20,5.8c0.4,3.6,0.8,7.1,1.3,11.4
	C779.7,644.9,773.6,643,767.1,642.8z"/>
<path id="XMLID_268_" fill="#EE413E" d="M473,566c0.7-4.7,1.4-9.4,2-14c6.8,1.3,11.5,5.5,14.9,11.3c0.5,0.8,1.5,1.6,0.6,2.6
	c-2.4,2.6-1.2,6-2.7,9.7C484.3,569.8,478.5,568.2,473,566z"/>
<path id="XMLID_267_" fill="#841E1D" d="M459.1,525.2c-1.1-7.5,2.3-11.2,10.1-11.2c6.6,0,12.3,2.7,17.5,6.2c2.9,2,3.9,5.2,3.3,8.8
	c-0.7,1.1-1.4,2.2-2.2,3.3c-2-3.3-3.4-7.1-7.5-8.5c-7.5-4.4-14.6-4-21.1,1.9C459,525.5,459,525.4,459.1,525.2z"/>
<path id="XMLID_266_" fill="#F38385" d="M481.9,508.2c-5.8-0.9-11.4-3.5-17.6-1.3c-2,0.7-3.8,1.9-5.9,2.5
	c-2.6-9.2,7.6-13.3,14.9-12.9c3.6,0.2,7,2,10.8,1.4c0,0,0,0,0,0c0,0.4-0.1,0.8-0.1,1.1C482.5,501.9,482.4,505.1,481.9,508.2z"/>
<path id="XMLID_265_" fill="#EE3D3A" d="M618.1,427.9c0-8.4,0-16.7,0-25.1c2.5,0.6,4.1,2.7,5.7,4.5c3.4,3.8,3.7,8.8,5.1,13.4
	c0.1,0.2,0.2,0.3,0.3,0.4c-2.6,3-1.3,6.9-2.3,10.4C623.9,430.4,621,429.2,618.1,427.9z"/>
<path id="XMLID_264_" fill="#841E1D" d="M726,534c0.3-6.2,2.2-9,7.9-11.1c5.6-2.1,11.2-4,17.4-2c3.9,1.2,6.3,3.4,6.7,7.6
	c-0.5,1-1,2-1.5,2.9c-2.4-1.7-4.6-3.5-7.5-4.2c-4-0.6-7.9-0.7-11.9,0.4c-4.3,1.3-7.2,4-8.3,8.5C727.9,535.4,727,534.7,726,534z"/>
<path id="XMLID_263_" fill="#EE413E" d="M754.1,567.9c-0.9-4.3-1.4-8.6-1.1-12.9c0.5,0,1-0.1,1.5-0.1c11.2,0.4,14.7,4.2,15.2,17.2
	C764.8,569.4,759.6,568,754.1,567.9z"/>
<path id="XMLID_262_" fill="#EE413E" d="M746,499.1c-0.7-8.7-2.1-17.3-8.2-24.2c-0.7-0.8-0.9-1.7-0.6-2.7
	c9.6,0.6,12.8,3.8,13.3,13.4c0.1,3.1,0.3,6.2,0.7,9.3C752.1,501.3,752,501.4,746,499.1z"/>
<path id="XMLID_261_" fill="#EE413E" d="M480.2,523.8c4.1,1.4,5.6,5.2,7.5,8.5c-1.7,5-2,10.3-2.7,15.4c-0.4,3.3-1.6,3.5-4,1.9
	c-1.7-1.2-4-1.7-5.2-3.5C478.5,538.9,478.7,531.2,480.2,523.8z"/>
<path id="XMLID_260_" fill="#841E1D" d="M788.6,656.1c-6.4-3.5-12.9-6.7-20.5-6.1c-9.1-0.7-17.7,1.6-26.2,4.1
	c-1.2-1-1.6-2.3-1.8-3.8c13.6-3.7,27.3-5.7,41.2-1.4c1.9,0.6,3.7,1.5,5.6,2.1C789.5,652,789.8,653.8,788.6,656.1z"/>
<path id="XMLID_259_" fill="#841E1D" d="M766.8,590.8c-2.5-2.3-5.9-2.6-8.8-3.8c0.9-5.2,1.4-10.7,6-14.4c1.4,0.6,2.8,1,4.1,1.7
	c5.8,3.4,6.5,8.6,1.8,13.3C768.9,588.7,767.9,589.8,766.8,590.8z"/>
<path id="XMLID_258_" fill="#EE413E" d="M586,531c0,0.4,0,0.8-0.1,1.2c-5.5-0.4-9.3,3.8-14.1,5.4c-6.4,2.2-3.9,8.4-5.8,12.6
	c-0.1,0.3-0.2,0.7-0.4,0.9c-0.2,0.1-0.6,0-0.8-0.1c-0.3-0.9-0.7-1.9-1-2.8c0.5-3.7,2.6-7.1,1.2-11c6.4-5.1,12.4-10.7,20.9-12.1
	C586,527,586,529,586,531z"/>
<path id="XMLID_257_" fill="#F38385" d="M533,544.1c-0.3,2.1-0.8,4.2-0.8,6.3c0.1,2.2-2.3,6.6,3.5,5.2c0,0,0.2,0.9,0.3,1.3
	c-5.7,3-10.4,7.8-17,9.2c0.3-1,0.6-2,0.8-3c1.9,0.1,2.5-1.4,2.7-2.8c0.5-3.7,0.8-7.4,1.1-11C527.5,548.8,529.2,544.6,533,544.1z"/>
<path id="XMLID_256_" fill="#EE413E" d="M749,527.2c2.9,0.7,5.2,2.5,7.5,4.2c0.6,4.5,1.1,9.1,1.8,13.6c0.9,5.5,1,5.5-4.4,4.5
	c-0.6-0.1-1.3-0.3-1.9-0.4C751,541.7,750,534.5,749,527.2z"/>
<path id="XMLID_255_" fill="#EE3F3B" d="M426,695c-1.1,0.3-2.2,1.6-3.2-0.1c0.6-6.4-2.2-11.9-4.9-17.3c-2.7-5.6-2.7-5.8,3.7-7.8
	C426.1,677.6,427.3,686.1,426,695z"/>
<path id="XMLID_254_" fill="#EE413E" d="M481.9,508.2c0.5-3.1,0.6-6.3,2.1-9.1c4.6,2.1,8.8,4.5,10.7,9.7c0.7,1.8,0.6,3.4,0.5,5.2
	c-0.3,3.6-2.3,2.4-4.2,2c0,0,0.1,0.1,0.1,0.1c0.7-2.6-1.6-3-2.9-3.9C486,510.7,484,509.5,481.9,508.2z"/>
<path id="XMLID_253_" fill="#EE413E" d="M747.1,511.9c-0.3-3.3-0.6-6.5-0.9-9.8c9.6,0.8,13,4.3,12.6,13.4
	C755.1,513.3,751.3,512,747.1,511.9z"/>
<path id="XMLID_252_" fill="#EE413E" d="M533,544.1c-3.8,0.5-5.5,4.7-9.3,5.2c-2.7-2.8-0.1-4.4,1.4-6.2c3.2-0.9,5-4.5,8.7-4.3
	c0,0,0.3,0.3,0.3,0.3c-0.7,1.1-1.3,2.3-1.1,3.7C533,543.3,533,543.7,533,544.1z"/>
<path id="XMLID_251_" fill="#EE3F3B" d="M456.9,671.2c-0.7-0.5-1.4-0.9-2.1-1.4c0.7-0.1,1.5-0.3,2.2-0.4
	C457,670,457,670.6,456.9,671.2z"/>
<path id="XMLID_250_" fill="#EE413E" d="M632.1,333c-0.6-0.1-1.1-0.2-0.3-0.8C632,332.4,632,332.7,632.1,333z"/>
<path id="XMLID_249_" fill="#F38385" d="M457,662.1c0.4,0,0.7,0,1.1,0C457.7,662.5,457.4,663.1,457,662.1z"/>
<path id="XMLID_248_" fill="#F38385" d="M457.7,695.9c0.8-5.3,1.6-10.6,2.4-15.9c36.4-14.4,72.8-28.8,109.2-43.3
	c6.3-2.5,11.7-7,18.7-7.8c0.6,28.6-0.8,57.3-1,85.9c-0.2,31.3-0.7,62.6-1.1,93.9c-0.1,7.1-0.6,14.3-0.7,21.4c0,2.9-0.9,3.5-3.8,3.1
	c-15.2-2-30.3-3.6-45.5-5.4c1-13.2,2-26.4,3.2-39.6c1.4-16.5,3.1-32.9,4.5-49.4c0.2-2.6,1.6-5.5-0.6-8c4.2-7.8,2.7-26.3-2.7-33
	c-1.3-1.6-2.9-2.7-4.7-3.6c-8.8-4.4-18-8-24.4-16c-1-1.2-1.6-0.7-2.2,0.2c-8.6,13.9-22,24-30.7,38c-7,11.3-10.5,23.3-11,36.6
	c-0.8,21.1-4.4,41.9-6.9,62.9c-0.3,2.4-1.2,3.2-3.5,2.9c-4-0.5-7.9-1.1-11.9-1.4c-3.6-0.3-4.3-2.1-3.8-5.3
	c3.5-23.8,7-47.6,10.5-71.5C453.6,725.8,455.6,710.9,457.7,695.9z"/>
<path id="XMLID_247_" fill="#F38385" d="M657.2,729.2c-0.3-15.7,3.7-29.5,18.7-37.4c7.2-3.8,14.7-6.8,21.6-11.4
	c5.2,9,11.8,16.6,19.1,23.7c12.4,12,18.4,26.9,19.3,44c1,19.2,2.9,38.3,4.9,57.4c0.4,3.9,0,8,1,11.9c0.6,2.4-0.4,3.5-3.1,3.7
	c-15.9,1.2-31.7,2.6-47.6,4c-3.1,0.3-6.2,1.3-9.4,0.8c-0.3-4.1-0.6-8.3-0.8-12.4c-0.7-17.7-1.4-35.5-2.2-53.2
	c-0.4-7.5-2.4-14.8-6.5-21.2C668.9,733.5,664.2,729.5,657.2,729.2z"/>
<path id="XMLID_246_" fill="#F38385" d="M770,699c3.1,20.5,6.2,41,9.4,61.5c2.7,17.7,5.5,35.4,8.4,53.1c0.4,2.3-0.1,3.4-2.7,3.5
	c-3.8,0.2-7.6,0.6-11.4,1c-2.9,0.3-4.2-0.9-4.6-3.7c-2.6-17.9-5.4-35.8-8.1-53.6c-2.8-18.4-5.6-36.7-8.7-55
	c-0.8-4.5,0.7-6.3,4.8-6.5C761.4,698.9,765.7,699,770,699L770,699z"/>
<path id="XMLID_243_" fill="#EE3F3B" d="M588.1,628.9c0-7,0-14-0.1-20.9c1.7,5.1,0.6,10.5,0.9,15.7c0.1,1.6-0.7,3.3,1,4.6
	C589.3,628.5,588.7,628.7,588.1,628.9z"/>
<path id="XMLID_241_" fill="#EE3F3B" d="M587.8,602.9c-1-0.8-0.8-2-0.8-3.1C588,600.7,588,601.8,587.8,602.9z"/>
<path id="XMLID_240_" fill="#EE3D3A" d="M630.8,582.3c-15-5.4-30.2-5.8-45.6-2.1c-2.4-4.7-0.8-9.6-0.7-14.3c0-2.2,0.4-4.5,0.3-6.8
	c1.4-0.2,2.9,0.4,4.1-0.9c11.7-2.9,23.2-1.3,34.8,0.8c5.4,1,7.4,3.1,7.4,8.4C631,572.4,630.9,577.4,630.8,582.3z"/>
<path id="XMLID_238_" fill="#841E1D" d="M472.7,607c0.1-0.5,0.2-1.1,0.3-1.6c11.8-7.7,23.6-15.5,35.5-23.2c1.1-0.7,2.2-1.5,3.3-2.2
	c1.1-0.8,2.6-1.7,3.5-0.2c1,1.7-1.2,2-2.1,2.6c-12,8.1-23.9,16.2-36,24.2C475.9,607.5,474.5,609.5,472.7,607z"/>
<path id="XMLID_237_" fill="#841E1D" d="M563.9,548.1c0.3,0.9,0.7,1.9,1,2.8c-9.1,5.5-18.1,11-27.2,16.5c-1,0.6-2,1.4-3.1,0.2
	c-1.1-1.2,0-1.7,0.9-2.2C545,559.7,554,553.1,563.9,548.1z"/>
<path id="XMLID_236_" fill="#841E1D" d="M517.1,576.2c6.5-1.4,11.3-6.1,17-9.2c1.4,0.4,2.7,0.8,4.1,1.1c0,1.2-0.2,2.8-1.6,2.7
	c-8.1-0.6-12.7,6.2-19.1,9.2c-1.9,0.9-3.6,1.8-5.4,0l-0.1,0.1c1.6-0.6,3.3-1.1,4-3l0,0c0.8,0.1,1.5,0.1,1-1L517.1,576.2z"/>
<path id="XMLID_235_" fill="#F38385" d="M518.1,567.1c-0.7,1.9-2.4,2.4-4,3C514.1,567.3,515.8,566.8,518.1,567.1z"/>
<path id="XMLID_234_" fill="#F38385" d="M519.1,566c0.4,1.1-0.2,1.1-1,1C518,566.3,518.4,566.1,519.1,566z"/>
<path id="XMLID_233_" fill="#841E1D" d="M628.8,420.7c-1.3-4.6-1.7-9.6-5.1-13.4c-1.6-1.8-3.1-3.8-5.7-4.5
	c-13.8-6.9-27.6,1.3-28.3,16.8c-6.3-10.4,4.5-24.6,17-24.7c7.8-0.1,14.9,1.8,20.1,7.8c3.4,3.9,3.1,8.8,2.7,13.6
	C629.5,417.8,629.1,419.2,628.8,420.7z"/>
<path id="XMLID_226_" fill="#841E1D" d="M533,542.9c-0.2-1.4,0.4-2.6,1.1-3.7c5.4,0.3,11.1-1.4,17.4,2.2
	C545,545.7,539,543.9,533,542.9z"/>
<path id="XMLID_8705_" fill="#EE3D3A" d="M316.4,835.8c4.1-1.6,7.5,1.3,11.3,1.6c5.6,1.5,11.2,2.9,16.7,4.4
	c5.8,2.4,12.6,1.7,17.7,6.1C347,843.9,331.7,839.8,316.4,835.8z"/>
</svg>
