<?xml version="1.0" encoding="utf-8"?>
<!-- Generator: Adobe Illustrator 18.0.0, SVG Export Plug-In . SVG Version: 6.00 Build 0)  -->
<!DOCTYPE svg PUBLIC "-//W3C//DTD SVG 1.1//EN" "http://www.w3.org/Graphics/SVG/1.1/DTD/svg11.dtd">
<svg version="1.1" id="Layer_1" xmlns="http://www.w3.org/2000/svg" xmlns:xlink="http://www.w3.org/1999/xlink" x="0px" y="0px"
	 viewBox="0 0 1200 1200" enable-background="new 0 0 1200 1200" xml:space="preserve">
<path id="XMLID_342_" fill="#EE3D3A" d="M1057.6,557.6c-2.4,29.8-4.8,59.5-7.2,89.3c-48.1-3.8-96.2-6.6-144.5-8.3
	c0.5-14.2,1-28.4,1.5-42.6c31.6,1.1,63.1,2.7,94.7,4.7C1027.3,601.9,1056.2,585.2,1057.6,557.6z"/>
<path id="XMLID_341_" fill="#EE3D3A" d="M1057.7,553.3c0,1.4,0,2.9-0.1,4.3c-1.4,27.6-30.3,44.3-55.6,43c-31.5-2-63.1-3.5-94.7-4.7
	c0.4-10.5,0.7-21,1.1-31.6c0.6-2.3,0.9-4.7,1-7.2c0.2-5,0.3-7.5,0.4-12.5C959.3,546.6,1008.5,549.4,1057.7,553.3z"/>
<path id="XMLID_340_" fill="#EE3D3A" d="M1057.7,553.3c-49.2-3.9-98.5-6.7-147.8-8.5c0.1-1.5,0.1-2.3,0.1-3.9
	c0.4-12.8-6.4-24.6-16.9-31.8c47.8,1.5,95.6,3.9,143.3,7.3C1048.3,524.7,1057.8,538.4,1057.7,553.3z"/>
<path id="XMLID_339_" fill="#EE3D3A" d="M1036.5,516.5c-47.7-3.4-95.5-5.9-143.3-7.3c-7.2-4.9-16.1-8-25.8-8.2
	c47,1.1,93.9,3.1,140.7,6C1017.5,507.3,1028.8,511,1036.5,516.5z"/>
<path id="XMLID_338_" fill="#F38385" d="M909.9,544.8c-0.2,5-0.3,7.5-0.4,12.5c-0.1,2.5-0.4,4.9-1,7.2c0.3-7.9,0.4-11.8,0.7-19.7
	C909.5,544.7,909.6,544.7,909.9,544.8z"/>
<path id="XMLID_337_" fill="#F38385" d="M910.1,540.9c-0.1,1.5-0.1,2.3-0.1,3.9c-0.3,0-0.5,0-0.8,0c-25.7-0.8-51.4-1.4-77.1-1.7
	c0-1.5,0-2.3,0-3.9c0.1-12.8-7-24.4-17.6-31.3c26.2,0.2,52.5,0.6,78.7,1.3C903.7,516.3,910.4,528.1,910.1,540.9z"/>
<path id="XMLID_336_" fill="#F38385" d="M907.4,596c-0.5,14.2-1,28.4-1.5,42.6c-24.9-0.8-49.9-1.4-74.8-1.7
	c0.1-14.2,0.3-28.4,0.4-42.6c11.3,0.1,22.5,0.3,33.8,0.5C879.4,595.1,893.4,595.5,907.4,596z"/>
<path id="XMLID_335_" fill="#F38385" d="M908.5,564.4c-0.4,10.5-0.7,21-1.1,31.6c-14-0.5-28-0.8-42-1.2
	C884.2,595.8,903.8,582.9,908.5,564.4z"/>
<path id="XMLID_334_" fill="#F38385" d="M909.2,544.7c-0.3,7.9-0.4,11.8-0.7,19.7c-4.7,18.5-24.2,31.4-43.1,30.4
	c-11.3-0.2-22.5-0.4-33.8-0.5c0.2-17.1,0.4-34.2,0.5-51.3C857.8,543.3,883.5,543.9,909.2,544.7z"/>
<path id="XMLID_332_" fill="#EE3D3A" d="M893.2,509.1c-26.2-0.7-52.5-1.2-78.7-1.3c-7.3-4.8-16.3-7.6-26-7.6
	c26.3,0,52.6,0.2,78.9,0.7C877.1,501.1,886.1,504.2,893.2,509.1z"/>
<path id="XMLID_331_" fill="#EE3D3A" d="M831.6,594.3c-0.1,14.2-0.3,28.4-0.4,42.6c-64.3-0.5-128.6,0.8-192.8,4
	c-0.7-14.2-1.5-28.4-2.2-42.6C701.3,595.1,766.4,593.7,831.6,594.3z"/>
<path id="XMLID_330_" fill="#EE3D3A" d="M832.1,543c-0.2,17.1-0.4,34.2-0.5,51.3c-65.2-0.5-130.3,0.8-195.4,4
	c-0.9-17.1-1.8-34.1-2.6-51.2c-0.6,0-0.9,0-1.5,0.1c-0.1-1.5-0.1-2.3-0.2-3.9c-0.7-12.8-8.5-24-19.5-30.2c15.5-0.9,31-1.6,46.5-2.3
	c26.2-1.1,52.4-1.9,78.6-2.4c25.7-0.4,51.4-0.6,77.1-0.5c10.6,6.9,17.7,18.5,17.6,31.3C832.1,540.7,832.1,541.5,832.1,543z"/>
<path id="XMLID_329_" fill="#EE3D3A" d="M814.5,507.8c-25.7-0.1-51.4,0.1-77.1,0.5c7.2-4.9,16.2-7.9,25.9-8
	c10.1-0.1,15.1-0.1,25.1-0.2C798.3,500.2,807.2,503,814.5,507.8z"/>
<path id="XMLID_328_" fill="#EE3D3A" d="M684.5,502.2c26.3-0.9,52.5-1.5,78.8-1.8c-9.8,0.1-18.7,3.1-25.9,8
	c-26.2,0.5-52.4,1.4-78.6,2.4C665.9,505.7,674.8,502.5,684.5,502.2z"/>
<path id="XMLID_70_" fill="#EE3D3A" d="M642.1,640.7c-2.1,0.1-3.1,0.2-5.2,0.3c-1.6-31.3-3.2-62.5-4.9-93.8c2.1-0.1,3.2-0.2,5.3-0.3
	C639,578.1,640.5,609.4,642.1,640.7z"/>
<path id="XMLID_37_" fill="#F38385" d="M740.3,600.2c0.1,6.3-5.4,11.5-12.3,11.7s-12.7-4.8-12.8-11.1c-0.2-6.3,5.4-11.6,12.3-11.7
	C734.4,588.9,740.2,593.9,740.3,600.2z"/>
<path id="XMLID_13_" fill="#F38385" d="M1016.4,607.2c-0.4,6.3-6.4,11-13.3,10.6c-6.9-0.5-12.2-5.9-11.8-12.2
	c0.4-6.3,6.4-11.1,13.3-10.6C1011.5,595.4,1016.8,600.9,1016.4,607.2z"/>
<path id="XMLID_327_" fill="#EE3D3A" d="M585.9,507.2c32.9-2.1,65.7-3.7,98.6-5c-9.8,0.3-18.6,3.5-25.7,8.6
	c-15.5,0.7-31,1.5-46.5,2.3C604.8,508.8,595.6,506.5,585.9,507.2z"/>
<path id="XMLID_326_" fill="#F38385" d="M634.7,598.4c0.7,14.2,1.5,28.4,2.2,42.6c-24.2,1.3-48.4,2.8-72.7,4.6
	c-1.1-14.2-2.1-28.3-3.2-42.5C585.6,601.2,610.1,599.7,634.7,598.4z"/>
<path id="XMLID_325_" fill="#F38385" d="M632.1,547.2c0.9,17.1,1.8,34.1,2.7,51.2c-24.6,1.3-49.1,2.9-73.6,4.7
	c-1.3-17-2.6-34.1-3.9-51.1C582.1,550.1,607.1,548.5,632.1,547.2z"/>
<path id="XMLID_324_" fill="#F38385" d="M631.9,543.3c0.1,1.5,0.1,2.3,0.2,3.9c-25,1.3-49.9,2.9-74.8,4.8c-0.2,0-0.3,0-0.6,0
	c-0.1-1.5-0.2-2.3-0.3-3.8c-1-12.8-9.1-23.7-20.2-29.7c25.4-2,50.8-3.8,76.2-5.3C623.3,519.4,631.1,530.5,631.9,543.3z"/>
<path id="XMLID_323_" fill="#EE3D3A" d="M612.3,513.1c-25.4,1.5-50.8,3.3-76.2,5.3c-7.6-4.1-16.8-6.2-26.6-5.3
	c25.4-2.2,50.9-4.2,76.3-5.9C595.6,506.5,604.8,508.8,612.3,513.1z"/>
<path id="XMLID_322_" fill="#F38385" d="M561.1,603c1.1,14.2,2.1,28.3,3.2,42.5c-0.4,0-0.5,0-0.9,0.1c-1.1-14.2-2.1-28.3-3.2-42.5
	C560.5,603.1,560.7,603.1,561.1,603z"/>
<path id="XMLID_245_" fill="#F38385" d="M557.2,551.9c1.3,17,2.6,34.1,3.9,51.1c-0.4,0-0.6,0-0.9,0.1c-1.3-17-2.6-34.1-3.9-51.1
	c0.2,0,0.2,0,0.4,0C556.9,551.9,557,551.9,557.2,551.9z"/>
<path id="XMLID_244_" fill="#EE3D3A" d="M556.4,548.1c0.1,1.5,0.2,2.3,0.3,3.8c-0.2,0-0.2,0-0.4,0c1.3,17,2.6,34.1,3.9,51.1
	c-68.2,5.3-136.1,12.7-203.8,22.1c-2.4-16.9-4.8-33.8-7.2-50.8c-0.9,0.1-1.4,0.2-2.3,0.3c-0.8,0.1-1.3,0.2-2.1,0.3
	c-0.2-1.5-0.3-2.3-0.5-3.8c-1.9-12.7-10.6-23.1-22.2-28.3c19.7-2.9,39.4-5.7,59.2-8.2c25.3-3.2,50.6-6.2,75.9-8.9
	c26.3-2.7,52.6-5.2,79-7.4C547.3,524.4,555.3,535.3,556.4,548.1z"/>
<path id="XMLID_242_" fill="#EE3D3A" d="M560.1,603.1c1.1,14.2,2.1,28.3,3.2,42.5c-67.2,5.2-134.2,12.5-201,21.8
	c-2-14.1-4-28.1-6-42.2C424.1,615.8,492,608.4,560.1,603.1z"/>
<path id="XMLID_239_" fill="#EE3D3A" d="M536.1,518.4c-26.4,2.2-52.7,4.6-79,7.4c6.8-5.5,15.4-9.2,25.1-10.2
	c10.9-1.1,16.4-1.6,27.3-2.5C519.3,512.2,528.5,514.3,536.1,518.4z"/>
<path id="XMLID_232_" fill="#EE3D3A" d="M406.1,523.9c25.3-3,50.7-5.8,76.1-8.3c-9.7,0.9-18.4,4.7-25.1,10.2
	c-25.3,2.7-50.6,5.7-75.9,8.9C387.9,529.1,396.5,525.1,406.1,523.9z"/>
<path id="XMLID_231_" fill="#EE3D3A" d="M295.2,539.4c36.9-5.7,73.9-10.8,111-15.4c-9.7,1.2-18.3,5.1-24.9,10.8
	c-19.8,2.6-39.5,5.3-59.2,8.2C314.2,539.3,304.8,537.8,295.2,539.4z"/>
<path id="XMLID_230_" fill="#EE3D3A" d="M356.4,625.2c2,14.1,4,28.1,6,42.2c-0.9,0.1-1.4,0.2-2.3,0.3c-2-14.1-4-28.1-6-42.2
	C355,625.4,355.5,625.3,356.4,625.2z"/>
<path id="XMLID_229_" fill="#EE3D3A" d="M349.2,574.4c2.4,16.9,4.8,33.8,7.2,50.8c-0.9,0.1-1.4,0.2-2.3,0.3
	c-2.4-16.9-4.8-33.8-7.2-50.8C347.8,574.6,348.3,574.6,349.2,574.4z"/>
<path id="XMLID_228_" fill="#EE3D3A" d="M354.1,625.5c2,14.1,4,28.1,6,42.2c-0.8,0.1-1.2,0.2-2,0.3c-2-14.1-4-28.1-6-42.2
	c-2.4-16.9-4.8-33.8-7.2-50.8c0.8-0.1,1.3-0.2,2.1-0.3C349.3,591.7,351.7,608.6,354.1,625.5z"/>
<path id="XMLID_227_" fill="#EE3D3A" d="M352,625.8c2,14.1,4,28.1,6,42.2c-12.3,1.8-24.7,3.6-37,5.5c-2.2-14-4.4-28.1-6.5-42.1
	C327,629.5,339.5,627.6,352,625.8z"/>
<path id="XMLID_225_" fill="#EE3D3A" d="M344.8,575c2.4,16.9,4.8,33.8,7.2,50.8c-12.5,1.8-25,3.6-37.5,5.6c0-0.1,0-0.2,0-0.3
	c0-0.1,0-0.1,0-0.1c18.6-5.5,32.9-23.4,30.1-43.3c-0.7-4.9-1.1-7.4-1.8-12.4C343.6,575.2,344,575.2,344.8,575z"/>
<path id="XMLID_224_" fill="#EE3D3A" d="M344.3,571.2c0.2,1.5,0.3,2.3,0.5,3.8c-0.8,0.1-1.2,0.2-2,0.3c-12,1.7-24.1,3.5-36.1,5.4
	c-0.5,0.1-0.7,0.1-1.2,0.2c-0.2-1.5-0.4-2.3-0.6-3.8c-2-12.7-10.9-23-22.5-28c13.2-2.1,26.5-4.2,39.7-6.1
	C333.6,548.1,342.4,558.5,344.3,571.2z"/>
<path id="XMLID_223_" fill="#EE3D3A" d="M342.8,575.3c0.7,4.9,1.1,7.4,1.8,12.4c2.8,19.9-11.5,37.8-30.1,43.3
	c-2.6-16.8-5.2-33.5-7.8-50.3C318.7,578.9,330.7,577.1,342.8,575.3z"/>
<path id="XMLID_222_" fill="#EE3D3A" d="M322.1,542.9c-13.3,2-26.5,4-39.7,6.1c-2.7-1.2-5.7-2.2-8.7-2.8c-0.2-1.3-0.3-2-0.5-3.3
	c8.8-1.4,13.3-2.2,22.1-3.5C304.8,537.8,314.2,539.3,322.1,542.9z"/>
<path id="XMLID_221_" fill="#EE3D3A" d="M314.5,631.4c2.2,14,4.4,28.1,6.5,42.1c-0.5,0.1-0.7,0.1-1.2,0.2c-2.2-14-4.4-28.1-6.5-42.1
	C313.8,631.5,314,631.5,314.5,631.4z"/>
<path id="XMLID_220_" fill="#F38385" d="M314.5,631.1c0,0.1,0,0.2,0,0.3c-0.5,0.1-0.7,0.1-1.2,0.2c0-0.1,0-0.1,0-0.2
	C313.7,631.3,314.1,631.2,314.5,631.1z"/>
<path id="XMLID_219_" fill="#F38385" d="M314.5,631c0,0.1,0,0.1,0,0.1c-0.4,0.1-0.8,0.2-1.2,0.3c0,0,0-0.1,0-0.1
	C313.7,631.2,314.1,631.1,314.5,631z"/>
<path id="XMLID_218_" fill="#EE3D3A" d="M306.7,580.7c2.6,16.8,5.2,33.5,7.8,50.3c-0.4,0.1-0.8,0.2-1.2,0.3
	c-2.6-16.8-5.2-33.6-7.8-50.4C306,580.8,306.2,580.8,306.7,580.7z"/>
<path id="XMLID_217_" fill="#F38385" d="M313.3,631.6c2.2,14,4.4,28.1,6.5,42.1c-13.8,2.2-27.6,4.4-41.4,6.7c-2.4-14-4.7-28-7.1-42
	c12.8-2.2,25.6-4.2,38.4-6.2C311.2,631.9,311.9,631.8,313.3,631.6z"/>
<path id="XMLID_216_" fill="#F38385" d="M313.3,631.3C313.3,631.4,313.3,631.4,313.3,631.3c-1.2,0.4-2.4,0.6-3.6,0.8
	c-12.8,2-25.6,4.1-38.4,6.2c-0.2-0.9-0.2-1.4-0.4-2.3c18.5-9,31.6-28.9,28.3-49.9c-0.2-1.4-0.5-2.8-0.9-4.2c2.8-0.4,4.3-0.7,7.1-1.1
	C308.1,597.7,310.7,614.5,313.3,631.3z"/>
<path id="XMLID_215_" fill="#F38385" d="M304.9,577.1c0.2,1.5,0.4,2.3,0.6,3.8c-2.8,0.4-4.3,0.7-7.1,1.1
	c-5.1-19-23.9-32.8-43.4-34.1c0.2-0.9,0.2-1.3,0.4-2.1c6.3-1.1,12.5-0.9,18.2,0.4c0.3,1.7,0.4,2.5,0.7,4.1c3.2-0.5,4.8-0.8,8-1.3
	C294,554.1,302.8,564.4,304.9,577.1z"/>
<path id="XMLID_214_" fill="#F38385" d="M298.4,582c0.4,1.4,0.7,2.8,0.9,4.2c3.3,21-9.8,40.8-28.3,49.9c-2.2-13.2-4.5-26.4-6.7-39.5
	c-0.1-1.5-0.3-3-0.5-4.5c-0.2-1.4-0.6-2.8-0.9-4.2C274.7,585.8,286.5,583.9,298.4,582z"/>
<path id="XMLID_213_" fill="#F38385" d="M298.4,582c-11.9,1.9-23.7,3.8-35.6,5.8c-7.1-25.3-35-37.3-59.5-32.8c12-2.2,24-4.4,36-6.5
	c5.3-0.9,10.7-1,15.7-0.6C274.1,549.5,293.3,563,298.4,582z"/>
<path id="XMLID_212_" fill="#F38385" d="M282.3,549.1c-3.2,0.5-4.8,0.8-8,1.3c-0.3-1.7-0.4-2.5-0.7-4.1
	C276.7,546.9,279.6,547.8,282.3,549.1z"/>
<path id="XMLID_211_" fill="#EE3D3A" d="M273.1,542.9c0.2,1.3,0.3,2,0.5,3.3c-5.7-1.2-11.9-1.5-18.2-0.4
	C262.5,544.6,266,544,273.1,542.9z"/>
<path id="XMLID_210_" fill="#EE3D3A" d="M262.8,587.8C262.8,587.8,262.8,587.8,262.8,587.8c-39.4,6.7-78.7,14.1-117.9,22.2
	c-2.6-26.2,19.1-47.5,43.5-52.1c6-1.1,8.9-1.7,14.9-2.8C227.8,550.5,255.7,562.5,262.8,587.8z"/>
<path id="XMLID_209_" fill="#EE3D3A" d="M271.3,638.4c2.4,14,4.7,28,7.1,42c-38.3,6.6-76.5,13.8-114.6,21.6
	c-2.9-13.9-5.8-27.8-8.7-41.7c16.9-3.5,33.9-6.9,50.9-10.1c5.8-1.1,8.7-1.6,14.5-2.7c11.6-2.2,23.3-4.3,34.9-6.3
	c6.3-1.1,9.4-1.6,15.6-2.7C271.2,638.4,271.3,638.4,271.3,638.4z"/>
<path id="XMLID_208_" fill="#EE3D3A" d="M271,636.1c0.2,0.9,0.2,1.4,0.4,2.3c-0.1,0-0.2,0-0.3,0c-6.3,1.1-9.4,1.6-15.6,2.7
	c-11.7,2-23.3,4.1-34.9,6.3c-5.8,1.1-8.7,1.6-14.5,2.7c-25.6,5.6-54.5-9.6-60.4-35.8c-0.3-1.4-0.5-2.9-0.7-4.3
	c39.2-8.1,78.4-15.5,117.9-22.2c0.6,3.5,0.9,5.2,1.5,8.7C266.5,609.7,268.7,622.9,271,636.1z"/>
<path id="XMLID_206_" fill="#EE3D3A" d="M206,650.1c-17,3.3-34,6.7-50.9,10.1c-3.2-15.3-6.4-30.7-9.6-46
	C151.6,640.5,180.4,655.7,206,650.1z"/>
<g id="XMLID_92_">
	<path id="XMLID_205_" fill="#841E1D" d="M836.7,523.2c8.5,0.1,16.8,0.3,25,0.4c2.3,0,3.7,0.9,4.5,2.7c2.3,4.9,4.4,9.9,4.3,15.2
		c-0.2,12.8-0.4,25.5-0.6,38.3c0,2.2-0.7,3.2-3.4,3.1c-7.1-0.3-14.1-0.3-21.2-0.4c-4.1-0.1-4.2-0.2-4.1-3.8c0.1-9.1,0-18.2,0.4-27.3
		c0.4-9.2-0.3-18.2-5.1-26.6C836.4,524.5,836.6,524.1,836.7,523.2z"/>
	<path id="XMLID_204_" fill="#841E1D" d="M868.9,523.7c9.9,0.2,18.5,0.5,27.1,0.7c2,0,2.8,1.1,3.6,2.5c2.4,4.7,4.3,9.6,4.3,14.7
		c-0.2,13.1-0.6,26.2-0.9,39.2c0,2.4-1.3,2.9-3.7,2.8c-7.2-0.3-14.5-0.5-21.7-0.6c-2.5,0-3.6-0.9-3.4-3.1c0.1-1.6,0.1-3.2,0.1-4.8
		c0.2-6.7,0.2-13.4,0.5-20.1C876.2,543.2,873.6,534.3,868.9,523.7z"/>
	<path id="XMLID_203_" fill="#841E1D" d="M304.1,561c8.5-1.3,15.9-2.3,23.2-3.6c2.1-0.3,3.2,0.6,4.3,2.2c3.6,5.4,5.9,11.3,7,17.7
		c1.7,11.4,3.4,22.8,5,34.1c0.5,3.2,0.4,3.3-3,3.8c-6,0.9-12,1.8-18,2.7c-3.5,0.5-3.6,0.5-4.2-3.1c-1.2-7.6-2.4-15.2-3.5-22.7
		C313.9,580,310.3,571.2,304.1,561z"/>
	<path id="XMLID_202_" fill="#841E1D" d="M557.3,532c8.3-0.6,16.5-1.1,24.7-1.8c2.6-0.2,4,0.6,5.1,2.5c3.2,5.4,5.5,11.1,5.9,17.2
		c0.8,11.6,1.6,23.2,2.3,34.9c0.2,3.7,0.2,3.8-3.8,4c-6.5,0.5-13,0.9-19.6,1.3c-4.9,0.3-5,0.3-5.3-4c-0.8-10-1.6-20-2.2-30.1
		c-0.4-7.8-2.5-15.1-6.9-21.8C557.2,533.8,556.7,533.3,557.3,532z"/>
	<path id="XMLID_201_" fill="#841E1D" d="M589.4,529.7c9.6-0.6,18-1.1,26.4-1.6c2.4-0.2,3.5,0.8,4.6,2.5c3.3,5.4,5.5,11.1,5.9,17.2
		c0.8,11.8,1.4,23.6,2,35.3c0.2,3.4,0.1,3.4-3.7,3.7c-7,0.4-14.1,0.7-21.1,1.3c-2.8,0.2-3.7-0.6-3.8-3.1c-0.4-8-1.1-15.9-1.4-23.9
		C598.5,549.1,595,540.1,589.4,529.7z"/>
	<path id="XMLID_200_" fill="#841E1D" d="M806.4,546.7c3.8,0,7.5-0.1,11.3,0.1c6.2,0.2,8.6,2.5,8.6,8.1c0,5.3,0,10.5-0.1,15.8
		c-0.1,4.4-2.9,7.5-7.6,7.6c-8.5,0.2-17,0.4-25.5-0.1c-5.5-0.3-7.7-3.1-7.5-7.5c0.3-5.4,0-10.9,0-16.3c0-5.3,2-7.3,7.9-7.6
		C797.8,546.6,802.1,546.7,806.4,546.7C806.4,546.7,806.4,546.7,806.4,546.7z"/>
	<path id="XMLID_199_" fill="#841E1D" d="M522.1,558.6c3.7-0.3,7.5-0.7,11.2-0.9c5.8-0.4,9,1.5,9.8,6.5c0.9,5.5,1.3,11.1,1.4,16.7
		c0.1,5-2.3,7.5-7.8,8.1c-8.1,0.9-16.2,1.7-24.3,2.1c-5.9,0.3-8.6-2.2-9.2-7.6c-0.5-4.9-1-9.8-1.4-14.8c-0.4-5.4,2.4-8.4,8.5-9
		C514.3,559.3,518.2,559,522.1,558.6z"/>
	<path id="XMLID_196_" fill="#841E1D" d="M475.4,563c3.9-0.4,7.8-0.9,11.7-1.1c6.9-0.3,9,1.9,9.3,7.1c0.3,5.3,0.7,10.5,1.5,15.7
		c0.6,4.1-0.9,7.4-7.2,8.4c-8,1.2-16.2,1.8-24.3,2.5c-5,0.4-8.3-2.2-8.9-6.7c-0.6-5.4-0.9-10.8-1.8-16.2c-0.7-4,1.2-7.3,7.3-8.4
		C467.2,563.6,471.3,563.5,475.4,563z"/>
	<path id="XMLID_193_" fill="#841E1D" d="M429.1,568.1c3.9-0.5,7.8-1,11.7-1.3c5.8-0.5,9.1,1.8,9.8,7c0.6,4.9,1.1,9.8,1.6,14.8
		c0.6,5.7-1.6,8.6-7.8,9.5c-7.9,1.1-15.8,2.1-23.8,2.7c-5.9,0.5-7.8-1.2-8.5-6.6c-0.7-5.7-1.4-11.4-2.1-17.1
		c-0.5-4.3,1.4-6.7,6.3-7.4C420.5,568.9,424.8,568.6,429.1,568.1C429.1,568.1,429.1,568.1,429.1,568.1z"/>
	<path id="XMLID_100_" fill="#841E1D" d="M381.9,573.9c3.9-0.5,7.8-1.1,11.7-1.5c5.8-0.6,9.1,1.7,9.9,6.9c0.7,4.9,1.3,9.8,1.8,14.7
		c0.6,5.7-1.5,8.6-7.7,9.6c-7.9,1.3-15.8,2.3-23.7,3.1c-5.9,0.6-7.9-1.1-8.6-6.5c-0.8-5.7-1.6-11.4-2.3-17.1
		c-0.5-4.3,1.3-6.7,6.1-7.5C373.3,574.9,377.6,574.5,381.9,573.9C381.9,573.9,381.9,573.9,381.9,573.9z"/>
	<path id="XMLID_99_" fill="#841E1D" d="M1028.3,586.6c-3.7-0.3-7.4-0.4-11.1-0.8c-7-0.8-9.2-4.4-8.7-9.4c0.5-4.8,0.6-9.6,1-14.3
		c0.5-5.7,3.6-8.2,10.2-7.7c7.5,0.5,15,1,22.5,1.6c6.3,0.5,9.1,3.1,8.9,8.7c-0.1,5.3-0.5,10.5-1.3,15.7c-0.7,5.1-3.5,7.2-9.4,7
		C1036.5,587.4,1032.4,586.9,1028.3,586.6z"/>
	<path id="XMLID_98_" fill="#841E1D" d="M938,549.7c3.8,0.2,7.5,0.3,11.3,0.5c6.2,0.4,9,3.2,8.8,8.7c-0.2,4.9-0.4,9.9-0.7,14.8
		c-0.3,5.4-2.9,8-8.9,8c-8.2-0.1-16.3-0.5-24.4-1.1c-5.5-0.4-7.3-2.6-7.2-7.7c0.1-5.8,0.4-11.5,0.6-17.2c0.2-4.6,2.5-6.5,7.7-6.5
		c0.2,0,0.4,0,0.5,0C929.8,549.4,933.9,549.6,938,549.7z"/>
	<path id="XMLID_97_" fill="#841E1D" d="M982.4,583.6c-3.7-0.2-7.4-0.4-11.2-0.6c-6-0.5-8.8-3.3-8.6-8.8c0.2-5.3,0.8-10.5,0.7-15.8
		c0-4.4,2.8-7,8.2-6.9c8.4,0.1,16.8,0.6,25.2,1.4c4.7,0.5,7.9,1.7,7.4,8.1c-0.4,5.4-1,10.8-1,16.3c0,4-2.3,6.9-8.6,7
		C990.5,584.3,986.4,583.8,982.4,583.6C982.4,583.6,982.4,583.6,982.4,583.6z"/>
	<path id="XMLID_95_" fill="#841E1D" d="M709.2,548c3.9-0.1,7.9-0.3,11.8-0.3c5.5,0,8.6,2.7,8.8,7.6c0.2,5.1,0.3,10.2,0.3,15.3
		c0,5.2-2.2,8-7.9,8.4c-8.3,0.6-16.6,0.8-25,0.7c-5.7,0-7.4-2-7.6-7.1c-0.2-5.7-0.4-11.5-0.6-17.3c-0.1-4.6,2-6.8,7.2-7.1
		C700.6,548.1,704.9,548.1,709.2,548z"/>
	<path id="XMLID_94_" fill="#841E1D" d="M755.8,547c3.9,0,7.9-0.3,11.8-0.1c6.2,0.3,8.5,2.3,8.4,7.7c-0.1,5.4,0.1,10.9,0.1,16.3
		c0,4.3-3,7.3-7.7,7.5c-8.3,0.3-16.6,0.4-25,0.3c-4.7,0-7.7-3.1-7.8-7.4c-0.2-5.4-0.1-10.9-0.4-16.3c-0.2-5.2,1.9-7.2,8.3-7.9
		c0.4,0,0.7,0,1.1,0C748.3,547.1,752,547,755.8,547z"/>
	<path id="XMLID_93_" fill="#841E1D" d="M662.7,549.6c3.9-0.2,7.9-0.4,11.8-0.5c5.9-0.1,8,1.8,8.3,7c0.2,5.6,0.5,11.2,0.6,16.7
		c0.1,5.2-1.8,7.4-7.7,7.8c-7.8,0.5-15.6,0.9-23.3,1c-6.7,0.1-9.5-3-9.6-8.4c0-4.8-0.5-9.6-0.6-14.3c-0.2-5.5,2.7-8.3,8.8-8.8
		c0.2,0,0.4,0,0.5,0C655.2,549.9,658.9,549.8,662.7,549.6z"/>
</g>
<path id="XMLID_91_" fill="#841E1D" d="M1041.7,520.2c-2-0.1-4-0.1-5.9-0.3c-44.3-3.1-88.7-5.5-133.2-7c-2.2-0.1-4.3,0-6.5,0
	c-1.2-0.1-2.5-0.4-3.7-0.4c-24.2-0.7-48.4-1.1-72.7-1.3c-0.9,0-1.8,0.1-2.7,0.2c-19.5-0.1-39-0.1-58.5,0.1
	c-44.8,0.6-89.5,2.1-134.2,4.4c-2.2,0.1-4.3,0.3-6.5,0.5c-1.3,0-2.5-0.1-3.8-0.1c-24.1,1.4-48.2,3.1-72.3,4.9
	c-0.9,0.1-1.8,0.3-2.7,0.4c-1.6,0.1-3.3,0.1-4.9,0.3c-82.2,6.9-164.1,16.8-245.7,29.6c-0.9,0.1-1.8,0.3-2.7,0.5
	c-2,0.6-4.1,0-4.4-1.6c-0.4-2,2.1-2.3,3.8-2.8c2.3-0.6,4.6-0.9,6.9-1.3c243.1-37.8,489.3-48.4,734.7-31.7c3.1,0.2,6.1,0.6,9.2,0.9
	C1039.1,516.2,1041.7,516.9,1041.7,520.2z"/>
<path id="XMLID_90_" fill="#F38385" d="M298.4,582c2.8-0.4,4.3-0.7,7.1-1.1c-0.2-1.5-0.4-2.3-0.6-3.8c-2-12.7-10.9-23-22.5-28
	c-3.2,0.5-4.8,0.8-8,1.3c-0.3-1.7-0.4-2.5-0.7-4.1c-5.7-1.2-11.9-1.5-18.2-0.4c-6.4,1.1-9.7,1.6-16.1,2.8
	C263.8,544.3,291.6,556.6,298.4,582z"/>
<path id="XMLID_88_" fill="#841E1D" d="M161.3,646.5c-2.1,0.1-2.9-0.9-3.3-2.8c-1-5.5-2.2-10.9-3.3-16.4c-0.7-3.6-1.5-7.2-2.2-10.8
	c-4.3-18.9,8.8-38.7,24.9-47.3c9.5-1.1,19-3.1,28.4-4.8c3.6-0.6,6.9-1.6,10-3.5c18.4,1.2,34.8,12.5,42.1,29.5
	c0.6,1.3,0.9,2.7,1.1,4.1c1.7,9.6,3.3,19.1,5,28.7c0.3,1.8,0.5,3.4-1.9,4.3c-0.3,2-2.2,2.9-3.5,4.2c-6.2,5.9-12.8,11.4-19,17.3
	c-1.7,1.6-3.4,3.5-6.4,2.8c-0.5-0.3-0.9-0.7-1.2-1.2c-1.4-3.6-1.7-7.4-2.4-11.2c-4-21.6-7.9-43.3-11.9-64.9c-1.5-8.2-1.5-8.2-11-6.4
	c-6,1.1-12.1,2.3-18.1,3.4c-2.1,0.4-4.3,0.6-5.7,2.6c-0.8,2,0,3.8,0.4,5.7c4.5,23.2,9,46.4,13.5,69.5c0.5,2.5,1.2,5,1,7.6
	c-0.1,0.6-0.3,1.1-0.6,1.6c-0.4,0.4-0.9,0.7-1.5,0.9c-1,0.3-2.1,0.2-3.1-0.1c-10.2-3.6-20.4-7.4-30.4-11.6
	C161.8,647.3,161.5,646.9,161.3,646.5z"/>
<path id="XMLID_87_" fill="#841E1D" d="M232.4,651.3c0-0.5,0.1-0.9,0-1.4c-4.9-26.9-9.8-53.8-14.7-80.7c-0.1-0.6-0.2-1.3-0.4-1.9
	c-0.3-1.3-1-2-2.6-1.7c-11.6,2.1-23,4.2-34.5,7c5.5,28.5,11.1,57.1,16.6,85.6C208.6,655.8,220.5,652.8,232.4,651.3z"/>
<g id="XMLID_75_">
	<path id="XMLID_86_" fill="#F38385" d="M161.3,646.5c6.9,1.7,13.1,4.8,19.7,7.1c4.7,1.6,9.3,3.4,13.9,5.1c0.6,0.5,1.3,0.3,2,0.4
		c0.7,0.3,1.1,0.8,1.5,1.5c0.2,0.4,0.4,0.9,0.5,1.4c0.2,1.5,0.7,2.9-0.6,4.2c-0.9-0.1-1.8,0-2.6-0.3c-11-4.3-21.9-8.5-33-12.7
		c-2.1-0.8-3.3-1.9-3.7-4C158.8,647.3,160,647,161.3,646.5z"/>
	<path id="XMLID_85_" fill="#F38385" d="M243.1,652.6c-2.6,1.6-4.8,3.6-6.6,5.9c-0.2,0.4-0.6,0.7-1.1,0.8c-0.5,0-0.9-0.1-1.3-0.5
		c-1-1.3-1.2-2.9-1.4-4.4c0-0.4,0-0.9,0.1-1.3c0.1-0.4,0.4-0.8,0.7-1.2c0.4-0.2,0.8-0.4,1.3-0.6c7.6-6.9,15.2-13.7,22.9-20.4
		c1.4-1.2,2.6-2.7,4.5-3.5c3.5,0.9,4.3,3.6,1.6,6.1c-4.1,3.8-8.3,7.6-12.4,11.3C248.5,647.5,245.4,649.7,243.1,652.6z"/>
	<path id="XMLID_84_" fill="#F38385" d="M182.5,601.5c1.3,6.9,2.7,13.8,4,20.7c0.7,3.7,0.6,3.8-3.3,4.6c-6.8,1.4-13.6,2.8-20.4,4.1
		c-3.7,0.7-4,0.6-4.5-2.7c-1.1-6.4-3.8-12.6-2.8-19.3c0.8-9.2,5.3-20.8,12.6-26.9c0.5-0.5,1-1,1.6-1.4c6.3-4.7,8-4.2,9.3,2.6
		C180.2,589.3,181.4,595.4,182.5,601.5z"/>
	<path id="XMLID_83_" fill="#F38385" d="M244.4,615.4c-2.6,0.5-5.3,0.9-7.9,1.4c-6.1,1.1-6.1,1.1-7.1-4.2c-2.3-12.9-4.7-25.8-7-38.7
		c-0.1-0.8-0.3-1.6-0.4-2.4c-0.2-2.6,0.3-3.2,3.3-3.1c5,0.2,9.6,1.6,13.2,4.5c9.2,7.2,17.2,16.8,18.5,28.8c0.3,2.7,0.8,5.4,1.4,8
		c0.5,2.2-0.3,3.3-2.8,3.7C251.8,614,248.1,614.7,244.4,615.4C244.4,615.4,244.4,615.4,244.4,615.4z"/>
	<path id="XMLID_82_" fill="#F38385" d="M189.8,605.1c-1.7-8.8-3.4-17.5-5.1-26.3c-0.7-3.8-0.6-3.9,3.8-4.8
		c7.4-1.5,14.9-2.9,22.4-4.2c3.8-0.7,4-0.6,4.6,2.7c3.4,18.2,6.7,36.4,10.1,54.6c0.5,2.5-0.5,3.5-3.1,3.9c-7.7,1.3-15.3,2.9-23,4.3
		c-3.5,0.6-3.7,0.5-4.4-3C193.3,623.3,191.6,614.2,189.8,605.1z"/>
	<path id="XMLID_81_" fill="#F38385" d="M215.5,639.8c0,2-0.7,3.4-2.8,3.7c-2.1,0.3-3.5-0.6-3.8-2.3c-0.3-1.7,0.7-3.1,2.8-3.5
		C213.9,637.3,214.9,638.4,215.5,639.8z"/>
	<path id="XMLID_76_" fill="#F38385" d="M216.9,563.6c-12.7,2.3-25.3,4.7-37.9,7.1c-0.8,0.2-1.6-0.3-1.8-1.1
		c-0.2-1.1-0.3-1.6-0.5-2.7c-0.1-0.7,0.4-1.5,1.3-1.6c12.6-2.5,25.3-4.8,38-7.2c0.8-0.2,1.6,0.3,1.8,1.1c0.2,1.1,0.3,1.6,0.5,2.7
		C218.3,562.7,217.7,563.5,216.9,563.6z"/>
</g>
<g id="XMLID_68_">
	<path id="XMLID_69_" fill="#841E1D" d="M1051.7,606.1c-3-0.3-6-0.7-8.9-1c-238.3-18.2-478.5-9.5-714.8,25.8
		c-2.3,0.3-4.6,0.6-6.8,1.2c-1.6,0.5-4.1,0.8-3.7,2.7c0.3,1.6,2.3,2.2,4.3,1.6c0.9-0.2,1.7-0.3,2.6-0.5
		c79.3-12,159.2-21.1,239.1-27.1c1.6-0.1,3.2-0.2,4.7-0.2c0.9-0.1,1.7-0.3,2.6-0.4c23.4-1.7,46.9-3.1,70.4-4.3
		c1.2-0.1,2.4,0.1,3.7,0.1c2.1-0.2,4.2-0.3,6.3-0.4c43.5-2,87.1-3.2,130.5-3.4c18.9-0.1,37.9,0,56.9,0.3c0.9-0.1,1.7-0.2,2.6-0.2
		c23.5,0.3,47.1,0.9,70.7,1.7c1.2,0,2.4,0.3,3.6,0.4c2.1,0,4.2,0,6.3,0.1c43.2,1.7,86.4,4.3,129.5,7.7c0.7,0.1,1.3,0.1,2,0.1
		c0.2-1.6,0.2-2.3,0.4-3.9C1053,606.3,1052.4,606.2,1051.7,606.1z"/>
</g>
<path id="XMLID_34_" fill="#F38385" d="M468.1,617.1c0.7,6.3-4.4,12-11.3,12.7c-6.9,0.8-13-3.7-13.8-10c-0.7-6.3,4.3-12,11.3-12.8
	C461.2,606.3,467.4,610.8,468.1,617.1z"/>
</svg>
