<?xml version="1.0" encoding="utf-8"?>
<!-- Generator: Adobe Illustrator 16.0.0, SVG Export Plug-In . SVG Version: 6.00 Build 0)  -->
<!DOCTYPE svg PUBLIC "-//W3C//DTD SVG 1.1//EN" "http://www.w3.org/Graphics/SVG/1.1/DTD/svg11.dtd">
<svg version="1.1" xmlns="http://www.w3.org/2000/svg" xmlns:xlink="http://www.w3.org/1999/xlink" x="0px" y="0px" width="2000px"
	 height="2000px" viewBox="0 0 2000 2000" enable-background="new 0 0 2000 2000" xml:space="preserve">
<g id="Layer_1">
</g>
<g id="Layer_2">
	<g>
		<polygon stroke-width="2" stroke="#FFFFFF" fill-opacity="0" points="649.911,756 551,756 551,813 592.865,813 		"/>
		<polygon stroke-width="2" stroke="#FFFFFF" fill-opacity="0" points="774,756 774,762 720,762 720,756 666,756 594,828 594,936 576,954 576,1008 648,936 648,864
			702,810 758,810 812,756 		"/>
		<polygon stroke-width="2" stroke="#FFFFFF" fill-opacity="0" points="828,756 774,810 774,846 784.017,846 783.954,954 837.833,1008 900,1008 846,954 846,826 828,808
			828,792 936,900 1008,900 864,756 		"/>
		<polygon stroke-width="2" stroke="#FFFFFF" fill-opacity="0" points="782,1008 823.546,1008 782,966.297 		"/>
		<polygon stroke-width="2" stroke="#FFFFFF" fill-opacity="0" points="1098,756 990,756 934.956,811.206 971.08,847.08 1008,810 1044,810 1044,972 1080,1008 1170,1008
			1098,936 		"/>
		<polygon stroke-width="2" stroke="#FFFFFF" fill-opacity="0" points="1368,810 1422,756 1314,756 1314,954 1278,954 1224,1008 1331.999,1008 1368,972 		"/>
		<polygon stroke-width="2" stroke="#FFFFFF" fill-opacity="0" points="1595,756 1481,756 1481,810 1541,810 		"/>
		<polygon stroke-width="2" stroke="#FFFFFF" fill-opacity="0" points="1552,858 1425,858 1425,838 1453,810 1471,810 1471,756 1438.167,756 1380,814 1380,906 1531,906
			1531,928 1505,954 1401.5,954 1349,1008 1461,1008 1523,1008 1577,954 1577,906 1577,882 		"/>
		<polygon stroke-width="2" stroke="#FFFFFF" fill-opacity="0" points="1188,954 1170,936 1170,810 1303,810 1303,756 1196.958,756 1188,764 1170,764 1170,756 1110,756
			1110,930 1187.667,1008 1206,1008 1260,954 		"/>
		<polygon stroke-width="2" stroke="#FFFFFF" fill-opacity="0" points="476,918 494,918 494,944 540,944 540,756 468,756 242,981.667 242,1065 476,828 		"/>
		<polygon stroke-width="2" stroke="#FFFFFF" fill-opacity="0" points="369,954 342,981 369,1008 566,1008 566,954 		"/>
		<polygon stroke-width="2" stroke="#FFFFFF" fill-opacity="0" points="648,1008 648,950.479 590.833,1008 		"/>
	</g>
</g>
</svg>
